<svg width="334" height="279" viewBox="0 0 334 279" fill="none" xmlns="http://www.w3.org/2000/svg">
<g clip-path="url(#clip0)">
<path d="M329.504 95.4614C329.896 96.976 330.263 98.4984 330.606 100.028H213.997V95.4614H329.504Z" fill="#E6E6E6"/>
<path d="M325.787 83.4225C323.909 78.1795 321.72 73.0508 319.231 68.0633C318.465 66.5256 317.67 65.0032 316.845 63.4962C316.709 63.2376 316.565 62.979 316.42 62.7204V96.7082H326.496V85.4451L325.787 83.4225Z" fill="#E6E6E6"/>
<path d="M319.231 68.0633H316.42V63.4962H316.845C317.671 65.0017 318.466 66.524 319.231 68.0633Z" fill="#CCCCCC"/>
<path d="M325.787 83.4224H316.42V87.9895H326.496V85.4451L325.787 83.4224Z" fill="#CCCCCC"/>
<path d="M310.963 57.2698H300.889V96.7087H310.963V57.2698Z" fill="#E6E6E6"/>
<path d="M310.963 63.4971H300.889V68.0637H310.963V63.4971Z" fill="#CCCCCC"/>
<path d="M310.963 83.4241H300.889V87.9907H310.963V83.4241Z" fill="#CCCCCC"/>
<path d="M265.019 57.0403H228.878C228.321 57.0412 227.787 57.2604 227.393 57.6499C226.999 58.0394 226.778 58.5675 226.777 59.1184V94.861C226.778 95.0642 226.807 95.2664 226.866 95.4613C226.997 95.8884 227.263 96.2625 227.625 96.5286C227.988 96.7946 228.427 96.9385 228.878 96.9391H265.019C265.47 96.9385 265.91 96.7947 266.272 96.5286C266.634 96.2626 266.901 95.8884 267.032 95.4613C267.09 95.2664 267.12 95.0643 267.12 94.861V59.1184C267.12 58.5675 266.898 58.0394 266.504 57.6499C266.11 57.2604 265.576 57.0412 265.019 57.0403Z" fill="#E6E6E6"/>
<path d="M262.451 59.5802H231.446C230.889 59.581 230.355 59.8002 229.961 60.1898C229.567 60.5793 229.346 61.1074 229.345 61.6583V92.3212C229.346 92.872 229.567 93.4001 229.961 93.7896C230.355 94.1792 230.889 94.3984 231.446 94.3992H262.451C263.008 94.3984 263.542 94.1792 263.936 93.7896C264.33 93.4001 264.551 92.872 264.552 92.3212V61.6583C264.551 61.1074 264.33 60.5793 263.936 60.1898C263.542 59.8002 263.008 59.581 262.451 59.5802Z" fill="white"/>
<path d="M257.044 64.9277H236.853C236.296 64.9286 235.762 65.1478 235.368 65.5373C234.975 65.9268 234.753 66.4549 234.752 67.0058V86.9736C234.753 87.5245 234.975 88.0526 235.368 88.4421C235.762 88.8317 236.296 89.0509 236.853 89.0517H257.044C257.6 89.0488 258.133 88.829 258.526 88.4399C258.92 88.0508 259.142 87.5239 259.145 86.9736V67.0058C259.144 66.4549 258.923 65.9268 258.529 65.5373C258.135 65.1478 257.601 64.9286 257.044 64.9277Z" fill="#CCCCCC"/>
<path d="M255.799 83.4517L251.534 76.1467C251.452 76.0063 251.335 75.8897 251.193 75.8086C251.051 75.7276 250.89 75.6849 250.726 75.6849C250.562 75.6849 250.401 75.7276 250.259 75.8086C250.117 75.8897 249.999 76.0063 249.917 76.1467L246.803 81.4809L242.719 74.486C242.637 74.3456 242.519 74.229 242.377 74.148C242.235 74.0669 242.074 74.0242 241.91 74.0242C241.746 74.0242 241.585 74.0669 241.443 74.148C241.301 74.229 241.183 74.3456 241.101 74.486L236.837 81.7911L231.764 90.4816H241.548L240.579 92.1422H260.873L255.799 83.4517Z" fill="white"/>
<path d="M254.294 72.2152C255.917 72.2152 257.232 70.9141 257.232 69.3091C257.232 67.7042 255.917 66.4031 254.294 66.4031C252.671 66.4031 251.355 67.7042 251.355 69.3091C251.355 70.9141 252.671 72.2152 254.294 72.2152Z" fill="white"/>
<path d="M333.963 127.731C333.93 125.94 333.858 124.157 333.748 122.384C333.701 121.534 333.645 120.689 333.575 119.844H313.861C313.304 119.845 312.77 120.064 312.376 120.453C311.982 120.843 311.761 121.371 311.76 121.922V157.665C311.759 157.828 311.779 157.991 311.82 158.149C311.931 158.603 312.192 159.006 312.562 159.295C312.932 159.584 313.39 159.742 313.861 159.743H332.034C332.128 159.216 332.216 158.681 332.296 158.149C332.347 157.835 332.399 157.517 332.445 157.203C332.557 156.45 332.665 155.697 332.763 154.945C332.903 153.919 333.029 152.89 333.141 151.855C333.552 148.147 333.817 144.399 333.935 140.611V140.606C333.977 139.179 333.999 137.746 334 136.307V130.765C334 129.749 333.991 128.738 333.963 127.731Z" fill="#E6E6E6"/>
<path d="M333.963 127.731C333.93 125.94 333.858 124.157 333.748 122.384H316.429C315.872 122.385 315.338 122.604 314.944 122.993C314.55 123.383 314.329 123.911 314.328 124.462V155.125C314.329 155.676 314.55 156.204 314.944 156.593C315.338 156.983 315.872 157.202 316.429 157.203H332.445C332.557 156.45 332.665 155.697 332.763 154.945C332.903 153.919 333.029 152.89 333.141 151.855C333.552 148.147 333.816 144.399 333.935 140.611V140.606C333.977 139.179 333.998 137.746 334 136.307V130.765C334 129.749 333.991 128.738 333.963 127.731Z" fill="white"/>
<path d="M333.963 127.731H321.836C321.279 127.732 320.745 127.951 320.351 128.341C319.957 128.73 319.736 129.259 319.735 129.809V149.777C319.736 150.328 319.957 150.856 320.351 151.246C320.745 151.635 321.279 151.854 321.836 151.855H333.141C333.552 148.147 333.816 144.399 333.935 140.611V140.606C333.977 139.179 333.998 137.746 334 136.307V130.765C334 129.749 333.991 128.738 333.963 127.731Z" fill="#CCCCCC"/>
<path d="M333.935 140.611C333.818 144.397 333.553 148.146 333.141 151.855C333.029 152.89 332.903 153.919 332.763 154.945H325.563L326.534 153.287H316.747L319.735 148.166L321.818 144.596L326.086 137.29C326.167 137.149 326.284 137.032 326.426 136.951C326.568 136.869 326.729 136.826 326.893 136.826C327.057 136.826 327.219 136.869 327.36 136.951C327.502 137.032 327.62 137.149 327.701 137.29L331.787 144.286L333.935 140.611Z" fill="white"/>
<path d="M298.555 37.345H213.997V32.7779H294.362C295.791 34.2695 297.188 35.7919 298.555 37.345Z" fill="#E6E6E6"/>
<path d="M258.912 5.67078C262.358 7.54565 265.716 9.55443 268.988 11.6971V34.0201H258.912V5.67078Z" fill="#E6E6E6"/>
<path d="M268.986 20.7371H258.911V25.3037H268.986V20.7371Z" fill="#CCCCCC"/>
<path d="M284.519 23.4267V34.0201H274.442V15.4515C276.791 17.1463 279.087 18.9088 281.329 20.739C282.403 21.6164 283.466 22.5123 284.519 23.4267Z" fill="#E6E6E6"/>
<path d="M284.519 23.4266V25.3015H274.442V20.739H281.329C282.403 21.6164 283.466 22.5123 284.519 23.4266Z" fill="#CCCCCC"/>
<path d="M248.625 0.581861C251.291 1.76863 253.912 3.03394 256.488 4.37778L254.415 8.51542L247.527 22.2814L245.478 26.3729L242.27 32.7779L241.565 34.1864L238.693 32.7779L232.539 29.7624L236.447 21.9489H236.452L238.497 17.8574L245.389 4.09146L247.415 0.0461819L247.439 0L248.625 0.581861Z" fill="#E6E6E6"/>
<path d="M256.465 4.41934L254.415 8.51542L245.389 4.09146L247.415 0.0461791L247.439 0L248.625 0.581856L256.465 4.41934Z" fill="#CCCCCC"/>
<path d="M238.497 17.8587L236.448 21.9512L245.477 26.3719L247.526 22.2794L238.497 17.8587Z" fill="#CCCCCC"/>
<path d="M332.296 158.149C332.216 158.68 332.128 159.216 332.034 159.743C331.871 160.74 331.693 161.728 331.502 162.717H213.997V158.149H332.296Z" fill="#E6E6E6"/>
<path d="M268.986 119.957H258.911V159.396H268.986V119.957Z" fill="#E6E6E6"/>
<path d="M268.986 126.184H258.911V130.751H268.986V126.184Z" fill="#CCCCCC"/>
<path d="M268.986 146.111H258.911V150.678H268.986V146.111Z" fill="#CCCCCC"/>
<path d="M284.518 119.957H274.443V159.396H284.518V119.957Z" fill="#E6E6E6"/>
<path d="M284.518 126.184H274.443V130.751H284.518V126.184Z" fill="#CCCCCC"/>
<path d="M284.518 146.111H274.443V150.678H284.518V146.111Z" fill="#CCCCCC"/>
<path d="M250.231 119.794L232.537 155.138L241.566 159.559L259.259 124.214L250.231 119.794Z" fill="#E6E6E6"/>
<path d="M247.437 125.374L245.388 129.467L254.417 133.888L256.466 129.795L247.437 125.374Z" fill="#CCCCCC"/>
<path d="M238.497 143.233L236.448 147.325L245.477 151.746L247.526 147.653L238.497 143.233Z" fill="#CCCCCC"/>
<path d="M136.719 175.749C137.14 175.989 137.541 176.261 137.919 176.563L179.49 163.769L181.834 153.568L197.862 155.055L195.487 173.511C195.295 175.002 194.619 176.392 193.561 177.47C192.503 178.549 191.119 179.259 189.618 179.494L140.695 187.155C139.981 188.866 138.758 190.321 137.187 191.327C135.617 192.334 133.774 192.843 131.903 192.788C130.033 192.734 128.223 192.117 126.716 191.02C125.209 189.923 124.074 188.399 123.464 186.649C122.854 184.9 122.798 183.008 123.301 181.225C123.805 179.443 124.846 177.854 126.284 176.671C127.723 175.488 129.492 174.766 131.356 174.601C133.22 174.436 135.091 174.837 136.719 175.749Z" fill="#FFB8B8"/>
<path d="M205.269 161.174L204.994 156.519V156.515L204.919 155.24L204.107 141.534C204.35 138.677 203.438 135.841 201.572 133.647C199.705 131.453 197.035 130.079 194.147 129.828C193.316 129.754 192.479 129.776 191.654 129.892C189.2 130.236 186.936 131.388 185.228 133.164C183.52 134.939 182.469 137.233 182.245 139.673L180.559 146.609L177.613 158.741C177.404 159.589 177.49 160.483 177.858 161.277C178.226 162.071 178.853 162.72 179.639 163.118C180.093 163.354 180.59 163.499 181.101 163.543L186.013 163.977L190.743 164.393L196.201 164.873L196.594 164.905L197.602 164.998L200.978 165.293H200.988C201.551 165.338 202.119 165.264 202.651 165.076C203.184 164.889 203.671 164.591 204.079 164.203C204.376 163.917 204.626 163.587 204.821 163.224C205.162 162.596 205.317 161.886 205.269 161.174V161.174Z" fill="#F3BA2B"/>
<path d="M250.888 104.731C250.888 120.536 236.11 118.145 217.882 118.145C199.653 118.145 184.876 120.536 184.876 104.731C184.876 88.9257 192.095 60.9103 217.882 60.9103C244.558 60.9103 250.888 88.9257 250.888 104.731Z" fill="#2F2E41"/>
<path d="M233.476 111.685C242.149 103.108 242.149 89.2002 233.476 80.6225C224.803 72.0447 210.74 72.0447 202.067 80.6225C193.393 89.2002 193.393 103.108 202.067 111.685C210.74 120.263 224.803 120.263 233.476 111.685Z" fill="#FFB8B8"/>
<path d="M249.036 127.353C248.608 126.945 248.154 126.566 247.677 126.217C244.657 123.96 240.863 122.967 237.11 123.45L196.183 128.572C192.434 129.032 189.014 130.918 186.647 133.83C184.28 136.742 183.154 140.451 183.505 144.171C183.622 145.464 183.753 146.826 183.898 148.244C184.084 150.022 184.294 151.887 184.537 153.818C184.939 157.064 185.429 160.491 186.013 163.977C186.522 166.979 187.101 170.022 187.764 173.028C187.955 173.896 188.155 174.761 188.361 175.623C188.361 175.626 188.361 175.629 188.362 175.631C188.363 175.633 188.364 175.636 188.366 175.637C188.39 175.744 188.413 175.85 188.441 175.951C188.44 175.959 188.441 175.968 188.446 175.974C188.735 177.175 189.039 178.362 189.356 179.535C189.478 179.969 189.594 180.398 189.716 180.823C190.043 181.978 190.388 183.109 190.743 184.222C193.409 192.502 196.934 199.553 201.59 203.303C201.651 203.359 201.711 203.405 201.777 203.456L201.964 203.599L202.234 203.516L203.383 203.179L204.364 202.883L217.139 199.082L220.319 198.136L230.536 195.093H230.54L239.884 192.313L241.023 191.971L249.05 189.583L249.306 186.619L249.652 182.684L249.858 180.32L251.482 161.673L252.43 150.793L253.458 138.98C253.648 136.838 253.35 134.681 252.585 132.669C251.819 130.656 250.606 128.839 249.036 127.353Z" fill="#2F2E41"/>
<path d="M271.921 217.582C271.813 217.272 271.71 216.963 271.603 216.658C266.803 202.805 259.724 192.327 249.307 186.619C249.302 186.619 249.302 186.614 249.297 186.614L249.12 186.517L240.043 189.625L238.922 190.008L237.755 190.41L237.741 190.415L229.242 193.324L229.228 193.329L222.56 195.61H222.556L216.387 197.72H216.383L214.949 198.214L204.168 201.904L202.916 202.334L201.796 202.717L201.623 202.777L201.59 203.303L200.82 216.658L200.768 217.582L199.806 234.248L167.863 279H189.716C197.038 279.002 204.35 278.451 211.587 277.351L232.091 255.5C232.262 255.324 232.479 255.197 232.719 255.135C232.958 255.072 233.209 255.075 233.447 255.143C233.684 255.212 233.898 255.343 234.066 255.523C234.233 255.703 234.348 255.925 234.397 256.165L237.409 270.942C252.247 265.753 266.126 258.2 278.5 248.582C277.062 237.106 274.96 226.647 271.921 217.582Z" fill="#5B5771"/>
<path d="M192.11 93.9991H200.895L204.77 83.2676L205.545 93.9991H209.743L212.004 87.739L212.456 93.9991H243.653C243.653 90.9456 243.045 87.9221 241.864 85.1011C240.682 82.2801 238.95 79.7168 236.767 77.5577C234.584 75.3986 231.992 73.6859 229.14 72.5174C226.287 71.3489 223.23 70.7475 220.143 70.7475H215.621C209.386 70.7475 203.406 73.1972 198.997 77.5577C194.587 81.9183 192.11 87.8324 192.11 93.9991Z" fill="#2F2E41"/>
<path d="M138.079 210.372C136.644 210.968 135.096 211.246 133.541 211.186C131.987 211.126 130.465 210.729 129.082 210.024C127.699 209.319 126.49 208.323 125.538 207.106C124.587 205.889 123.917 204.48 123.576 202.979L86.0031 198.771L98.5979 183.855L132.347 190.138C134.934 189.738 137.58 190.291 139.783 191.692C141.986 193.092 143.593 195.243 144.3 197.737C145.007 200.231 144.763 202.895 143.617 205.224C142.47 207.553 140.5 209.384 138.079 210.372L138.079 210.372Z" fill="#A0616A"/>
<path d="M117.821 182.763L101.94 179.955L100.787 179.752C99.8656 179.589 98.9892 179.235 98.2157 178.714C97.4422 178.192 96.789 177.515 96.299 176.726C95.8091 175.937 95.4934 175.054 95.3729 174.136C95.2523 173.218 95.3296 172.285 95.5996 171.398L103.397 145.773L103.631 145.011C104.604 141.754 104.431 138.267 103.139 135.12C101.847 131.973 99.5132 129.354 96.5193 127.69C94.4928 126.577 92.234 125.941 89.9186 125.832C87.6032 125.723 85.2935 126.144 83.1694 127.062C81.0452 127.979 79.1636 129.369 77.6711 131.123C76.1786 132.877 75.1152 134.948 74.5638 137.175L64.6181 177.318L64.2492 178.805C63.5545 181.606 63.4788 184.523 64.0271 187.355C64.5754 190.188 65.7349 192.87 67.4266 195.22C69.1182 197.569 71.3022 199.53 73.8296 200.969C76.3571 202.408 79.1685 203.29 82.0723 203.557C82.1049 203.562 82.1329 203.562 82.1657 203.566L88.1192 204.088L95.8422 204.767L105.555 205.621L114.618 206.42C115.805 206.527 116.989 206.188 117.936 205.471C118.882 204.754 119.521 203.712 119.726 202.551C119.74 202.486 119.75 202.421 119.759 202.357L121.683 188.152L121.701 188.023C121.867 186.82 121.556 185.6 120.833 184.62C120.109 183.639 119.03 182.974 117.821 182.763Z" fill="#CCCCCC"/>
<path d="M93.3541 75.134C87.0146 87.4605 82.0182 100.174 68.0347 100.174C61.3196 100.174 54.8795 97.536 50.1312 92.8401C45.3829 88.1441 42.7153 81.7751 42.7153 75.134C42.7153 61.3047 54.0522 50.2669 68.0347 50.0938C82.246 49.9178 105.154 52.1906 93.3541 75.134Z" fill="#2F2E41"/>
<path d="M109.257 236.391L108.683 230.72L108.253 230.743L32.7539 234.34L32.95 240.08L33.2817 249.912C44.9641 258.713 57.9374 265.697 71.7527 270.623L72.2431 266.864C72.286 266.558 72.4345 266.275 72.6637 266.065C72.8928 265.855 73.1884 265.729 73.5005 265.709C73.8125 265.69 74.1219 265.778 74.376 265.958C74.6302 266.138 74.8136 266.399 74.8952 266.698L76.3847 272.188C88.4194 276.027 100.917 278.265 113.549 278.843L109.257 236.391Z" fill="#5B5771"/>
<path d="M84.9856 94.2285C93.659 85.6507 93.659 71.7434 84.9856 63.1657C76.3122 54.5879 62.2498 54.5879 53.5764 63.1657C44.903 71.7434 44.903 85.6507 53.5764 94.2285C62.2498 102.806 76.3122 102.806 84.9856 94.2285Z" fill="#A0616A"/>
<path d="M113.595 231.103L109.192 217.582L109.117 217.351L108.893 216.658L107.637 212.807C107.231 211.555 106.843 210.299 106.484 209.039C106.152 207.903 105.843 206.764 105.555 205.621C105.144 204.033 104.77 202.438 104.434 200.837C103.294 195.458 102.535 190.006 102.16 184.522C102.057 183.003 101.984 181.481 101.94 179.955C101.667 170.605 102.518 161.256 104.476 152.105C106.18 144.191 105.27 135.945 101.879 128.582C98.4878 121.218 92.7952 115.127 85.6397 111.204C80.9443 108.637 75.7473 107.096 70.3987 106.683C70.0298 106.655 69.6609 106.632 69.2874 106.609C63.6375 106.256 57.9795 107.162 52.7312 109.261C47.4828 111.36 42.7781 114.598 38.9644 118.736C36.9217 120.936 35.1476 123.366 33.6785 125.976C29.6023 133.24 28.0721 141.633 29.3267 149.846L34.575 184.698L33.3798 199.369L31.9697 216.658L31.8949 217.582L30.3912 236.017C30.32 236.876 30.5304 237.735 30.9912 238.467C31.4521 239.199 32.1389 239.764 32.95 240.08C33.4252 240.268 33.9326 240.364 34.4444 240.362C34.5191 240.362 34.5891 240.362 34.6639 240.357L109.258 236.391L109.939 236.354C110.561 236.322 111.168 236.149 111.712 235.848C112.256 235.547 112.722 235.127 113.076 234.619C113.429 234.112 113.66 233.531 113.75 232.921C113.84 232.311 113.787 231.689 113.595 231.103L113.595 231.103Z" fill="#EFEAE4"/>
<path d="M92.8487 66.2838C87.7735 69.7432 81.7496 71.5844 75.5857 71.56C77.7844 73.0677 80.2876 74.0862 82.9226 74.5452C74.7272 76.2837 66.2573 76.3308 58.0427 74.6834C56.2167 74.3939 54.4548 73.7954 52.8343 72.9143C51.2571 71.9674 49.9376 70.4596 49.6195 68.6622C49.0736 65.5782 51.5035 62.7763 54.0287 60.888C57.8949 58.041 62.3527 56.0795 67.0795 55.1454C71.8063 54.2112 76.6839 54.3279 81.3596 55.4868C84.4126 56.2673 87.4711 57.5859 89.4541 60.0107C91.4371 62.4355 92.0245 66.1737 90.1352 68.6706L92.8487 66.2838Z" fill="#2F2E41"/>
<path d="M93.9843 205.803C92.5636 206.429 91.0212 206.74 89.4659 206.713C87.9106 206.686 86.3801 206.323 84.9823 205.648C83.5844 204.973 82.3533 204.003 81.3755 202.806C80.3977 201.61 79.6971 200.216 79.323 198.722L41.6671 195.32L53.9324 180.137L87.8107 185.696C90.3889 185.241 93.0464 185.737 95.2797 187.09C97.5129 188.443 99.1668 190.559 99.9278 193.038C100.689 195.516 100.504 198.184 99.4086 200.537C98.3132 202.89 96.3832 204.763 93.9843 205.803L93.9843 205.803Z" fill="#A0616A"/>
<path d="M73.1303 178.634L64.618 177.318L56.0309 175.988C55.1061 175.845 54.2223 175.511 53.4376 175.006C52.6529 174.501 51.9851 173.838 51.4779 173.06C50.9708 172.282 50.6358 171.407 50.495 170.492C50.3542 169.576 50.4108 168.642 50.6611 167.75L58.1134 141.197C59.0153 137.92 58.7654 134.437 57.4047 131.319C56.0441 128.201 53.6533 125.632 50.6237 124.032C48.5771 122.952 46.3044 122.359 43.9856 122.299C41.6667 122.239 39.3656 122.714 37.2647 123.686C35.1572 124.643 33.3032 126.071 31.8488 127.857C30.3943 129.643 29.379 131.739 28.883 133.979L19.4835 175.822C18.8504 178.645 18.8412 181.569 19.4567 184.395C20.0722 187.222 21.2979 189.883 23.0498 192.198C24.8017 194.512 27.0385 196.425 29.6072 197.805C32.1758 199.186 35.0157 200.001 37.9325 200.195L70.4454 202.352C71.6343 202.432 72.8102 202.068 73.7406 201.332C74.671 200.596 75.288 199.541 75.4695 198.376C75.4837 198.311 75.4882 198.247 75.4976 198.182L77.1086 183.94L77.1225 183.811C77.2614 182.605 76.9234 181.393 76.1793 180.429C75.4352 179.464 74.3427 178.821 73.1303 178.634Z" fill="#EFEAE4"/>
<path d="M217.17 156.561L215.222 157.612L191.216 170.566L189.267 171.617C188.322 172.129 187.62 172.99 187.316 174.013C187.012 175.036 187.131 176.136 187.646 177.072L205.523 209.475C206.04 210.41 206.911 211.104 207.945 211.404C208.979 211.705 210.091 211.588 211.038 211.078L211.043 211.076L238.936 196.024L238.941 196.022C239.887 195.51 240.588 194.648 240.892 193.626C241.196 192.603 241.078 191.503 240.563 190.567L222.686 158.164C222.169 157.229 221.297 156.535 220.263 156.235C219.229 155.934 218.117 156.051 217.17 156.561Z" fill="#E6E6E6"/>
<path d="M217.731 157.577L215.423 158.822L192.136 171.388L189.828 172.633C189.154 172.998 188.655 173.611 188.438 174.339C188.222 175.067 188.306 175.851 188.673 176.518L206.55 208.92C206.918 209.586 207.539 210.08 208.275 210.295C209.011 210.509 209.803 210.425 210.477 210.062L210.483 210.06L238.376 195.008L238.381 195.006C239.054 194.641 239.554 194.028 239.77 193.3C239.987 192.571 239.902 191.788 239.535 191.121L221.658 158.718C221.29 158.053 220.67 157.558 219.933 157.344C219.197 157.13 218.405 157.214 217.731 157.577Z" fill="white"/>
<path d="M218.386 166.725C218.299 166.569 218.154 166.454 217.982 166.404C217.809 166.354 217.624 166.373 217.466 166.457L216.537 166.96L207.063 172.072C206.906 172.158 206.79 172.302 206.74 172.472C206.689 172.642 206.709 172.825 206.795 172.98C206.881 173.136 207.025 173.251 207.197 173.302C207.369 173.353 207.554 173.334 207.711 173.25L218.115 167.635C218.272 167.549 218.389 167.405 218.44 167.235C218.49 167.064 218.471 166.881 218.386 166.725Z" fill="#E6E6E6"/>
<path d="M221.93 167.385C221.888 167.308 221.83 167.24 221.761 167.185C221.692 167.13 221.613 167.089 221.528 167.065C221.443 167.04 221.354 167.033 221.266 167.043C221.178 167.052 221.092 167.079 221.015 167.122L208.16 174.058C208.082 174.1 208.013 174.157 207.958 174.226C207.902 174.294 207.86 174.373 207.836 174.457C207.811 174.541 207.803 174.629 207.812 174.717C207.822 174.804 207.849 174.889 207.891 174.966C207.934 175.043 207.992 175.11 208.061 175.166C208.13 175.221 208.209 175.262 208.295 175.286C208.38 175.311 208.469 175.319 208.557 175.309C208.646 175.3 208.731 175.273 208.809 175.231L209.407 174.908L213.147 172.89H213.152L221.659 168.295C221.738 168.253 221.808 168.197 221.864 168.128C221.92 168.06 221.962 167.981 221.988 167.896C222.013 167.812 222.021 167.723 222.011 167.635C222.001 167.547 221.973 167.462 221.93 167.385Z" fill="#E6E6E6"/>
<path d="M207.959 178.441L203.878 171.038C203.836 170.964 203.765 170.909 203.682 170.886C203.599 170.862 203.51 170.872 203.435 170.913L201.455 171.98L200.428 172.534L194.913 175.508L193.844 176.085C193.768 176.127 193.713 176.197 193.689 176.279C193.666 176.361 193.676 176.449 193.718 176.524L193.979 177L197.799 183.927C197.84 184.001 197.91 184.055 197.992 184.079C198.074 184.102 198.162 184.092 198.237 184.051L204.821 180.5L205.849 179.946L207.828 178.879C207.866 178.859 207.9 178.832 207.927 178.799C207.954 178.766 207.974 178.728 207.986 178.687C207.999 178.646 208.002 178.603 207.998 178.561C207.993 178.519 207.98 178.478 207.959 178.441Z" fill="#E6E6E6"/>
<path d="M223.546 176.118C223.46 175.962 223.315 175.847 223.144 175.797C222.972 175.747 222.788 175.766 222.63 175.85L208.519 183.465C208.395 183.532 208.295 183.637 208.234 183.764C208.172 183.89 208.153 184.033 208.179 184.171C208.188 184.243 208.212 184.312 208.249 184.375C208.284 184.438 208.33 184.496 208.384 184.545L208.389 184.55C208.493 184.643 208.624 184.702 208.764 184.718C208.903 184.735 209.045 184.708 209.168 184.642L223.279 177.027C223.357 176.985 223.426 176.928 223.482 176.859C223.537 176.791 223.579 176.712 223.604 176.627C223.628 176.543 223.636 176.454 223.626 176.367C223.616 176.279 223.589 176.195 223.546 176.118Z" fill="#E6E6E6"/>
<path d="M227.094 176.778C227.052 176.701 226.994 176.633 226.924 176.578C226.855 176.523 226.775 176.482 226.69 176.458C226.604 176.433 226.515 176.426 226.426 176.436C226.338 176.445 226.252 176.472 226.175 176.515L209.612 185.45C209.488 185.516 209.387 185.618 209.326 185.744C209.265 185.869 209.246 186.011 209.271 186.148V186.152C209.281 186.224 209.305 186.293 209.341 186.356C209.377 186.422 209.425 186.481 209.481 186.531C209.585 186.626 209.716 186.686 209.856 186.703C209.996 186.719 210.138 186.691 210.261 186.623L226.824 177.688C226.981 177.602 227.098 177.459 227.149 177.288C227.199 177.118 227.18 176.934 227.094 176.778Z" fill="#E6E6E6"/>
<path d="M203.793 190.877C205.379 190.877 206.665 189.605 206.665 188.037C206.665 186.468 205.379 185.197 203.793 185.197C202.207 185.197 200.921 186.468 200.921 188.037C200.921 189.605 202.207 190.877 203.793 190.877Z" fill="#E6E6E6"/>
<path d="M225.575 144.092L223.627 145.144L199.62 158.098L197.672 159.149C196.726 159.661 196.025 160.522 195.721 161.545C195.417 162.567 195.535 163.667 196.051 164.604L213.927 197.006C214.445 197.941 215.316 198.635 216.35 198.936C217.384 199.237 218.496 199.119 219.443 198.61L219.448 198.607L247.341 183.556L247.346 183.553C248.291 183.042 248.993 182.18 249.297 181.157C249.601 180.135 249.482 179.035 248.967 178.099L231.09 145.696C230.573 144.761 229.702 144.067 228.668 143.766C227.634 143.466 226.522 143.583 225.575 144.092Z" fill="#CCCCCC"/>
<path d="M226.136 145.108L223.828 146.354L200.541 158.92L198.233 160.165C197.559 160.529 197.06 161.143 196.843 161.871C196.627 162.599 196.711 163.383 197.078 164.049L214.955 196.452C215.323 197.118 215.944 197.612 216.68 197.826C217.416 198.04 218.208 197.957 218.883 197.594L218.888 197.591L246.781 182.54L246.786 182.537C247.459 182.173 247.959 181.559 248.175 180.831C248.392 180.103 248.307 179.32 247.94 178.653L230.064 146.25C229.695 145.584 229.075 145.09 228.339 144.876C227.602 144.662 226.81 144.745 226.136 145.108Z" fill="white"/>
<path d="M226.791 154.256C226.704 154.101 226.559 153.986 226.387 153.935C226.214 153.885 226.029 153.904 225.871 153.989L221.08 156.575L219.745 157.295L215.468 159.604C215.311 159.69 215.195 159.833 215.145 160.003C215.094 160.173 215.114 160.356 215.2 160.512C215.286 160.667 215.43 160.783 215.602 160.834C215.774 160.884 215.959 160.865 216.116 160.782L221.16 158.062L222.215 157.489L226.52 155.166C226.677 155.08 226.794 154.937 226.845 154.766C226.895 154.596 226.876 154.413 226.791 154.256Z" fill="#CCCCCC"/>
<path d="M230.335 154.917C230.293 154.84 230.235 154.772 230.166 154.717C230.097 154.662 230.018 154.621 229.933 154.596C229.848 154.572 229.759 154.564 229.67 154.574C229.582 154.584 229.497 154.611 229.42 154.654L222.738 158.26L221.71 158.814L216.565 161.59C216.487 161.632 216.418 161.689 216.362 161.757C216.307 161.826 216.265 161.904 216.24 161.989C216.216 162.073 216.208 162.161 216.217 162.248C216.227 162.336 216.254 162.42 216.296 162.497C216.339 162.574 216.396 162.642 216.466 162.697C216.535 162.752 216.614 162.793 216.699 162.818C216.785 162.843 216.874 162.85 216.962 162.841C217.05 162.831 217.136 162.805 217.214 162.763L222.359 159.987L223.387 159.433L230.064 155.827C230.143 155.785 230.212 155.728 230.269 155.66C230.325 155.592 230.367 155.513 230.392 155.428C230.418 155.343 230.425 155.254 230.416 155.167C230.406 155.079 230.378 154.994 230.335 154.917Z" fill="#CCCCCC"/>
<path d="M216.364 165.972L213.109 160.07L212.549 159.055L212.283 158.57C212.241 158.495 212.17 158.44 212.087 158.417C212.004 158.394 211.915 158.404 211.84 158.445L205.232 162.01L202.249 163.617C202.173 163.659 202.118 163.729 202.094 163.811C202.071 163.893 202.081 163.981 202.122 164.056L202.389 164.536L202.678 165.067L202.949 165.552V165.557L206.203 171.458C206.245 171.532 206.315 171.587 206.397 171.61C206.479 171.634 206.567 171.624 206.642 171.583L216.233 166.411C216.271 166.391 216.305 166.363 216.332 166.33C216.359 166.297 216.379 166.259 216.391 166.219C216.403 166.178 216.407 166.135 216.403 166.093C216.398 166.05 216.385 166.009 216.364 165.972Z" fill="#FFD115"/>
<path d="M231.95 163.649C231.865 163.494 231.72 163.379 231.549 163.328C231.377 163.278 231.192 163.297 231.035 163.381L226.819 165.658L225.791 166.212L221.72 168.406L216.924 170.996C216.846 171.039 216.777 171.096 216.721 171.164C216.665 171.233 216.623 171.311 216.598 171.396C216.573 171.48 216.565 171.569 216.574 171.656C216.584 171.744 216.611 171.829 216.653 171.906C216.696 171.983 216.754 172.052 216.823 172.107C216.892 172.162 216.972 172.204 217.057 172.228C217.143 172.253 217.232 172.261 217.321 172.252C217.409 172.243 217.495 172.216 217.573 172.174L226.441 167.39L227.468 166.836L231.684 164.559C231.762 164.517 231.831 164.46 231.887 164.391C231.942 164.322 231.984 164.243 232.008 164.159C232.033 164.074 232.041 163.986 232.031 163.898C232.021 163.811 231.993 163.726 231.95 163.649Z" fill="#CCCCCC"/>
<path d="M235.499 164.31C235.456 164.233 235.399 164.165 235.329 164.11C235.26 164.055 235.18 164.014 235.094 163.99C235.009 163.965 234.92 163.958 234.831 163.967C234.743 163.977 234.657 164.004 234.579 164.046L227.916 167.644L226.889 168.198L218.017 172.982C217.939 173.024 217.87 173.081 217.814 173.149C217.758 173.218 217.716 173.296 217.691 173.381C217.665 173.465 217.657 173.554 217.667 173.641C217.676 173.729 217.703 173.814 217.746 173.891C217.789 173.968 217.846 174.036 217.916 174.091C217.985 174.147 218.065 174.188 218.15 174.212C218.236 174.237 218.325 174.244 218.414 174.234C218.502 174.225 218.588 174.198 218.666 174.155L227.533 169.371L228.561 168.817L235.228 165.219C235.386 165.134 235.503 164.99 235.554 164.82C235.604 164.649 235.585 164.466 235.499 164.31Z" fill="#CCCCCC"/>
<path d="M212.198 178.409C213.784 178.409 215.07 177.137 215.07 175.568C215.07 174 213.784 172.728 212.198 172.728C210.612 172.728 209.326 174 209.326 175.568C209.326 177.137 210.612 178.409 212.198 178.409Z" fill="#CCCCCC"/>
<path d="M214.127 191.536C214.611 191.583 215.09 191.668 215.559 191.789L248.129 163.216L246.023 152.965L261.25 147.8L266.761 165.588C267.207 167.025 267.169 168.566 266.653 169.98C266.137 171.394 265.171 172.604 263.901 173.429L222.495 200.314C222.557 202.164 222.047 203.988 221.034 205.545C220.021 207.101 218.553 208.315 216.825 209.026C215.097 209.737 213.192 209.911 211.362 209.525C209.531 209.138 207.864 208.21 206.58 206.864C205.296 205.517 204.457 203.816 204.175 201.986C203.893 200.157 204.181 198.285 205 196.622C205.819 194.958 207.131 193.58 208.762 192.671C210.392 191.763 212.264 191.367 214.127 191.536Z" fill="#FFB8B8"/>
<path d="M270.548 150.359L261.321 132.931C260.371 130.28 258.417 128.098 255.872 126.846C253.326 125.593 250.388 125.367 247.677 126.217C247.574 126.244 247.476 126.277 247.373 126.314C244.627 127.263 242.373 129.252 241.107 131.843C239.841 134.434 239.666 137.417 240.621 140.135L244.324 159.396C244.43 159.948 244.655 160.47 244.984 160.927C245.313 161.385 245.738 161.767 246.229 162.047C246.767 162.358 247.372 162.535 247.994 162.564C248.506 162.596 249.019 162.526 249.503 162.356L251.482 161.673L264.192 157.295L268.348 155.864C268.884 155.678 269.374 155.381 269.783 154.992C270.192 154.603 270.512 154.131 270.721 153.609C270.93 153.087 271.022 152.526 270.992 151.965C270.962 151.404 270.811 150.857 270.548 150.359Z" fill="#FFD115"/>
<path d="M305.379 217.582H0.46694C0.3431 217.582 0.224331 217.533 0.136763 217.447C0.0491949 217.36 0 217.242 0 217.12C0 216.998 0.0491949 216.88 0.136763 216.793C0.224331 216.707 0.3431 216.658 0.46694 216.658H305.379C305.502 216.658 305.621 216.707 305.709 216.793C305.796 216.88 305.845 216.998 305.845 217.12C305.845 217.242 305.796 217.36 305.709 217.447C305.621 217.533 305.502 217.582 305.379 217.582Z" fill="#3F3D56"/>
<path d="M52.9957 209.039V209.27C52.9973 210.835 53.4584 212.367 54.3229 213.678C55.1874 214.99 56.4182 216.025 57.866 216.658C58.9045 217.117 60.0296 217.354 61.1672 217.351H136.578V209.039H52.9957Z" fill="#5B5771"/>
<path d="M189.23 154.256C188.033 151.813 186.191 149.736 183.898 148.244C182.858 147.563 181.737 147.014 180.559 146.609C178.955 146.055 177.267 145.773 175.568 145.773H103.192C99.1686 145.778 95.3113 147.361 92.4663 150.174C89.6214 152.988 88.021 156.803 88.0164 160.782V202.343C88.0151 202.926 88.0494 203.509 88.1192 204.088C88.2217 204.955 88.3998 205.811 88.6514 206.647C88.9009 207.47 89.2228 208.271 89.6133 209.039C90.8703 211.537 92.8072 213.638 95.2061 215.107C97.605 216.575 100.371 217.352 103.192 217.351H175.568C177.561 217.352 179.534 216.964 181.376 216.21C183.217 215.456 184.891 214.351 186.3 212.957C187.709 211.563 188.827 209.908 189.589 208.087C190.352 206.266 190.744 204.314 190.743 202.343V160.782C190.746 158.521 190.229 156.29 189.23 154.256Z" fill="#5B5771"/>
<path d="M143.349 185.257C145.412 185.257 147.084 183.603 147.084 181.562C147.084 179.522 145.412 177.868 143.349 177.868C141.286 177.868 139.613 179.522 139.613 181.562C139.613 183.603 141.286 185.257 143.349 185.257Z" fill="white"/>
</g>
<defs>
<clipPath id="clip0">
<rect width="334" height="279" fill="white"/>
</clipPath>
</defs>
</svg>
