<svg width="330" height="279" viewBox="0 0 330 279" fill="none" xmlns="http://www.w3.org/2000/svg">
<g clip-path="url(#clip0)">
<path d="M201.472 84.5647C156.782 -52.1559 95.5254 -24.6457 86.3336 178.414C83.9151 231.843 134.979 276.57 197.461 278.213C259.942 279.856 311.491 237.838 312.599 184.363C313.706 130.889 218.368 136.255 201.472 84.5647Z" fill="#FFD115"/>
<path d="M268.125 95.9118H105.259V171.23H268.125V95.9118Z" fill="#EFEAE4"/>
<path opacity="0.4" d="M291.727 220.165C296.032 220.165 299.522 216.233 299.522 211.383C299.522 206.533 296.032 202.601 291.727 202.601C287.422 202.601 283.932 206.533 283.932 211.383C283.932 216.233 287.422 220.165 291.727 220.165Z" fill="#6C63FF"/>
<path d="M268.866 278.847L268.155 278.831C268.43 269.922 269.273 261.047 270.679 252.274C273.755 233.493 278.868 221.158 285.879 215.612L286.287 216.268C269.911 229.222 268.874 278.352 268.866 278.847Z" fill="#3F3D56"/>
<path d="M277.756 278.655L277.045 278.639C277.06 277.752 277.504 256.839 284.812 251.059L285.22 251.715C278.208 257.262 277.759 278.442 277.756 278.655Z" fill="#3F3D56"/>
<path d="M290.333 216.341C292.297 216.341 293.889 214.547 293.889 212.334C293.889 210.122 292.297 208.328 290.333 208.328C288.369 208.328 286.777 210.122 286.777 212.334C286.777 214.547 288.369 216.341 290.333 216.341Z" fill="#5B5771"/>
<path d="M288.572 250.795C290.536 250.795 292.128 249.001 292.128 246.788C292.128 244.576 290.536 242.782 288.572 242.782C286.608 242.782 285.016 244.576 285.016 246.788C285.016 249.001 286.608 250.795 288.572 250.795Z" fill="#5B5771"/>
<path d="M276.098 218.742C276.767 223.551 275.025 227.853 275.025 227.853C275.025 227.853 272.199 224.357 271.531 219.548C270.863 214.739 272.605 210.437 272.605 210.437C272.605 210.437 275.43 213.933 276.098 218.742Z" fill="#5B5771"/>
<path d="M287.711 230.385C283.624 231.965 279.566 230.8 279.566 230.8C279.566 230.8 282.135 227.074 286.222 225.495C290.309 223.915 294.366 225.08 294.366 225.08C294.366 225.08 291.798 228.806 287.711 230.385Z" fill="#3F3D56"/>
<path d="M287.853 260.935C286.004 261.589 284.034 261.685 282.141 261.212C283.343 259.488 284.961 258.193 286.802 257.482C288.642 256.77 290.626 256.674 292.514 257.204C291.277 258.886 289.67 260.172 287.853 260.935Z" fill="#3F3D56"/>
<path d="M283.772 278.199H0V279H283.772V278.199Z" fill="#3F3D56"/>
<path d="M312.575 171.631H104.903V80.2871H312.575V171.631ZM105.614 170.83H311.864V81.0884H105.614V170.83Z" fill="#3F3D56"/>
<path d="M244.3 131.069C244.3 161.242 228.38 171.777 208.739 171.777C208.284 171.777 207.829 171.77 207.378 171.759C206.468 171.736 205.564 171.688 204.674 171.618C186.948 170.206 173.179 159.129 173.179 131.069C173.179 102.034 206.111 65.3933 208.592 62.6757C208.592 62.6752 208.592 62.6747 208.592 62.6743C208.592 62.6738 208.593 62.6734 208.593 62.673C208.593 62.6727 208.593 62.6724 208.594 62.6722C208.594 62.6721 208.595 62.672 208.595 62.672C208.69 62.5651 208.739 62.5134 208.739 62.5134C208.739 62.5134 244.3 100.899 244.3 131.069Z" fill="#5B5771"/>
<path d="M207.443 167.16L220.45 146.688L207.41 169.41L207.378 171.758C206.468 171.736 205.564 171.688 204.674 171.618L206.075 141.434L206.065 141.198L206.088 141.157L206.222 138.303L193.15 115.526L206.262 136.165L206.294 136.769L207.351 113.963L196.161 90.4266L207.489 109.962L208.592 62.6756L208.595 62.5134V62.6719L208.412 99.9584L219.553 85.1758L208.366 103.17L208.072 123.591L218.476 103.992L208.029 126.596L207.865 137.949L222.963 110.67L207.806 141.909L207.443 167.16Z" fill="#3F3D56"/>
<path d="M145.086 61.0569C144.172 61.0569 143.278 60.7514 142.518 60.1792C141.758 59.6069 141.165 58.7935 140.815 57.8418C140.465 56.8901 140.374 55.8429 140.552 54.8326C140.731 53.8223 141.171 52.8943 141.817 52.1659C142.464 51.4376 143.288 50.9415 144.184 50.7406C145.081 50.5396 146.011 50.6428 146.855 51.037C147.7 51.4312 148.422 52.0987 148.93 52.9552C149.438 53.8117 149.709 54.8186 149.709 55.8487C149.708 57.2295 149.22 58.5534 148.354 59.5298C147.487 60.5062 146.312 61.0554 145.086 61.0569ZM145.086 51.4418C144.313 51.4418 143.556 51.7002 142.913 52.1845C142.27 52.6687 141.768 53.357 141.472 54.1622C141.176 54.9675 141.099 55.8536 141.25 56.7085C141.401 57.5633 141.773 58.3486 142.32 58.9649C142.867 59.5812 143.564 60.0009 144.323 60.171C145.082 60.341 145.868 60.2537 146.583 59.9202C147.298 59.5866 147.909 59.0218 148.339 58.2971C148.768 57.5723 148.998 56.7203 148.998 55.8487C148.997 54.6803 148.584 53.5602 147.851 52.734C147.118 51.9078 146.123 51.4431 145.086 51.4418Z" fill="#3F3D56"/>
<path d="M233.987 196.47C235.558 196.47 236.832 195.035 236.832 193.265C236.832 191.495 235.558 190.06 233.987 190.06C232.416 190.06 231.142 191.495 231.142 193.265C231.142 195.035 232.416 196.47 233.987 196.47Z" fill="#3F3D56"/>
<path d="M34.4935 102.322C36.0647 102.322 37.3383 100.887 37.3383 99.1168C37.3383 97.3467 36.0647 95.9118 34.4935 95.9118C32.9224 95.9118 31.6487 97.3467 31.6487 99.1168C31.6487 100.887 32.9224 102.322 34.4935 102.322Z" fill="#3F3D56"/>
<path d="M185.269 207.688H176.024V197.271H185.269V207.688ZM176.735 206.886H184.558V198.073H176.735V206.886Z" fill="#3F3D56"/>
<path d="M312.22 100.719C322.04 100.719 330 91.7509 330 80.6878C330 69.6247 322.04 60.6563 312.22 60.6563C302.4 60.6563 294.44 69.6247 294.44 80.6878C294.44 91.7509 302.4 100.719 312.22 100.719Z" fill="#5B5771"/>
<path d="M309.153 89.6519L301.505 81.0356L303.65 78.6185L309.16 84.8263L320.79 71.7237L322.935 74.1407L309.153 89.6519Z" fill="white"/>
<path d="M48.0065 212.896C42.2393 212.896 36.6017 214.823 31.8064 218.432C27.0111 222.042 23.2737 227.173 21.0667 233.176C18.8597 239.179 18.2822 245.784 19.4074 252.157C20.5325 258.529 23.3096 264.383 27.3877 268.977C31.4657 273.572 36.6614 276.701 42.3178 277.968C47.9742 279.236 53.8372 278.585 59.1654 276.099C64.4936 273.612 69.0477 269.401 72.2518 263.999C75.4559 258.597 77.166 252.245 77.166 245.748C77.166 237.035 74.0939 228.679 68.6254 222.518C63.1569 216.357 55.7401 212.896 48.0065 212.896ZM49.7846 248.552C48.6593 248.552 47.5592 248.176 46.6236 247.472C45.6879 246.767 44.9586 245.766 44.528 244.595C44.0974 243.424 43.9847 242.135 44.2042 240.891C44.4238 239.648 44.9656 238.506 45.7614 237.609C46.5571 236.713 47.5709 236.102 48.6746 235.855C49.7782 235.608 50.9222 235.735 51.9619 236.22C53.0015 236.705 53.8902 237.527 54.5153 238.581C55.1405 239.635 55.4742 240.874 55.4742 242.142C55.4742 243.842 54.8748 245.472 53.8078 246.675C52.7407 247.877 51.2936 248.552 49.7846 248.552Z" fill="#EFEAE4"/>
<path d="M78.9196 189.577C78.2764 190.366 66.443 203.05 66.443 203.05C66.443 203.05 67.6189 211.903 80.2799 213.002L101.382 214.833C101.382 214.833 105.37 231.323 110.112 236.593C114.855 241.863 112.678 242.157 114.458 244.726C116.238 247.294 113.74 247.983 116.441 248.232C119.143 248.482 124.725 244.802 124.785 241.955C124.846 239.109 123.27 237.478 122.57 236.754C121.869 236.029 120.093 229.1 119.028 227.635C117.963 226.17 113.932 208.544 113.932 208.544C113.932 208.544 109.908 200.017 104.329 199.337C98.7511 198.656 92.5448 195.6 92.5448 195.6" fill="#2F2E41"/>
<path opacity="0.1" d="M78.9196 189.577C78.2764 190.366 66.443 203.05 66.443 203.05C66.443 203.05 67.6189 211.903 80.2799 213.002L101.382 214.833C101.382 214.833 105.37 231.323 110.112 236.593C114.855 241.863 112.678 242.157 114.458 244.726C116.238 247.294 113.74 247.983 116.441 248.232C119.143 248.482 124.725 244.802 124.785 241.955C124.846 239.109 123.27 237.478 122.57 236.754C121.869 236.029 120.093 229.1 119.028 227.635C117.963 226.17 113.932 208.544 113.932 208.544C113.932 208.544 109.908 200.017 104.329 199.337C98.7511 198.656 92.5448 195.6 92.5448 195.6" fill="black"/>
<path d="M99.3884 138.429C99.3884 138.429 103.829 124.834 106.869 129.166C109.908 133.497 101.978 140.61 101.978 140.61L99.3884 138.429Z" fill="#A0616A"/>
<path d="M75.9954 145.525L78.5238 144.32C78.5238 144.32 83.1141 149.746 84.9371 150.756C86.76 151.765 91.74 154.209 92.402 154.61C93.064 155.012 100.56 140.071 98.767 137.926C98.767 137.926 102.122 139.289 103.65 138.772C103.65 138.772 99.8365 159.6 99.2563 162.423C98.676 165.245 97.3216 165.578 94.7961 165.681C92.2705 165.785 76.9335 160.715 76.9335 160.715L75.9954 145.525Z" fill="#5B5771"/>
<path d="M115.007 246.448C115.007 246.448 115.789 249.273 115.44 249.725C115.092 250.178 114.073 257.902 118.261 257.396C122.45 256.89 124.465 255.37 125.525 255.455C126.586 255.54 142.324 249.353 141.543 246.529C140.761 243.704 132.892 246.798 132.892 246.798C132.892 246.798 123.953 244.882 121.854 242.673C119.754 240.463 115.007 246.448 115.007 246.448Z" fill="#2F2E41"/>
<path opacity="0.1" d="M115.007 246.448C115.007 246.448 115.789 249.273 115.44 249.725C115.092 250.178 114.073 257.902 118.261 257.396C122.45 256.89 124.465 255.37 125.525 255.455C126.586 255.54 142.324 249.353 141.543 246.529C140.761 243.704 132.892 246.798 132.892 246.798C132.892 246.798 123.953 244.882 121.854 242.673C119.754 240.463 115.007 246.448 115.007 246.448Z" fill="black"/>
<path d="M106.983 250.604C106.983 250.604 109.51 263.006 111.363 262.88C113.216 262.754 126.301 255.58 127.911 254.159C129.978 252.334 129.896 249.11 127.523 249.787C125.151 250.465 118.44 249.857 117.299 248.492L114.366 244.982L106.983 250.604Z" fill="#2F2E41"/>
<path d="M81.08 181.699C80.3876 182.434 59.3295 202.56 59.3295 202.56C59.3295 202.56 61.0532 215.571 73.6099 217.703C86.1665 219.836 93.4154 217.173 93.4154 217.173C93.4154 217.173 96.3293 233.946 100.719 239.591C105.109 245.235 102.919 245.35 104.528 248.057C106.138 250.765 103.602 251.247 106.28 251.717C108.959 252.187 114.763 248.974 115.007 246.14C115.251 243.306 113.785 241.551 113.133 240.771C112.481 239.991 111.157 232.935 110.189 231.386C109.222 229.838 106.338 211.928 106.338 211.928C106.338 211.928 102.875 203.094 97.3552 201.959C91.8356 200.824 85.8429 197.267 85.8429 197.267" fill="#2F2E41"/>
<path d="M61.696 138.098C67.2106 138.098 71.6811 133.061 71.6811 126.848C71.6811 120.635 67.2106 115.599 61.696 115.599C56.1814 115.599 51.7109 120.635 51.7109 126.848C51.7109 133.061 56.1814 138.098 61.696 138.098Z" fill="#A0616A"/>
<path d="M56.4622 133.87C56.4622 133.87 57.9598 140.743 55.6789 144.265C53.398 147.788 70.9342 146.111 70.9342 146.111C70.9342 146.111 66.1877 134.959 67.939 132.366C69.6904 129.773 56.4622 133.87 56.4622 133.87Z" fill="#A0616A"/>
<path d="M78.8773 144.676C80.9957 147.211 80.2739 161.587 80.2739 161.587L78.9205 174.426C78.9205 174.426 80.5399 176.754 80.0104 177.684C79.481 178.613 78.6154 179.531 80.2856 179.967C81.9557 180.403 85.8052 181.102 84.5732 183.145C84.1707 183.723 83.7398 184.276 83.2825 184.8C82.8899 185.268 82.4229 185.811 81.8937 186.417C80.6551 187.826 79.0798 189.559 77.3321 191.387C76.8371 191.908 76.3297 192.434 75.8098 192.965C69.1424 199.76 60.8515 206.953 59.1361 203.501C56.2638 197.718 54.2677 196.893 54.3997 191.971C54.5317 187.049 50.834 174.417 50.834 174.417C50.834 174.417 46.5347 152.86 52.5934 146.434L53.5407 144.727C53.9804 143.933 54.6306 143.315 55.3992 142.961C56.1679 142.607 57.016 142.534 57.8234 142.752C60.7806 143.548 65.314 144.648 67.2781 144.47C70.3128 144.195 69.6475 142.789 69.6475 142.789C69.6475 142.789 76.7589 142.14 78.8773 144.676Z" fill="#5B5771"/>
<path d="M88.2401 190.659C88.2401 190.659 100.593 194.111 98.7809 198.976C96.9686 203.841 86.275 194.95 86.275 194.95L88.2401 190.659Z" fill="#A0616A"/>
<path d="M56.1699 130.964C56.4158 130.628 56.1726 130.138 55.9586 129.776C54.8122 127.836 54.5933 125.076 55.8545 123.229C56.3517 122.541 56.9735 121.981 57.6783 121.585C58.6677 120.994 59.7478 120.621 60.861 120.485C61.4533 120.475 62.0392 120.345 62.5905 120.101C62.9387 119.902 64.5819 119.253 64.9345 119.065C65.7099 118.649 66.7887 118.829 67.2855 118.04C67.7607 117.285 67.3169 116.251 66.8552 115.486C65.8033 113.742 63.1432 112.297 61.3165 111.84C59.9303 111.492 58.4837 111.981 57.1991 112.663C55.7182 113.49 54.3134 114.48 53.005 115.619C51.208 117.119 49.4377 118.781 48.3585 120.988C47.2792 123.194 47.0192 126.069 48.2384 128.181C48.4924 128.621 48.8029 129.018 49.0407 129.469C49.6208 130.571 49.7255 131.902 50.1354 133.096C50.4405 133.969 50.9045 134.76 51.4975 135.418C52.0906 136.077 52.7995 136.588 53.5787 136.918C54.8275 137.439 56.3634 137.582 57.1011 138.831L57.4454 136.228C57.5352 135.899 57.5223 135.546 57.4089 135.227C57.2955 134.908 57.0885 134.643 56.8224 134.475L55.0536 132.797C54.7011 132.527 54.4335 132.138 54.2889 131.686C53.9063 129.888 55.76 131.524 56.1699 130.964Z" fill="#2F2E41"/>
<path opacity="0.1" d="M73.88 180.507L81.8936 186.417C80.3045 188.227 78.1579 190.57 75.8097 192.965C73.5855 191.616 71.3171 190.155 69.2878 188.688C61.8635 183.319 55.4976 169.839 52.6456 163.299C49.7937 156.76 52.1151 151.723 52.1151 151.723C54.0044 150.78 56.0036 150.146 58.052 149.841C61.769 149.209 73.88 180.507 73.88 180.507Z" fill="black"/>
<path opacity="0.1" d="M74.9392 178.648L83.2827 184.8C82.89 185.268 82.4231 185.811 81.8938 186.417C80.6552 187.826 79.08 189.559 77.3323 191.387C74.9622 189.961 72.5166 188.398 70.3471 186.829C62.9227 181.46 56.5568 167.98 53.7048 161.441C50.8529 154.901 58.5265 157.247 58.5265 157.247C58.5265 157.247 54.5445 155.216 58.2615 154.585C61.9784 153.954 74.9392 178.648 74.9392 178.648Z" fill="black"/>
<path d="M52.4817 150.599C52.4817 150.599 50.1602 155.636 53.0122 162.175C55.8642 168.714 62.2301 182.195 69.6544 187.563C77.0788 192.932 87.7008 198.22 87.7008 198.22C87.7008 198.22 88.7084 192.001 90.409 191.301L74.2466 179.382C74.2466 179.382 62.1356 148.085 58.4186 148.716C56.3701 149.022 54.3709 149.656 52.4817 150.599Z" fill="#5B5771"/>
<path d="M49.7844 279C43.3139 279 36.9887 276.838 31.6086 272.788C26.2286 268.738 22.0353 262.982 19.5592 256.247C17.083 249.512 16.4351 242.101 17.6975 234.951C18.9598 227.802 22.0757 221.234 26.651 216.079C31.2264 210.925 37.0557 207.414 43.4019 205.992C49.7481 204.57 56.3261 205.3 62.3041 208.09C68.282 210.879 73.3915 215.603 76.9863 221.665C80.5812 227.726 82.4999 234.852 82.4999 242.142C82.4901 251.914 79.0401 261.282 72.9069 268.192C66.7737 275.102 58.4581 278.989 49.7844 279ZM49.7844 206.085C43.4545 206.085 37.2668 208.2 32.0037 212.162C26.7407 216.124 22.6386 221.755 20.2163 228.344C17.7939 234.932 17.1601 242.182 18.395 249.176C19.6299 256.171 22.678 262.595 27.1539 267.638C31.6298 272.68 37.3324 276.115 43.5406 277.506C49.7489 278.897 56.1839 278.183 62.0319 275.454C67.8799 272.725 72.8783 268.103 76.395 262.174C79.9117 256.244 81.7887 249.273 81.7887 242.142C81.7791 232.582 78.4041 223.417 72.4042 216.658C66.4043 209.898 58.2695 206.096 49.7844 206.085Z" fill="#3F3D56"/>
<path d="M49.7845 248.953C48.5889 248.953 47.4201 248.553 46.4259 247.805C45.4318 247.056 44.657 245.993 44.1994 244.748C43.7419 243.504 43.6222 242.134 43.8554 240.813C44.0887 239.492 44.6644 238.279 45.5099 237.326C46.3553 236.374 47.4325 235.725 48.6051 235.462C49.7778 235.199 50.9933 235.334 52.0979 235.85C53.2026 236.365 54.1467 237.238 54.811 238.358C55.4752 239.478 55.8298 240.795 55.8298 242.142C55.828 243.948 55.1905 245.679 54.0572 246.956C52.9239 248.232 51.3873 248.951 49.7845 248.953ZM49.7845 236.132C48.7295 236.132 47.6983 236.485 46.8211 237.145C45.9439 237.806 45.2602 238.744 44.8565 239.842C44.4528 240.94 44.3471 242.149 44.553 243.314C44.7588 244.48 45.2668 245.551 46.0128 246.391C46.7588 247.232 47.7092 247.804 48.7439 248.036C49.7786 248.268 50.8511 248.149 51.8258 247.694C52.8004 247.239 53.6335 246.469 54.2196 245.481C54.8057 244.492 55.1186 243.331 55.1186 242.142C55.117 240.549 54.5545 239.021 53.5545 237.895C52.5545 236.768 51.1987 236.134 49.7845 236.132Z" fill="#3F3D56"/>
<path d="M49.0732 205.685H48.362V164.42H29.8706V163.618H49.0732V205.685Z" fill="#3F3D56"/>
<path d="M91.3901 218.905H75.5531V219.707H91.3901V218.905Z" fill="#3F3D56"/>
<path d="M84.278 191.262H48.0065V192.063H84.278V191.262Z" fill="#3F3D56"/>
<path d="M110.06 266.308L91.0665 219.473L91.7137 219.139L110.414 265.251L127.516 256.6L127.807 257.331L110.06 266.308Z" fill="#3F3D56"/>
<path d="M31.6488 165.621C37.1478 165.621 41.6057 164.904 41.6057 164.019C41.6057 163.134 37.1478 162.416 31.6488 162.416C26.1497 162.416 21.6919 163.134 21.6919 164.019C21.6919 164.904 26.1497 165.621 31.6488 165.621Z" fill="#3F3D56"/>
</g>
<defs>
<clipPath id="clip0">
<rect width="330" height="279" fill="white"/>
</clipPath>
</defs>
</svg>
