<svg width="329" height="282" viewBox="0 0 329 282" fill="none" xmlns="http://www.w3.org/2000/svg">
<g clip-path="url(#clip0)">
<path d="M324.814 81.3449C324.757 81.6478 324.703 81.9507 324.64 82.2502C322.663 92.5455 319.432 102.466 314.629 111.577C314.469 111.88 314.31 112.183 314.147 112.486C310.979 118.348 307.19 123.751 302.862 128.574C300.469 131.242 297.859 133.778 294.755 135.606C290.407 138.172 285.323 139.213 280.327 140.064C275.138 140.952 269.877 141.694 264.63 142.494C262.766 142.773 260.913 143.069 259.07 143.382C254.002 144.23 248.969 145.21 244.058 146.51C237.986 148.113 232.1 150.213 226.541 153.167C226.097 153.394 225.658 153.635 225.224 153.889C224.79 154.134 224.353 154.382 223.925 154.634C223.497 154.886 223.075 155.138 222.656 155.396C222.439 155.529 222.222 155.662 222.008 155.801C221.794 155.941 221.583 156.063 221.375 156.2C220.749 156.594 220.134 156.999 219.519 157.408L219.495 157.425C219.088 157.694 218.688 157.969 218.29 158.245C216.018 159.804 213.794 161.431 211.57 163.068L210.172 164.089L208.005 165.671C207.583 165.981 207.152 166.291 206.727 166.597C206.426 166.822 206.125 167.046 205.796 167.278C204.217 168.401 202.617 169.504 200.975 170.555C200.586 170.807 200.194 171.059 199.799 171.304C196.481 173.395 193.011 175.162 189.427 176.586L189.379 176.606C187.576 177.317 185.736 177.903 183.87 178.363C182.795 178.628 181.716 178.846 180.625 179.013C177.709 179.48 174.752 179.526 171.826 179.152C166.079 178.4 160.694 175.909 154.951 175.068C143.126 173.366 131.642 178.849 120.522 183.144C117.788 184.199 115.034 185.188 112.259 186.109C110.415 186.725 108.565 187.307 106.7 187.868C95.2713 191.279 83.6078 193.589 71.8342 194.774C66.9125 195.319 61.9614 195.443 57.0232 195.145C55.1458 195.016 53.2895 194.804 51.4664 194.464C45.2286 193.375 39.4127 191.091 34.7178 186.909C30.8726 183.475 28.1214 178.999 26.0271 174.316C23.8832 169.537 22.3695 164.43 21.534 159.157C21.4195 158.439 21.3171 157.717 21.2327 156.996C21.082 155.762 20.9695 154.521 20.8952 153.273C20.4897 146.621 21.193 139.943 22.9684 133.584C24.9573 126.464 28.2721 119.63 29.7306 112.456C29.7908 112.151 29.8481 111.849 29.9023 111.547C30.1015 110.457 30.2494 109.356 30.3453 108.249C31.0896 99.4341 28.2359 90.8404 25.9969 82.2196C25.9186 81.9201 25.8402 81.6172 25.7649 81.3143C25.5238 80.3568 25.2928 79.4004 25.0718 78.4452C22.9986 69.3309 22.423 59.5733 24.2702 50.476C24.3275 50.1731 24.3968 49.8702 24.4631 49.5707C25.6997 43.8201 28.0253 38.4406 31.2795 33.8026C34.7389 28.9017 39.2801 24.821 44.1317 21.2372C46.4963 19.4902 48.9412 17.8577 51.4664 16.3397C53.2745 15.2506 55.1267 14.2194 57.0232 13.246C72.2259 5.41818 89.5682 1.59615 106.718 2.4402C107.622 2.48444 108.526 2.5389 109.43 2.61377C110.334 2.68865 111.322 2.77714 112.268 2.87583C123.316 4.08745 134.064 7.01098 144.738 10.2068C148.315 11.2789 151.886 12.3782 155.454 13.457C157.042 13.9335 158.627 14.41 160.215 14.8729C167.993 17.1429 175.885 19.1986 183.876 20.7335C185.727 21.0943 187.579 21.4233 189.433 21.7205C195.871 22.7892 202.361 23.4109 208.867 23.5822C211.396 23.6389 213.926 23.614 216.458 23.5073C217.735 23.4551 219.014 23.3769 220.294 23.2725C233.508 22.2208 246.278 18.7017 259.07 15.414C260.921 14.9375 262.774 14.4679 264.63 14.005C267.065 13.3992 269.5 12.8138 271.947 12.2727C287.174 8.89307 300.746 10.8364 314.903 17.81C318.122 19.3926 321.337 21.3053 323.308 24.2765C325.278 27.2477 325.773 30.8961 326.14 34.4187C326.662 39.4353 327.002 44.5166 327.132 49.6251C327.132 49.9246 327.132 50.2275 327.15 50.5304C327.355 60.8496 326.674 71.2674 324.814 81.3449Z" fill="#FFD115"/>
<path opacity="0.1" d="M223.81 111.578H222.816V111.979V112.486H223.943L223.81 111.578ZM212.531 111.578C212.53 111.585 212.53 111.593 212.531 111.601C212.504 111.85 212.474 112.098 212.444 112.35V112.418V112.486H221.062V112.432L221.665 111.578H212.531ZM189.433 111.578V82.2503H199.347C199.242 82.172 199.133 82.0903 199.022 82.0155L198.877 81.91L198.69 81.7806C198.582 81.7092 198.473 81.6377 198.359 81.5696C198.244 81.5016 198.175 81.4539 198.079 81.396L198.012 81.3552H197.997H189.433V79.7386L189.201 79.8407L188.957 79.97H188.939L188.888 80.0006L188.734 80.0925L188.58 80.1844C188.43 80.2763 188.279 80.3784 188.128 80.4839L187.984 80.5928L187.682 80.8107C187.294 81.1033 186.911 81.4097 186.516 81.6955C186.417 81.767 186.317 81.8385 186.215 81.9032C186.001 82.0461 185.781 82.1822 185.555 82.3048C185.458 82.3592 185.365 82.4069 185.253 82.4511L185.091 82.5226L184.94 82.5804C184.587 82.7194 184.224 82.8264 183.855 82.9004V111.571H168.99C168.99 111.605 169.011 111.632 169.02 111.666C169.102 111.938 169.183 112.207 169.261 112.479H183.876V143.913C183.953 143.913 184.028 143.913 184.102 143.913L184.365 143.93L184.838 143.961L185.594 144.063L185.941 144.101L186.317 144.145H186.375L187.04 144.237L187.182 144.257L187.505 144.308L187.966 144.383L189.072 144.329L189.222 144.359C189.282 144.359 189.346 144.38 189.409 144.393V112.486H212.414V112.418V112.35C212.444 112.098 212.474 111.85 212.501 111.601C212.499 111.593 212.499 111.585 212.501 111.578H189.433ZM223.81 111.578H222.816V111.979V112.486H223.943L223.81 111.578ZM211.91 111.578C211.874 111.88 211.841 112.183 211.805 112.486H221.415L222.069 111.578H211.91ZM189.433 111.578V82.2503H199.347C199.242 82.172 199.133 82.0903 199.022 82.0155L198.877 81.91L198.69 81.7806C198.582 81.7092 198.473 81.6377 198.359 81.5696C198.244 81.5016 198.175 81.4539 198.079 81.396L198.012 81.3552H197.991H189.433V79.7386L189.201 79.8407L188.957 79.97H188.939L188.888 80.0006L188.734 80.0925L188.58 80.1844C188.43 80.2763 188.279 80.3784 188.128 80.4839L187.984 80.5928L187.682 80.8107C187.294 81.1033 186.911 81.4097 186.516 81.6955C186.417 81.767 186.317 81.8385 186.215 81.9032C186.001 82.0461 185.781 82.1822 185.555 82.3048C185.458 82.3592 185.365 82.4069 185.253 82.4511L185.091 82.5226L184.94 82.5804C184.587 82.7194 184.224 82.8264 183.855 82.9004V111.571H168.99C168.99 111.605 169.011 111.632 169.02 111.666C169.102 111.935 169.186 112.207 169.264 112.479H183.876V143.91H184.102L184.365 143.927L184.838 143.958L185.594 144.063L185.941 144.101L186.317 144.145H186.375L187.04 144.237L187.182 144.257L187.505 144.308L187.966 144.383L189.072 144.329L189.222 144.359C189.282 144.359 189.346 144.38 189.409 144.393V112.486H211.811C211.847 112.183 211.88 111.88 211.916 111.578H189.433ZM264.63 50.5067H327.15C327.15 50.2038 327.15 49.9009 327.132 49.6014H264.63V13.9948C262.774 14.4486 260.921 14.9183 259.07 15.4039V49.6014H191.075L190.904 49.4278L191.163 49.1691L216.455 23.5006C213.923 23.6095 211.393 23.6344 208.864 23.5755L189.43 43.2948V21.7206C187.574 21.4234 185.722 21.0944 183.873 20.7336V42.301L155.46 13.4571C151.892 12.3782 148.321 11.2789 144.744 10.2068L183.385 49.4278L183.213 49.6014H112.277V2.90652C111.331 2.80669 110.385 2.71933 109.439 2.64446C108.535 2.56958 107.631 2.51513 106.727 2.47089V49.6014H57.0231V13.2767C55.1468 14.2478 53.2945 15.2791 51.4664 16.3704V49.6014H24.4631C24.3968 49.9009 24.3275 50.2038 24.2702 50.5067H51.4664V81.345H25.7649C25.8402 81.6479 25.9186 81.9508 25.9969 82.2503H51.4664V111.578H29.9023C29.8481 111.879 29.7908 112.182 29.7305 112.486H51.4664V194.485C53.2744 194.801 55.1458 195.022 57.0231 195.165V112.486H106.718V187.882C108.583 187.32 110.433 186.738 112.277 186.122V112.486H183.876V178.359C185.742 177.9 187.582 177.314 189.385 176.603L189.433 176.583V112.486H259.07V143.382C260.919 143.076 262.772 142.782 264.63 142.501V112.486H314.147C314.31 112.183 314.469 111.88 314.629 111.578H264.63V82.2503H324.64C324.703 81.9508 324.757 81.6479 324.814 81.345H264.63V50.5067ZM57.0231 50.5067H106.718V81.345H57.0231V50.5067ZM57.0231 111.578V82.2503H106.718V111.578H57.0231ZM112.277 50.5067H183.876V81.345H112.277V50.5067ZM112.277 111.578V82.2503H183.876V111.578H112.277ZM259.07 111.578H189.433V82.2503H259.07V111.578ZM259.07 81.345H189.433V51.3337L190.409 50.5067H259.07V81.345ZM212.531 111.578C212.53 111.585 212.53 111.593 212.531 111.601C212.504 111.85 212.474 112.098 212.444 112.35V112.418V112.486H221.062V112.432L221.665 111.578H212.531ZM223.81 111.578H222.816V111.979V112.486H223.943L223.81 111.578ZM189.433 111.578V82.2503H199.347C199.242 82.172 199.133 82.0903 199.022 82.0155L198.877 81.91L198.69 81.7806C198.582 81.7092 198.473 81.6377 198.359 81.5696C198.244 81.5016 198.175 81.4539 198.079 81.396L198.012 81.3552H197.997H189.433V79.7386L189.201 79.8407L188.957 79.97H188.939L188.888 80.0006L188.734 80.0925L188.58 80.1844C188.43 80.2763 188.279 80.3784 188.128 80.4839L187.984 80.5928L187.682 80.8107C187.294 81.1033 186.911 81.4097 186.516 81.6955C186.417 81.767 186.317 81.8385 186.215 81.9032C186.001 82.0461 185.781 82.1822 185.555 82.3048C185.458 82.3592 185.365 82.4069 185.253 82.4511L185.091 82.5226L184.94 82.5804C184.587 82.7194 184.224 82.8264 183.855 82.9004V111.571H168.99C168.99 111.605 169.011 111.632 169.02 111.666C169.102 111.938 169.183 112.207 169.261 112.479H183.876V143.913C183.953 143.913 184.028 143.913 184.102 143.913L184.365 143.93L184.838 143.961L185.594 144.063L185.941 144.101L186.317 144.145H186.375L187.04 144.237L187.182 144.257L187.505 144.308L187.966 144.383L189.072 144.329L189.222 144.359C189.282 144.359 189.346 144.38 189.409 144.393V112.486H212.414V112.418V112.35C212.444 112.098 212.474 111.85 212.501 111.601C212.499 111.593 212.499 111.585 212.501 111.578H189.433Z" fill="#6C63FF"/>
<path opacity="0.1" d="M80.9167 29.2762H81.3476C81.2056 29.2083 81.082 29.0992 80.9893 28.9599C80.8967 28.8206 80.8384 28.6562 80.8203 28.4832C80.8203 27.8569 81.6489 27.3464 82.6615 27.3464H95.5469C96.5594 27.3464 97.3851 27.8569 97.3851 28.4832C97.3851 29.106 96.5594 29.6199 95.5469 29.6199H95.116C95.2581 29.6866 95.382 29.795 95.4747 29.9338C95.5674 30.0726 95.6256 30.2368 95.6433 30.4095C95.6433 30.9438 95.0406 31.3931 94.236 31.5122H97.9456C98.9551 31.5122 99.7838 32.0227 99.7838 32.649C99.7838 33.2752 98.9551 33.7857 97.9456 33.7857H85.0571C84.0476 33.7857 83.2189 33.2718 83.2189 32.649C83.2189 32.1146 83.8216 31.6688 84.6262 31.5462H80.9167C79.9042 31.5462 79.0785 31.0357 79.0785 30.4095C79.0785 29.7833 79.9042 29.2762 80.9167 29.2762Z" fill="#6C63FF"/>
<path opacity="0.1" d="M220.571 40.0888H221.002C220.86 40.0205 220.737 39.9111 220.645 39.7719C220.553 39.6326 220.495 39.4684 220.477 39.2958C220.477 38.6696 221.303 38.1591 222.316 38.1591H235.201C236.213 38.1591 237.042 38.6696 237.042 39.2958C237.042 39.9186 236.213 40.4291 235.201 40.4291H234.773C234.915 40.4975 235.038 40.6068 235.13 40.746C235.222 40.8853 235.28 41.0495 235.297 41.2221C235.297 41.7565 234.695 42.2057 233.89 42.3248H237.6C238.612 42.3248 239.438 42.8353 239.438 43.4616C239.438 44.0878 238.612 44.5983 237.6 44.5983H224.714C223.702 44.5983 222.873 44.0844 222.873 43.4616C222.873 42.9272 223.476 42.478 224.28 42.3589H220.571C219.561 42.3589 218.733 41.8484 218.733 41.2221C218.733 40.5959 219.561 40.0888 220.571 40.0888Z" fill="#6C63FF"/>
<path opacity="0.1" d="M61.1393 86.3616H61.5672C61.4256 86.2936 61.3024 86.1843 61.2103 86.045C61.1182 85.9057 61.0604 85.7413 61.0429 85.5686C61.0429 84.9458 61.8716 84.4319 62.8811 84.4319H75.7695C76.779 84.4319 77.6077 84.9458 77.6077 85.5686C77.6077 86.1949 76.779 86.7054 75.7695 86.7054H75.3386C75.4803 86.7722 75.6037 86.8807 75.6959 87.0195C75.7881 87.1584 75.8458 87.3225 75.8629 87.495C75.8629 88.0293 75.2602 88.4785 74.4556 88.5977H78.1652C79.1777 88.5977 80.0064 89.1116 80.0064 89.7344C80.0064 90.3572 79.1777 90.8711 78.1652 90.8711H65.2918C64.2793 90.8711 63.4536 90.3606 63.4536 89.7344C63.4536 89.2035 64.0563 88.7542 64.8609 88.6317H61.1393C60.1268 88.6317 59.2981 88.1212 59.2981 87.495C59.2981 86.8687 60.1388 86.3616 61.1393 86.3616Z" fill="#6C63FF"/>
<path opacity="0.1" d="M303.766 207.644C305.931 195.681 279.429 179.461 244.572 171.416C209.715 163.37 179.704 166.546 177.539 178.509C175.374 190.472 201.877 206.692 236.733 214.737C271.59 222.783 301.602 219.607 303.766 207.644Z" fill="#6C63FF"/>
<path d="M233.375 130.991C233.375 130.991 236.801 111.996 249.882 113.756C249.882 113.756 258.923 114.457 260.782 121.141V135.915L233.375 130.991Z" fill="#3A3768"/>
<path d="M305.013 138.029L188.523 127.121L173.573 130.64L174.507 154.209L175.526 154.348L176.686 189.74L290.994 212.955L303.145 201.346V162.979L304.7 161.948L305.013 138.029Z" fill="#5B5771"/>
<path opacity="0.05" d="M305.17 138.029L304.856 161.948L292.242 168.632L292.086 143.655L305.17 138.029Z" fill="black"/>
<path opacity="0.05" d="M303.145 163.003L303.299 200.645L291.151 212.254L291.932 168.632L303.145 163.003Z" fill="black"/>
<path opacity="0.05" d="M175.683 155.757L292.025 171.791L292.086 168.748L175.596 154.559L175.683 155.757Z" fill="black"/>
<path opacity="0.05" d="M303.145 164.385V163.003L291.619 168.748V171.797L303.145 164.385Z" fill="black"/>
<path d="M173.417 130.64L188.366 127.121L304.857 138.029L291.775 143.655L173.417 130.64Z" fill="#EFEAE4"/>
<path opacity="0.1" d="M292.447 138.706L298.163 139.128L288.689 142.331L283.865 141.939L292.447 138.706Z" fill="black"/>
<path d="M292.447 138.424L298.163 138.846L288.689 142.052L283.865 141.657L292.447 138.424Z" fill="white"/>
<path d="M291.763 139.149C291.989 139.04 292.227 139.247 292.468 139.298C292.607 139.329 292.748 139.298 292.887 139.329C293.167 139.37 293.445 139.581 293.713 139.475" fill="#D3DAE1"/>
<path d="M291.468 139.343C291.691 139.234 291.932 139.438 292.173 139.492C292.312 139.52 292.453 139.492 292.592 139.52C292.872 139.564 293.149 139.775 293.418 139.669" fill="#D3DAE1"/>
<path d="M290.787 139.73C291.013 139.622 291.254 139.826 291.495 139.877C291.63 139.907 291.775 139.877 291.911 139.907C292.194 139.952 292.471 140.163 292.736 140.054" fill="#D3DAE1"/>
<path opacity="0.1" d="M267.737 135.527L273.453 135.953L263.979 139.155L259.155 138.761L267.737 135.527Z" fill="black"/>
<path d="M267.737 135.248L273.453 135.67L263.979 138.873L259.155 138.481L267.737 135.248Z" fill="white"/>
<path d="M267.053 135.973C267.279 135.864 267.517 136.068 267.758 136.123C267.897 136.15 268.038 136.123 268.177 136.15C268.457 136.194 268.734 136.405 269.003 136.3" fill="#D3DAE1"/>
<path d="M266.758 136.167C266.981 136.058 267.222 136.262 267.463 136.313C267.601 136.344 267.743 136.313 267.882 136.344C268.162 136.388 268.439 136.599 268.707 136.49" fill="#D3DAE1"/>
<path d="M266.077 136.552C266.303 136.443 266.544 136.65 266.785 136.701C266.92 136.732 267.065 136.701 267.201 136.732C267.484 136.773 267.761 136.987 268.026 136.878" fill="#D3DAE1"/>
<path opacity="0.1" d="M279.589 137.117L285.308 137.539L275.834 140.745L271.007 140.35L279.589 137.117Z" fill="black"/>
<path d="M279.589 136.838L285.308 137.26L275.834 140.462L271.007 140.067L279.589 136.838Z" fill="white"/>
<path d="M278.905 137.563C279.131 137.454 279.372 137.658 279.613 137.709C279.749 137.74 279.89 137.709 280.029 137.74C280.309 137.78 280.589 137.995 280.854 137.886" fill="#D3DAE1"/>
<path d="M278.61 137.753C278.836 137.644 279.077 137.852 279.318 137.903C279.453 137.934 279.595 137.903 279.734 137.934C280.014 137.974 280.294 138.189 280.559 138.08" fill="#D3DAE1"/>
<path d="M277.931 138.141C278.154 138.032 278.395 138.236 278.636 138.291C278.775 138.318 278.917 138.291 279.055 138.318C279.336 138.362 279.613 138.573 279.881 138.468" fill="#D3DAE1"/>
<path opacity="0.1" d="M150.165 269.339C183.863 269.339 211.181 262.988 211.181 255.154C211.181 247.32 183.863 240.969 150.165 240.969C116.467 240.969 89.1494 247.32 89.1494 255.154C89.1494 262.988 116.467 269.339 150.165 269.339Z" fill="#6C63FF"/>
<path d="M216.982 138.989C216.331 132.529 213.754 126.365 213.754 126.365L213.95 124.187C213.95 124.187 213.992 123.098 213.929 121.464C213.936 120.444 214.054 119.429 214.282 118.442C214.809 116.553 213.622 114.232 213.489 114.018C213.357 113.803 213.555 109.661 212.368 107.63C211.181 105.598 203.274 101.82 203.274 101.82C203.274 101.82 202.849 100.816 202.249 99.6417L202.303 99.5226C201.813 98.5174 201.205 97.5913 200.495 96.7692C200.01 96.1838 199.543 95.8503 199.166 96.0137C199.013 95.4488 198.896 94.8721 198.817 94.2881C198.895 94.312 198.977 94.3358 199.055 94.3528C199.381 94.4383 199.72 94.4476 200.049 94.38C200.785 94.1928 201.273 93.4475 201.683 92.7464C203.726 89.2409 205.486 85.395 205.844 81.2463C205.94 80.3995 205.905 79.5402 205.739 78.7073C205.569 78.0598 205.332 77.4372 205.034 76.8525C204.505 75.6527 203.836 74.5388 203.045 73.5409C201.637 71.8665 199.697 70.842 197.702 70.2362C195.454 69.5537 193.113 69.3562 190.801 69.6542C190.198 69.7325 189.596 69.8448 188.993 69.8891C188.229 69.9271 187.463 69.9123 186.7 69.8448L182.755 69.5862L182.737 69.5181L182.08 69.4739C181.821 70.0558 182.08 70.7467 182.403 71.2913C182.725 71.8358 183.096 72.4042 183.069 73.0474C183.042 73.6907 182.629 74.208 182.306 74.7491C181.984 75.2903 181.74 75.9982 182.062 76.5291C182.108 76.6026 182.161 76.6689 182.222 76.7265C182.562 77.1247 183.156 77.169 183.671 77.1622H183.762C182.464 79.0925 181.762 81.45 181.764 83.8737C181.773 85.9449 182.286 87.9734 183.247 89.7371C184.209 91.5008 185.582 92.9317 187.215 93.8729C187.272 94.0941 187.33 94.3222 187.384 94.5536C187.981 96.9442 188.196 99.4361 188.017 101.912L187.947 102.082L187.905 101.902C187.905 101.902 183.258 105.462 181.878 106.404C180.498 107.347 179.112 110.543 179.046 111.414C178.979 112.285 176.804 125.426 176.804 125.426C176.362 126.75 175.997 128.105 175.713 129.483L172.937 132.236C172.937 132.236 167.212 132.818 165.555 132.383L165.603 132.743C164.141 132.366 162.653 132.139 161.155 132.063C160.337 131.944 159.506 132.069 158.744 132.427L158.687 132.457L158.642 132.481C157.769 132.616 156.917 132.886 156.111 133.284C156.014 133.329 155.927 133.373 155.842 133.417L155.86 132.971L149.665 132.611L146.501 131.886C146.501 131.886 145.38 130.865 144.72 131.014C144.06 131.164 142.677 130.143 142.677 130.143C142.361 129.864 142.02 129.624 141.658 129.428C141.553 128.605 141.486 128.104 141.486 128.104C141.486 128.104 139.024 117.071 137.18 110.584C135.945 106.251 134.167 104.117 133.118 103.188C132.651 102.269 132.344 101.677 132.344 101.677C132.142 100.881 131.033 99.0869 130.75 99.0427C130.704 98.961 130.671 98.9202 130.653 98.9202C130.592 98.9129 130.531 98.9234 130.475 98.9508C129.957 96.0375 129.656 92.3856 130.448 89.2034C131.533 88.1965 132.407 86.931 133.009 85.4977C133.61 84.0644 133.923 82.4987 133.926 80.9127C133.926 80.8651 133.926 80.8174 133.926 80.7698C133.926 80.7221 133.926 80.6711 133.926 80.6234C133.925 78.0941 133.132 75.6467 131.687 73.7145L131.584 73.5852C131.612 73.5632 131.638 73.5394 131.663 73.5137C131.889 73.3063 132.062 73.0335 132.162 72.7243C132.262 72.4151 132.286 72.0811 132.232 71.7575C132.097 71.1041 131.645 70.5902 131.412 69.9708C131.273 69.4939 131.161 69.0073 131.078 68.5141C130.9 67.8135 130.575 67.1723 130.129 66.6456L130.174 66.7818C128.993 65.2808 126.962 64.5355 125.132 64.869C123.773 65.1141 122.508 65.8288 121.143 66.05C120.163 66.2066 119.166 66.1045 118.181 66.2168C117.266 66.323 116.376 66.6134 115.553 67.0744C115.338 67.1778 115.147 67.3363 114.995 67.5373C114.855 67.8067 114.761 68.1034 114.718 68.412C114.384 69.7904 113.323 70.774 112.554 71.9243C111.677 73.2386 111.169 74.8203 111.096 76.4645C111.066 76.8823 111.102 77.3029 111.201 77.7067C111.268 77.9484 111.37 78.1764 111.418 78.4214C111.569 79.1702 111.223 79.9155 111.054 80.6575C110.841 81.6039 110.917 82.6037 111.268 83.4959C112.458 86.5045 116.366 87.5085 117.18 90.6669C117.803 90.9901 118.46 91.219 119.136 91.3476C119.19 91.6607 119.238 91.9772 119.277 92.2971C119.259 92.3059 119.242 92.3173 119.226 92.3312C118.171 93.4917 117.909 95.7346 117.909 95.7346L117.783 95.8503C117.352 96.2519 115.878 97.5997 114.546 98.6377C112.964 99.8731 110.328 104.012 108.483 105.247C106.639 106.483 105.12 114.096 105.518 116.863C105.916 119.63 107.561 127.39 106.901 130.221C106.241 133.053 107.89 145.976 107.89 145.976C108.996 146.214 110.078 146.576 111.12 147.058L111.087 147.623L110.987 149.325C110.987 149.325 108.001 161.523 109.143 170.913C110.285 180.303 108.616 181.269 108.616 181.269C108.616 181.269 108.965 185.432 108.089 186.885C107.212 188.338 107.034 191.53 107.034 191.53C107.034 191.53 106.946 198.695 107.121 200.72C107.296 202.745 107.383 206.434 106.769 207.305C106.154 208.177 105.012 213.884 105.099 215.627C105.187 217.369 102.902 221.341 104.132 226.47C105.361 231.599 100.516 231.698 100.516 231.698C100.516 231.698 101.134 239.525 102.45 241.765L102.643 242.085C102.61 242.214 102.577 242.35 102.541 242.497C102.044 244.539 101.363 247.762 101.836 248.541C102.538 249.705 102.89 249.508 102.89 249.508L103.153 254.735C103.153 254.735 108.426 259.769 112.47 259.578C116.514 259.388 115.722 254.735 115.722 254.735L112.277 244.647L112.16 244.307L115.987 236.139C115.987 236.139 117.041 232.559 117.304 231.299C117.566 230.04 118.997 225.578 118.997 225.578C118.997 225.578 122.613 215.899 122.689 214.735C122.764 213.571 123.041 207.285 123.743 206.022C124.445 204.759 126.38 197.514 126.38 197.514L126.428 197.561C126.756 197.925 126.991 198.383 127.107 198.886C127.222 199.389 127.215 199.918 127.085 200.417C126.642 202.255 126.907 206.029 126.907 206.029C126.907 206.029 126.733 209.225 126.38 210.872C126.027 212.519 125.943 225.973 126.558 229.165C127.049 231.721 127.034 236.507 127.01 238.317C126.597 240.24 126.235 242.629 126.907 242.912C128.052 243.398 133.853 243.3 133.853 243.3C133.853 243.3 136.312 242.33 139.654 245.72C142.996 249.109 153.275 244.753 153.275 244.753C153.275 244.753 156.439 243.783 150.198 240.979C145.844 239.022 143.032 237.718 141.194 236.323C141.236 236.231 141.281 236.139 141.321 236.04C141.321 236.04 138.771 233.318 140.881 228.492C142.99 223.665 142.903 219.585 142.903 219.585L143.255 203.32L142.201 181.729L141.384 159.069L141.529 159.014C141.667 163.18 142.387 173.098 146.157 171.175C150.903 168.755 146.859 162.462 146.859 162.462L144.729 157.772L145.365 157.527L142.981 148.828C142.752 147.13 142.722 145.406 142.891 143.699C142.938 142.7 142.92 141.699 142.836 140.704C145.958 140.088 148.948 139.434 149.484 139.584C150.117 139.758 153.658 139.792 155.05 139.799C154.595 140.2 154.23 140.598 154.23 140.598L159.898 144.907C159.898 144.907 161.821 143.719 162.222 142.46C162.616 142.347 162.98 142.128 163.282 141.82C163.343 143.307 163.692 144.917 164.91 144.955C165.214 144.962 165.516 144.895 165.796 144.757L175.065 142.685L174.269 148.297L174.824 149.41C174.544 154.144 174.221 159.171 173.938 163.592L173.808 164.558L173.875 164.575C173.435 171.382 173.082 176.538 173.082 176.538C173.601 175.421 174.407 174.507 175.393 173.914L175.454 184.016C175.454 184.016 175.918 199.988 175.918 202.166C175.918 204.344 175.981 209.208 175.981 209.208C175.981 209.208 176.972 215.16 177.563 217.121C178.154 219.081 178.618 228.012 178.618 228.012C178.618 228.012 180.004 230.479 179.41 231.415C178.817 232.351 181.719 234.39 181.719 234.39C181.719 234.39 179.871 237.221 179.739 239.11C179.724 239.328 179.914 239.559 180.257 239.791C180.149 239.89 180.037 239.988 179.914 240.084C179.058 240.73 177.804 241.179 175.918 240.996C170.774 240.485 167.149 245.859 170.313 246.948C173.477 248.037 182.969 248.255 182.969 248.255C182.969 248.255 185.844 246.23 188.092 247.142C188.059 249.273 188.152 251.226 188.167 251.485L188.14 251.509C186.796 252.87 184.223 255.212 181.71 256.168C178.093 257.546 177.292 263.138 181.972 263.863C186.652 264.588 193.507 262.992 193.507 262.992C193.507 262.992 197.066 260.017 199.769 259.364C202.472 258.71 204.78 257.257 204.319 255.515C204.018 254.402 203.244 251.485 202.719 249.525C202.689 249.407 202.659 249.293 202.629 249.184C202.71 248.98 202.792 248.769 202.867 248.551C202.867 248.551 201.484 240.42 202.605 238.389C203.726 236.357 203.132 216.025 203.132 216.025C203.132 216.025 201.219 210.872 202.21 207.751C203.201 204.63 200.628 200.199 200.628 200.199C200.628 200.199 200.908 191.319 201.661 186.371C201.696 186.16 201.729 185.956 201.761 185.758C203.022 185.335 204.252 184.799 205.437 184.155C205.437 184.155 206.097 172.972 206.492 170.433C206.531 170.194 206.585 169.81 206.652 169.31L206.953 167.516L207.309 165.474L208.514 158.514L210.69 155.335L216.295 148.869C216.295 148.869 217.642 145.452 216.982 138.989ZM130.545 99.0563L130.502 99.0903C130.496 99.0658 130.491 99.0408 130.487 99.0155C130.505 99.0317 130.524 99.0455 130.545 99.0563ZM185.922 106.983L185.705 107.517L186.498 106.626L185.422 107.987L185.784 107.129L185.922 106.983ZM180.571 119.473C180.363 120.096 180.14 120.77 179.908 121.471L180.332 120.038L180.571 119.473Z" fill="url(#paint0_linear)"/>
<path d="M163.277 139.836C163.277 139.836 162.538 145.387 164.753 145.458C166.968 145.53 168.448 141.177 168.448 141.177L167.544 137.695L163.277 139.836Z" fill="#585B8A"/>
<path opacity="0.2" d="M163.277 139.836C163.277 139.836 162.538 145.387 164.753 145.458C166.968 145.53 168.448 141.177 168.448 141.177L167.544 137.695L163.277 139.836Z" fill="black"/>
<path d="M113.667 259.99C109.725 260.184 104.584 255.154 104.584 255.154L104.328 249.93C104.328 249.93 103.987 250.124 103.3 248.963C102.839 248.184 103.502 244.954 103.987 242.922C104.222 241.928 104.415 241.22 104.415 241.22L113.064 243.834L113.477 245.07L116.834 255.151C116.834 255.151 117.605 259.796 113.667 259.99Z" fill="#636992"/>
<path d="M153.405 245.192C153.405 245.192 143.385 249.545 140.145 246.159C136.906 242.772 134.492 243.739 134.492 243.739C134.492 243.739 128.839 243.838 127.724 243.351C127.067 243.068 127.423 240.649 127.833 238.722C128.11 237.391 128.411 236.292 128.411 236.292C128.411 236.292 138.259 232.518 139.802 234.839C140.265 235.521 140.819 236.118 141.444 236.609C143.228 238.065 146.016 239.386 150.424 241.418C156.487 244.222 153.405 245.192 153.405 245.192Z" fill="#636992"/>
<path d="M144.413 156.775L147.152 162.966C147.152 162.966 151.093 169.255 146.468 171.672C141.842 174.088 141.929 157.745 141.929 157.745L144.413 156.775Z" fill="#FFD6D6"/>
<path d="M132.934 103.089C132.934 103.089 135.933 104.638 137.732 111.118C139.531 117.598 141.929 128.629 141.929 128.629C141.929 128.629 143.557 141.105 143.297 144.203C143.133 145.908 143.162 147.631 143.385 149.328L145.696 158.034L141.071 159.872L133.962 129.112L132.934 103.089Z" fill="#DCE6F2"/>
<path opacity="0.05" d="M132.934 103.089C132.934 103.089 135.933 104.638 137.732 111.118C139.531 117.598 141.929 128.629 141.929 128.629C141.929 128.629 143.557 141.105 143.297 144.203C143.133 145.908 143.162 147.631 143.385 149.328L145.696 158.034L141.071 159.872L133.962 129.112L132.934 103.089Z" fill="black"/>
<path opacity="0.1" d="M113.064 243.837L113.477 245.073L112.97 246.165C111 247.132 106.118 246.359 106.118 246.359C106.118 246.359 105.214 245.063 103.978 242.929C104.213 241.935 104.406 241.227 104.406 241.227L113.064 243.837Z" fill="black"/>
<path opacity="0.1" d="M141.758 237.065C139.26 243.456 130.768 241.084 128.408 240.284C128.019 240.152 127.805 240.063 127.805 240.063C127.805 240.063 127.821 239.542 127.827 238.722C128.104 237.391 128.405 236.292 128.405 236.292C128.405 236.292 138.253 232.518 139.796 234.839C140.259 235.521 140.813 236.118 141.438 236.609C141.533 236.771 141.639 236.924 141.758 237.065Z" fill="black"/>
<path d="M141.327 228.941C139.272 233.774 141.758 236.486 141.758 236.486C139.26 242.874 130.768 240.506 128.408 239.702C128.019 239.573 127.806 239.485 127.806 239.485C127.806 239.485 127.977 232.807 127.378 229.615C126.778 226.422 126.862 212.979 127.206 211.335C127.549 209.691 127.718 206.495 127.718 206.495C127.718 206.495 127.462 202.724 127.89 200.887C128.019 200.39 128.027 199.864 127.915 199.362C127.803 198.86 127.573 198.402 127.251 198.034L127.206 197.983C127.206 197.983 125.322 205.239 124.635 206.492C123.948 207.744 123.695 214.037 123.608 215.198C123.52 216.358 120.01 226.034 120.01 226.034C120.01 226.034 118.642 230.483 118.386 231.738C118.129 232.994 117.099 236.578 117.099 236.578L112.97 245.577C111 246.543 106.118 245.771 106.118 245.771C106.118 245.771 105.178 244.409 103.891 242.19C102.604 239.971 102.008 232.133 102.008 232.133C102.008 232.133 106.718 232.035 105.518 226.909C104.319 221.783 106.546 217.815 106.461 216.073C106.377 214.33 107.489 208.626 108.089 207.755C108.688 206.883 108.601 203.208 108.429 201.176C108.257 199.144 108.345 191.987 108.345 191.987C108.345 191.987 108.517 188.794 109.372 187.344C110.228 185.894 109.888 181.732 109.888 181.732C109.888 181.732 111.512 180.766 110.4 171.382C109.288 161.999 112.208 149.811 112.208 149.811L112.307 148.11L112.464 145.353C112.464 145.353 136.96 143.61 138.931 145.738C139.446 146.328 139.869 147.013 140.182 147.763C140.856 149.4 141.332 151.132 141.598 152.912L142.626 182.222L143.653 203.793L143.31 220.044C143.31 220.044 143.385 224.101 141.327 228.941Z" fill="#565988"/>
<path opacity="0.1" d="M134.064 171.093L131.494 233.968L128.408 239.699C128.019 239.57 127.805 239.481 127.805 239.481C127.805 239.481 127.977 232.804 127.377 229.611C126.778 226.419 126.862 212.975 127.206 211.332C127.549 209.688 127.718 206.492 127.718 206.492C127.718 206.492 127.462 202.721 127.89 200.883C128.019 200.387 128.027 199.86 127.915 199.359C127.802 198.857 127.573 198.399 127.251 198.031L127.293 197.691L134.064 171.093Z" fill="black"/>
<path opacity="0.1" d="M106.383 238.613C106.383 238.613 113.064 235.615 114.091 236.571C115.119 237.528 106.214 238.988 106.214 238.988L106.383 238.613Z" fill="black"/>
<path opacity="0.1" d="M139.359 230.68C139.103 230.779 132.594 233.403 133.194 236.193C133.793 238.984 139.359 230.68 139.359 230.68Z" fill="black"/>
<path d="M119.018 87.5664C119.018 87.5664 121.2 93.5156 120.046 96.565C118.892 99.6145 132.506 104.835 132.506 104.835C132.506 104.835 128.526 93.2263 132.38 86.6951C136.234 80.164 119.018 87.5664 119.018 87.5664Z" fill="#FFD6D6"/>
<path d="M198.736 259.796C196.102 260.45 192.633 263.424 192.633 263.424C192.633 263.424 185.953 265.02 181.39 264.295C176.828 263.57 177.603 257.982 181.134 256.604C183.584 255.651 186.094 253.299 187.405 251.951C187.984 251.349 188.327 250.93 188.327 250.93L201.113 248.027C201.113 248.027 201.321 248.834 201.611 249.947C202.123 251.91 202.879 254.824 203.168 255.933C203.617 257.693 201.369 259.143 198.736 259.796Z" fill="#505484"/>
<path d="M195.46 248.623C195.46 248.623 190.063 249.276 187.815 247.826C185.567 246.376 182.354 248.698 182.354 248.698C182.354 248.698 173.103 248.48 170.021 247.391C166.938 246.302 170.47 240.924 175.481 241.441C177.307 241.629 178.542 241.176 179.377 240.529C180.249 239.854 180.857 238.825 181.074 237.657L191.922 238.382L193.429 242.725L195.46 248.623Z" fill="#505484"/>
<path opacity="0.1" d="M193.595 244.705C193.595 244.705 180.986 242.377 179.377 240.529C180.249 239.854 180.857 238.825 181.074 237.657L191.922 238.382L193.429 242.725L193.595 244.705Z" fill="black"/>
<path d="M174.902 163.235L175.032 184.489C175.032 184.489 175.481 200.451 175.481 202.629C175.481 204.807 175.544 209.664 175.544 209.664C175.544 209.664 176.509 215.613 177.087 217.573C177.666 219.534 178.115 228.464 178.115 228.464C178.115 228.464 179.465 230.932 178.886 231.868C178.308 232.804 181.134 234.842 181.134 234.842C181.134 234.842 179.326 237.674 179.209 239.56C179.091 241.445 193.595 244.123 193.595 244.123L187.945 178.686L183.445 162.292L174.902 163.235Z" fill="#575988"/>
<path opacity="0.1" d="M174.902 163.235L175.032 184.489C175.032 184.489 175.481 200.451 175.481 202.629C175.481 204.807 175.544 209.664 175.544 209.664C175.544 209.664 176.509 215.613 177.087 217.573C177.666 219.534 178.115 228.464 178.115 228.464C178.115 228.464 179.465 230.932 178.886 231.868C178.308 232.804 181.134 234.842 181.134 234.842C181.134 234.842 179.326 237.674 179.209 239.56C179.091 241.445 193.595 244.123 193.595 244.123L187.945 178.686L183.445 162.292L174.902 163.235Z" fill="black"/>
<path opacity="0.1" d="M201.61 249.964C197.413 261.266 187.429 252.543 187.429 252.543C187.429 252.543 187.429 252.326 187.405 251.951C187.984 251.349 188.327 250.93 188.327 250.93L201.113 248.027C201.113 248.027 201.321 248.851 201.61 249.964Z" fill="black"/>
<path d="M201.755 248.987C197.642 260.899 187.429 251.962 187.429 251.962C187.429 251.962 187.107 245.795 187.752 242.966C188.397 240.138 187.043 231.647 187.043 231.647C187.043 231.647 186.272 224.101 185.567 222.362C184.862 220.623 184.925 217.138 184.925 216.849C184.925 216.559 185.181 214.235 184.603 212.638C184.024 211.042 183.699 207.125 183.699 207.125C183.699 207.125 183.699 201.611 183.12 198.348L181.128 187.116L177.53 164.116L178.654 163.898L198.793 159.909C198.793 159.909 202.584 181.691 201.297 183.924C201.02 184.414 200.776 185.486 200.574 186.868C199.839 191.81 199.564 200.682 199.564 200.682C199.564 200.682 202.068 205.107 201.107 208.228C200.146 211.349 202.011 216.498 202.011 216.498C202.011 216.498 202.59 236.813 201.496 238.845C200.402 240.877 201.755 248.987 201.755 248.987Z" fill="#575988"/>
<path d="M199.826 100.479C199.826 100.479 181.583 114.988 185.693 107.732C187.908 103.825 187.501 98.8487 186.633 95.0914C186.195 93.1803 185.589 91.3231 184.825 89.5472C184.825 89.5472 200.326 82.1005 198.271 88.7746C197.79 90.3295 197.585 91.9765 197.669 93.6211C197.792 96.0932 198.541 98.4734 199.826 100.479Z" fill="#D28690"/>
<path d="M166.98 133.707C166.98 133.707 159.272 131.191 157.988 133.659C156.704 136.126 158.374 141.541 160.7 142.412C163.026 143.284 168.366 139.462 168.366 139.462L166.98 133.707Z" fill="#D28690"/>
<path d="M175.803 129.428L172.591 132.767C172.591 132.767 167.001 133.346 165.395 132.91C165.395 132.91 166.875 144.084 164.753 145.462L177.729 142.487L175.803 129.428Z" fill="#585B8A"/>
<path opacity="0.1" d="M175.803 129.428L172.591 132.767C172.591 132.767 167.001 133.346 165.395 132.91C165.395 132.91 166.875 144.084 164.753 145.462L177.729 142.487L175.803 129.428Z" fill="black"/>
<path opacity="0.1" d="M134.561 81.4709C134.561 84.3594 133.546 87.1295 131.737 89.172C129.929 91.2144 127.476 92.3619 124.919 92.3619C119.97 89.6766 115.276 87.4916 115.276 81.4709C115.224 80.0056 115.435 78.5437 115.897 77.1729C116.358 75.802 117.059 74.5504 117.959 73.4932C118.859 72.436 119.938 71.5948 121.133 71.0203C122.328 70.4458 123.613 70.1496 124.911 70.1496C126.209 70.1496 127.494 70.4458 128.689 71.0203C129.884 71.5948 130.963 72.436 131.863 73.4932C132.763 74.5504 133.464 75.802 133.925 77.1729C134.387 78.5437 134.598 80.0056 134.546 81.4709H134.561Z" fill="black"/>
<path d="M134.561 81.1781C134.563 83.7394 133.764 86.2191 132.304 88.1797C130.845 90.1403 128.82 91.4561 126.585 91.8948C124.351 92.3336 122.051 91.8673 120.092 90.578C118.132 89.2888 116.639 87.2594 115.875 84.8479C115.11 82.4364 115.125 79.7976 115.915 77.3968C116.705 74.9961 118.221 72.9876 120.194 71.7256C122.168 70.4636 124.472 70.0292 126.702 70.4989C128.931 70.9686 130.942 72.3123 132.38 74.293C133.788 76.2355 134.559 78.6677 134.561 81.1781Z" fill="#FFD6D6"/>
<path opacity="0.1" d="M140.182 147.773C139.228 148.442 138.229 149.027 137.195 149.522C137.195 149.522 132.314 148.722 131.608 149.665C130.903 150.608 124.678 150.972 124.678 150.972C124.678 150.972 115.17 150.465 113.757 149.087C113.32 148.687 112.834 148.361 112.313 148.12L112.47 145.363C112.47 145.363 136.966 143.621 138.937 145.748C139.45 146.339 139.871 147.023 140.182 147.773Z" fill="black"/>
<path d="M141.372 145.823C141.179 147.055 137.195 148.94 137.195 148.94C137.195 148.94 132.314 148.144 131.608 149.087C130.903 150.029 124.678 150.393 124.678 150.393C124.678 150.393 115.17 149.883 113.757 148.505C112.344 147.126 109.195 146.462 109.195 146.462C109.195 146.462 107.588 133.55 108.233 130.722C108.878 127.893 107.269 120.127 106.883 117.37C106.498 114.613 107.974 106.996 109.773 105.764C111.572 104.532 114.143 100.394 115.682 99.1618C116.981 98.1238 118.416 96.7794 118.834 96.3744L118.958 96.2587C118.958 96.2587 119.217 94.0091 120.245 92.8553C121.272 91.7016 130.713 100.183 130.713 100.183C130.713 100.183 130.78 100.836 131.422 99.6043C131.566 99.3286 132.811 101.357 133.028 102.215C133.028 102.215 138.166 112.374 138.488 114.467C138.81 116.56 140.157 123.391 140.414 125.058C140.48 125.487 140.588 126.992 140.715 129.006C140.739 129.401 140.76 129.82 140.787 130.255C140.977 133.598 141.182 137.865 141.306 141.092C141.306 141.459 141.333 141.813 141.342 142.154C141.407 143.375 141.417 144.6 141.372 145.823Z" fill="#DCE6F2"/>
<path opacity="0.1" d="M108.752 119.63C108.752 119.63 112.283 124.49 113.44 124.49C114.598 124.49 108.752 119.63 108.752 119.63Z" fill="black"/>
<path opacity="0.1" d="M116.192 130.078C116.192 130.078 110.409 137.188 111.181 138.495C111.952 139.802 116.192 130.078 116.192 130.078Z" fill="black"/>
<path opacity="0.1" d="M111.952 144.226C111.952 144.226 118.581 136.028 118.883 133.199L111.952 144.226Z" fill="black"/>
<path opacity="0.1" d="M120.302 144.805C120.302 144.805 127.947 140.234 128.589 136.606C129.231 132.978 120.302 144.805 120.302 144.805Z" fill="black"/>
<path opacity="0.1" d="M130.002 100.697L128.942 103.597L130.708 104.539L132.443 110.019C132.443 110.019 137.229 120.828 137.036 126.45C136.843 132.073 137.904 140.524 137.904 140.524L140.664 139.945L139.362 123.408C139.159 120.847 138.592 118.341 137.681 115.985C135.475 110.281 131.37 99.7507 131.111 99.7507C130.759 99.7507 131.006 99.897 131.006 99.897L130.002 100.697Z" fill="black"/>
<path d="M130.258 100.404L129.198 103.307L130.967 104.25L132.699 109.729C132.699 109.729 137.485 120.539 137.292 126.161C137.099 131.784 138.16 140.234 138.16 140.234L140.923 139.656L139.618 123.118C139.418 120.558 138.851 118.051 137.94 115.696C135.734 109.988 131.63 99.4614 131.373 99.4614C131.018 99.4614 131.265 99.6077 131.265 99.6077L130.258 100.404Z" fill="#575989"/>
<path d="M161.541 143.042C160.197 142.926 156.972 141.085 155.692 140.319L155.149 139.979L155.216 134.36C155.532 134.15 155.86 133.962 156.198 133.798C157.91 132.954 161.42 131.807 163.18 135.5C165.555 140.452 163.243 143.171 161.541 143.042Z" fill="#FFD6D6"/>
<path opacity="0.1" d="M132.38 74.2931C132.242 74.3907 132.09 74.461 131.931 74.5007C130.813 74.7764 129.541 73.6907 128.583 74.3884C127.998 74.8172 127.863 75.7055 127.784 76.4883C127.648 77.8496 127.511 79.2019 127.375 80.5451C127.346 81.0233 127.257 81.4944 127.109 81.9439C126.636 83.1658 125.337 83.7409 124.153 83.7205C123.689 83.7578 123.231 83.5866 122.879 83.244C122.671 83.0058 122.559 82.6723 122.33 82.4545C120.823 81.0284 120.365 84.5237 120.763 85.5175C121.402 87.141 123.671 88.7065 122.719 90.769C122.559 91.1042 122.316 91.3797 122.02 91.562C120.585 91.0544 119.275 90.1749 118.194 88.9936C117.114 87.8123 116.293 86.362 115.797 84.7586C115.302 83.1552 115.145 81.4431 115.34 79.759C115.534 78.075 116.075 76.4657 116.919 75.0597C117.762 73.6537 118.885 72.49 120.198 71.6616C121.51 70.8331 122.976 70.3629 124.479 70.2884C125.981 70.2139 127.478 70.5372 128.85 71.2326C130.222 71.9279 131.431 72.976 132.38 74.2931Z" fill="black"/>
<path d="M122.074 82.4408C122.3 82.6553 122.414 82.9888 122.622 83.227C122.975 83.5692 123.433 83.7404 123.897 83.7035C125.081 83.7239 126.38 83.1522 126.85 81.9235C127 81.4759 127.091 81.0057 127.118 80.5281L127.528 76.4713C127.607 75.6885 127.739 74.8002 128.327 74.3713C129.285 73.6907 130.557 74.7593 131.675 74.4837C132.078 74.368 132.427 74.0834 132.651 73.6876C132.874 73.2919 132.956 72.8148 132.88 72.3531C132.751 71.7031 132.311 71.1892 132.085 70.5697C131.948 70.0938 131.838 69.6084 131.756 69.1165C131.132 66.4754 128.387 64.9915 126 65.434C124.675 65.6824 123.442 66.3972 122.113 66.615C121.161 66.7715 120.188 66.6694 119.226 66.7851C118.333 66.8892 117.465 67.1788 116.665 67.6394C116.455 67.7444 116.269 67.9028 116.122 68.1023C115.986 68.3717 115.894 68.6669 115.851 68.9735C115.529 70.3349 114.492 71.3389 113.742 72.4859C112.884 73.8055 112.387 75.3805 112.313 77.0158C112.284 77.4335 112.319 77.8537 112.416 78.258C112.479 78.4963 112.579 78.7277 112.627 78.9728C112.775 79.7181 112.437 80.4635 112.271 81.2054C112.065 82.1522 112.139 83.1491 112.482 84.0438C113.639 87.0491 117.451 88.0531 118.244 91.208C118.948 91.5891 119.708 91.8199 120.486 91.8887C121.263 91.9057 122.101 91.528 122.463 90.7486C123.412 88.7065 121.146 87.1205 120.507 85.5005C120.106 84.5033 120.555 81.0114 122.074 82.4408Z" fill="#353045"/>
<path opacity="0.1" d="M198.287 88.7746C197.805 90.3295 197.6 91.9765 197.684 93.6211C197.22 94.0669 196.714 92.7328 196.177 93.0766C194.707 94.0363 193.007 96.32 191.187 96.32C189.609 96.3212 188.052 95.9001 186.646 95.0914C186.207 93.1803 185.601 91.3231 184.838 89.5472C184.838 89.5472 200.342 82.1005 198.287 88.7746Z" fill="black"/>
<path d="M201.198 84.4217C201.198 86.6605 200.61 88.8491 199.508 90.7106C198.407 92.5721 196.842 94.023 195.01 94.8798C193.179 95.7365 191.164 95.9607 189.22 95.5239C187.275 95.0871 185.489 94.009 184.088 92.426C182.686 90.8429 181.732 88.8259 181.345 86.6301C180.958 84.4342 181.157 82.1582 181.915 80.0898C182.674 78.0214 183.958 76.2535 185.607 75.0096C187.255 73.7658 189.193 73.1019 191.175 73.1019C192.491 73.1015 193.795 73.394 195.011 73.9627C196.227 74.5314 197.332 75.3652 198.263 76.4164C199.194 77.4676 199.932 78.7157 200.435 80.0893C200.939 81.4628 201.198 82.935 201.198 84.4217Z" fill="#D28690"/>
<path d="M200.77 102.994C200.77 102.994 198.883 105.315 198.627 105.506C198.371 105.696 192.902 131.712 192.805 132.015C192.709 132.318 186.293 155.808 186.293 155.808L176.014 161.516L176.873 132.784L184.407 109.09C184.407 109.09 186.893 105.897 187.661 104.737C188.43 103.576 198.024 96.6093 198.024 96.6093L199.664 100.425L200.77 102.994Z" fill="#F0F3F7"/>
<path opacity="0.1" d="M199.411 101.007L187.592 110.563L187.402 105.315C188.174 104.155 197.765 97.1913 197.765 97.1913L199.411 101.007Z" fill="black"/>
<path d="M199.667 100.425L187.848 109.981L187.664 104.737C188.436 103.573 198.027 96.6093 198.027 96.6093L199.667 100.425Z" fill="#F0F3F7"/>
<path d="M187.269 102.402L187.664 104.737L185.021 107.769L187.131 102.436C187.131 102.436 182.611 105.993 181.255 106.935C179.899 107.878 178.543 111.07 178.491 111.942C178.44 112.813 176.307 125.943 176.307 125.943C176.307 125.943 174.701 130.803 175.153 132.182C175.605 133.56 172.712 177.018 172.712 177.018C173.098 176.174 173.645 175.437 174.313 174.859C174.98 174.28 175.753 173.876 176.575 173.673L175.544 147.991C175.544 147.991 176.798 130.905 176.861 130.688C176.924 130.47 179.784 120.566 179.784 120.566L187.269 102.402Z" fill="#585B8A"/>
<path opacity="0.1" d="M187.923 105.026L187.719 109.791C187.719 109.791 184.859 119.984 183.898 121.652C182.936 123.319 180.01 133.261 180.01 133.261L178.362 150.53L175.535 151.983L174.143 149.087L176.457 132.41C176.457 132.41 180.824 118.337 181.469 116.883L184.69 109.219L187.923 105.026Z" fill="black"/>
<path d="M187.664 104.737L187.462 109.501C187.462 109.501 184.603 119.695 183.638 121.362C182.674 123.03 179.754 132.971 179.754 132.971L178.115 150.237L175.288 151.687L173.875 148.787L176.189 132.11C176.189 132.11 180.556 118.034 181.197 116.584L184.443 108.93L187.664 104.737Z" fill="#663D5C"/>
<path d="M154.348 141.106L159.871 145.424C159.871 145.424 163.768 142.957 161.499 141.361C159.23 139.765 157.217 139.523 156.487 139.523C155.758 139.523 154.348 141.106 154.348 141.106Z" fill="#D28690"/>
<path d="M158.473 133.121C158.35 133.208 158.248 133.329 158.178 133.472C158.108 133.616 158.072 133.777 158.072 133.941C158.072 135.265 158.205 138.771 159.187 137.188C160.393 135.252 160.173 133.513 162.014 134.768C163.158 135.573 164.16 136.612 164.967 137.831L164.455 133.672C164.455 133.672 160.67 131.562 158.473 133.121Z" fill="#D28690"/>
<path opacity="0.1" d="M201.303 183.91C201.026 184.4 200.782 185.472 200.58 186.854C189.315 190.669 181.074 182.603 181.074 182.603C180.077 178.787 179.262 174.913 178.633 170.998C178.431 169.657 178.476 167.056 178.663 163.884L198.802 159.896C198.802 159.896 202.59 181.661 201.303 183.91Z" fill="black"/>
<path d="M212.865 118.977C212.353 120.865 212.546 124.708 212.546 124.708L207.92 149.376C207.92 149.376 205.672 168.384 205.287 170.923C204.901 173.462 204.259 184.635 204.259 184.635C191.154 191.891 181.056 182.025 181.056 182.025C180.059 178.207 179.244 174.332 178.615 170.416C177.97 166.107 179.868 148.845 180.766 141.177C181.035 138.907 181.215 137.477 181.215 137.477L184.587 123.33C184.587 123.33 188.731 111.394 190.274 107.912C191.817 104.43 198.012 96.6093 198.012 96.6093C198.781 96.058 200.01 98.0047 200.923 99.7779C201.613 101.119 202.129 102.364 202.129 102.364C202.129 102.364 209.837 106.135 210.991 108.15C212.145 110.165 211.955 114.317 212.085 114.535C212.215 114.753 213.381 117.091 212.865 118.977Z" fill="#585B8A"/>
<path opacity="0.1" d="M194.689 110.199C194.689 110.199 195.267 114.045 193.785 115.206C192.353 116.329 181.698 139.993 181.035 141.47C181.303 139.196 181.484 137.767 181.484 137.767L184.856 123.622C184.856 123.622 189.002 111.686 190.542 108.201C192.082 104.716 198.284 96.8986 198.284 96.8986C199.052 96.3472 200.279 98.294 201.192 100.067C199.814 103.297 196.943 109.403 194.689 110.199Z" fill="black"/>
<path d="M194.432 109.91C194.432 109.91 195.008 113.756 193.528 114.916C192.049 116.077 181.445 139.7 180.773 141.177C181.041 138.907 181.222 137.477 181.222 137.477L184.594 123.329C184.594 123.329 188.737 111.394 190.28 107.912C191.823 104.43 198.018 96.6093 198.018 96.6093C198.787 96.058 200.016 98.0047 200.929 99.7779C199.558 103.004 196.684 109.113 194.432 109.91Z" fill="#585B8A"/>
<path d="M209.72 144.662L206.094 165.964V165.967L205.748 168.006V168.009L204.967 172.594L201.638 171.797L200.086 171.427L178.609 166.287L177.03 165.91L173.426 165.049L174.131 159.76L174.423 157.561L177.024 138.059L209.72 144.662Z" fill="#EFEAE4"/>
<path d="M189.677 162.074C189.677 162.074 181.134 165.556 182.997 169.691C184.859 173.826 196.807 166.498 196.807 166.498L189.677 162.074Z" fill="#D28690"/>
<path opacity="0.1" d="M195.779 191.745C195.779 192.034 196.102 195.737 197.386 197.041C198.669 198.344 195.779 191.745 195.779 191.745Z" fill="black"/>
<path opacity="0.1" d="M187.173 204.875C187.173 204.875 188.713 209.664 194.815 211.624C200.917 213.585 187.173 204.875 187.173 204.875Z" fill="black"/>
<path opacity="0.1" d="M201.198 84.4216C201.198 86.4116 200.734 88.3665 199.852 90.0892C198.97 91.8118 197.702 93.2414 196.174 94.2337C195.599 93.8699 195.088 93.3887 194.668 92.8145C194.231 92.2155 193.89 91.3986 194.152 90.6839C194.363 90.1087 194.921 89.7446 195.056 89.149C195.12 88.7847 195.104 88.4084 195.008 88.0531C194.897 87.4915 194.791 86.9299 194.683 86.3718C194.589 85.8953 194.423 85.3338 194.005 85.218C193.586 85.1023 193.236 85.4971 192.908 85.7898C192.103 86.5079 190.56 86.9946 189.593 86.4058C188.626 85.817 188.897 83.8465 188.74 82.7812C188.738 82.6887 188.718 82.5977 188.682 82.5148C188.645 82.4319 188.593 82.359 188.529 82.3013C188.388 82.2486 188.238 82.2368 188.092 82.2673C187.571 82.2673 187.152 81.7397 187.001 81.1748C186.895 80.598 186.836 80.0112 186.827 79.422C186.769 78.8332 186.58 78.2104 186.134 77.9075C185.777 77.7202 185.382 77.6472 184.991 77.6965L183.102 77.7203C184.355 75.8064 186.111 74.3876 188.12 73.6654C190.128 72.9433 192.287 72.9547 194.289 73.698C196.292 74.4413 198.036 75.8786 199.273 77.8057C200.511 79.7327 201.179 82.0513 201.183 84.4319L201.198 84.4216Z" fill="black"/>
<path d="M193.176 85.7898C193.504 85.4971 193.866 85.1091 194.273 85.2215C194.68 85.3338 194.854 85.9021 194.948 86.3718L195.273 88.0497C195.369 88.4059 195.387 88.7833 195.324 89.149C195.171 89.748 194.616 90.1088 194.402 90.6839C194.14 91.3987 194.484 92.2155 194.918 92.8111C195.709 93.8884 196.803 94.6271 198.018 94.9042C198.336 94.9902 198.665 94.9984 198.986 94.928C199.703 94.7408 200.191 93.9955 200.577 93.2978C202.569 89.7922 204.283 85.9498 204.633 81.8044C204.729 80.9589 204.694 80.101 204.53 79.2689C204.367 78.6221 204.136 77.9995 203.843 77.414C203.33 76.218 202.679 75.1043 201.906 74.1025C200.535 72.4348 198.642 71.4104 196.699 70.8046C194.512 70.1195 192.23 69.9172 189.976 70.209C189.373 70.2873 188.794 70.3996 188.201 70.4438C187.455 70.483 186.709 70.4693 185.965 70.403L181.529 70.1035C181.276 70.6855 181.529 71.3764 181.83 71.9209C182.132 72.4655 182.505 73.0304 182.481 73.6771C182.457 74.3237 182.05 74.8342 181.737 75.3788C181.423 75.9233 181.185 76.6278 181.499 77.1588C181.812 77.6897 182.451 77.7237 183.005 77.7169L185.241 77.6897C185.631 77.6445 186.024 77.721 186.378 77.9109C186.824 78.2138 187.013 78.84 187.071 79.4254C187.083 80.0144 187.142 80.6009 187.245 81.1782C187.399 81.7432 187.815 82.2775 188.336 82.2707C188.482 82.2378 188.633 82.2508 188.773 82.3081C188.837 82.3652 188.889 82.4374 188.926 82.5198C188.962 82.6021 188.982 82.6926 188.984 82.7846C189.141 83.8499 188.852 85.8171 189.837 86.4093C190.822 87.0014 192.371 86.5079 193.176 85.7898Z" fill="#663D5C"/>
<path opacity="0.1" d="M205.914 108.147C204.806 108.014 203.691 108.31 202.751 108.988C201.812 109.665 201.105 110.682 200.746 111.874C199.54 115.75 197.53 122.744 198.033 125.508C198.742 129.425 199.576 135.956 199.576 135.956C199.576 135.956 203.238 138.339 201.384 140.741C199.531 143.144 199.007 146.548 199.007 146.548C199.007 146.548 196.629 147.708 196.117 150.176C195.605 152.643 192.133 156.05 192.133 156.05L186.932 161.928C186.932 161.928 195.538 171.797 197.274 172.301L202.605 165.263L208.9 155.832L214.36 149.366C214.36 149.366 215.644 145.962 215.002 139.496C214.36 133.029 211.853 126.872 211.853 126.872L212.046 124.694C212.046 124.694 212.636 109.09 205.914 108.147Z" fill="black"/>
<path d="M206.426 108.147C205.319 108.016 204.205 108.313 203.267 108.99C202.329 109.667 201.623 110.684 201.264 111.874C200.058 115.75 198.048 122.744 198.552 125.508C199.257 129.425 200.091 135.956 200.091 135.956C200.091 135.956 203.753 138.339 201.9 140.741C200.046 143.144 199.525 146.548 199.525 146.548C199.525 146.548 197.147 147.708 196.632 150.176C196.117 152.643 192.651 156.05 192.651 156.05L187.447 161.928C187.447 161.928 196.053 171.798 197.789 172.301L203.12 165.263L209.4 155.832L214.86 149.366C214.86 149.366 216.147 145.962 215.502 139.496C214.857 133.029 212.356 126.872 212.356 126.872L212.549 124.694C212.549 124.694 213.149 109.09 206.426 108.147Z" fill="#585B8A"/>
<path opacity="0.1" d="M201.047 130.225C201.047 130.225 206.507 137.767 208.821 136.099C211.136 134.431 201.047 130.225 201.047 130.225Z" fill="black"/>
<path opacity="0.1" d="M203.102 124.419C203.68 124.636 208.436 132.11 210.877 131.225C213.317 130.341 203.102 124.419 203.102 124.419Z" fill="black"/>
<path opacity="0.1" d="M204.452 137.256C204.452 137.256 204.774 141.538 208.692 140.956C212.609 140.374 204.452 137.256 204.452 137.256Z" fill="black"/>
<path opacity="0.1" d="M187.14 102.725L185.021 108.058L187.667 105.026L187.14 102.725Z" fill="black"/>
<path d="M187.14 102.436L185.021 107.769L187.667 104.737L187.14 102.436Z" fill="#F0F3F7"/>
<path opacity="0.3" d="M178.609 166.287L177.03 165.91L174.131 159.76L174.423 157.561L178.609 166.287Z" fill="black"/>
<path opacity="0.3" d="M206.094 165.967L205.748 168.006V168.009L201.637 171.797L200.086 171.426L206.094 165.967Z" fill="black"/>
<path opacity="0.1" d="M141.333 142.167C140.537 142.317 139.766 142.453 139.061 142.555C135.143 143.137 125.826 137.913 125.826 137.913C125.826 137.913 114.456 127.175 111.181 117.02C107.905 106.864 115.098 105.339 115.098 105.339C117.81 103.597 123.707 108.457 124.542 109.256C125.377 110.056 126.085 112.085 126.019 113.392C125.952 114.698 127.947 116.366 127.947 116.366C127.947 116.366 131.352 123.04 132.187 123.765C133.022 124.49 133.215 125.143 133.471 126.379C133.727 127.614 135.975 128.629 136.939 128.554C137.904 128.479 139.049 128.918 139.049 129.496C139.049 129.963 139.992 130.194 140.766 130.269C140.995 133.989 141.221 138.863 141.333 142.167Z" fill="black"/>
<path opacity="0.1" d="M141.297 141.105C140.694 141.214 140.115 141.313 139.573 141.395C135.656 141.977 126.341 136.753 126.341 136.753C126.341 136.753 114.971 126.015 111.696 115.859C108.42 105.703 115.613 104.178 115.613 104.178C118.325 102.436 124.22 107.296 125.054 108.096C125.889 108.896 126.597 110.924 126.534 112.231C126.471 113.538 128.459 115.206 128.459 115.206C128.459 115.206 131.865 121.88 132.699 122.605C133.534 123.329 133.727 123.983 133.986 125.218C134.245 126.454 136.49 127.465 137.455 127.393C138.419 127.322 139.564 127.757 139.564 128.336C139.564 128.676 140.1 128.904 140.697 129.017C140.721 129.411 140.742 129.83 140.769 130.266C140.968 133.611 141.173 137.879 141.297 141.105Z" fill="black"/>
<path opacity="0.1" d="M156.198 133.798L155.954 140.319H155.692L155.149 139.979L155.216 134.36C155.532 134.15 155.86 133.962 156.198 133.798Z" fill="black"/>
<path d="M115.098 104.757C115.098 104.757 107.905 106.282 111.181 116.438C114.456 126.593 125.826 137.334 125.826 137.334C125.826 137.334 135.14 142.555 139.061 141.977C142.981 141.398 148.951 139.873 149.722 140.091C150.494 140.309 155.698 140.309 155.698 140.309L155.954 133.502L149.927 133.138L146.844 132.413C146.844 132.413 145.751 131.392 145.109 131.542C144.467 131.692 143.12 130.671 143.12 130.671C143.12 130.671 142.089 129.728 141.312 129.728C140.534 129.728 139.064 129.51 139.064 128.931C139.064 128.353 137.907 127.91 136.954 127.989C136.002 128.067 133.727 127.046 133.462 125.797C133.197 124.548 133.013 123.911 132.178 123.186C131.343 122.462 127.938 115.784 127.938 115.784C127.938 115.784 125.946 114.116 126.01 112.813C126.073 111.509 125.368 109.474 124.533 108.674C123.698 107.875 117.792 103.018 115.098 104.757Z" fill="#DCE6F2"/>
<path opacity="0.1" d="M133.6 128.118C133.6 128.118 130.837 131.239 131.542 131.818L133.6 128.118Z" fill="black"/>
<path opacity="0.1" d="M136.553 130.586C136.553 130.586 132.955 133.706 133.92 133.924C134.884 134.142 136.553 130.586 136.553 130.586Z" fill="black"/>
<path opacity="0.1" d="M130.448 135.214C130.964 135.507 138.606 140.66 141.499 140.585L130.448 135.214Z" fill="black"/>
<path opacity="0.1" d="M130.967 100.768C130.967 100.768 129.617 105.775 129.101 105.775C128.697 105.775 121.917 99.5736 119.088 96.9666L119.211 96.8509C119.211 96.8509 119.467 94.6013 120.495 93.4475C121.523 92.2937 130.967 100.768 130.967 100.768Z" fill="black"/>
<path d="M130.707 100.186C130.707 100.186 129.36 105.193 128.845 105.193C128.438 105.193 121.658 98.9917 118.828 96.3847L118.952 96.269C118.952 96.269 119.211 94.0193 120.239 92.8656C121.266 91.7118 130.707 100.186 130.707 100.186Z" fill="#DCE6F2"/>
<g opacity="0.15">
<path opacity="0.15" d="M112.515 84.0064C113.419 86.3377 115.909 87.4677 117.352 89.326C116.493 87.0423 113.983 85.9225 112.515 84.0064Z" fill="black"/>
<path opacity="0.15" d="M121.727 89.377C121.369 90.1564 120.522 90.5342 119.751 90.5172C119.065 90.4616 118.393 90.268 117.768 89.9454C117.995 90.3232 118.168 90.739 118.28 91.1774C118.984 91.5593 119.744 91.7901 120.522 91.8581C121.303 91.8785 122.14 91.5008 122.499 90.718C123.074 89.4757 122.475 88.4139 121.773 87.4099C121.904 87.7184 121.968 88.0576 121.96 88.3996C121.952 88.7416 121.872 89.0766 121.727 89.377Z" fill="black"/>
<path opacity="0.15" d="M132.91 72.3191C132.781 71.6656 132.341 71.1517 132.115 70.5357C131.976 70.0591 131.867 69.5724 131.786 69.079C131.615 68.3814 131.298 67.7406 130.861 67.2106C130.922 67.3781 130.973 67.5497 131.015 67.7245C131.099 68.22 131.212 68.7089 131.352 69.188C131.578 69.804 132.018 70.3179 132.148 70.9713C132.224 71.433 132.142 71.9101 131.918 72.3058C131.694 72.7016 131.345 72.9862 130.942 73.1019C129.828 73.3776 128.556 72.2885 127.598 72.9896C127.01 73.415 126.874 74.3033 126.796 75.0861C126.661 76.4474 126.525 77.8009 126.386 79.1463C126.359 79.6237 126.27 80.0938 126.121 80.5417C125.648 81.767 124.349 82.3421 123.165 82.3217C122.702 82.3566 122.246 82.1856 121.893 81.8452C121.722 81.5712 121.538 81.3077 121.342 81.0557C119.835 79.6262 119.377 83.1215 119.775 84.1187C119.974 84.5673 120.221 84.9868 120.51 85.3678C120.178 84.2447 120.643 81.0114 122.113 82.3966C122.309 82.6478 122.492 82.9114 122.662 83.1862C123.015 83.5261 123.473 83.697 123.936 83.6627C125.121 83.6831 126.419 83.1079 126.892 81.8827C127.041 81.4337 127.131 80.9624 127.158 80.4839C127.294 79.1225 127.431 77.7702 127.567 76.427C127.646 75.6442 127.781 74.7559 128.366 74.3305C129.327 73.6294 130.599 74.7185 131.714 74.4394C132.114 74.3224 132.459 74.0385 132.681 73.6451C132.903 73.2517 132.985 72.7779 132.91 72.3191Z" fill="black"/>
</g>
<path opacity="0.1" d="M199.628 94.0601C199.307 94.1276 198.977 94.1184 198.66 94.0329C197.447 93.756 196.354 93.0186 195.562 91.9432C195.126 91.3442 194.782 90.5274 195.047 89.8127C195.258 89.2375 195.813 88.8767 195.951 88.2777C196.014 87.9121 195.996 87.5346 195.9 87.1784L195.575 85.5005C195.481 85.0241 195.318 84.4625 194.9 84.3502C194.481 84.2379 194.131 84.6259 193.803 84.9186C192.998 85.6367 191.452 86.1268 190.488 85.5346C189.524 84.9424 189.792 82.9752 189.635 81.9099C189.632 81.818 189.612 81.7278 189.576 81.6456C189.539 81.5633 189.488 81.491 189.424 81.4335C189.283 81.3779 189.131 81.365 188.984 81.396C188.463 81.396 188.047 80.8685 187.893 80.3035C187.789 79.7264 187.731 79.1397 187.722 78.5508C187.661 77.9654 187.474 77.3392 187.025 77.0363C186.671 76.848 186.279 76.7716 185.889 76.815L183.653 76.8423C183.102 76.8423 182.448 76.8014 182.147 76.2841C181.845 75.7668 182.068 75.0316 182.385 74.5041C182.701 73.9766 183.102 73.4525 183.129 72.8024C183.156 72.1524 182.783 71.5908 182.478 71.0462C182.304 70.7485 182.175 70.4193 182.098 70.0729L181.457 70.0286C181.206 70.6072 181.457 71.2981 181.758 71.846C182.059 72.394 182.436 72.9556 182.409 73.5988C182.382 74.2421 181.981 74.7594 181.665 75.3005C181.348 75.8417 181.116 76.5496 181.429 77.0805C181.743 77.6114 182.379 77.6489 182.936 77.6421L185.172 77.6114C185.562 77.5688 185.955 77.6465 186.308 77.8361C186.757 78.139 186.947 78.7652 187.004 79.3506C187.014 79.9397 187.072 80.5266 187.179 81.1033C187.33 81.6649 187.749 82.2026 188.27 82.1924C188.416 82.1632 188.566 82.1761 188.707 82.2299C188.771 82.2879 188.823 82.3608 188.859 82.4437C188.895 82.5265 188.916 82.6173 188.918 82.7098C189.075 83.7716 188.785 85.7422 189.771 86.3344C190.756 86.9266 192.293 86.4365 193.085 85.7184C193.414 85.4257 193.779 85.0377 194.185 85.1466C194.592 85.2555 194.767 85.8273 194.857 86.2969L195.186 87.9782C195.281 88.3347 195.298 88.7122 195.234 89.0775C195.083 89.6731 194.526 90.0373 194.315 90.6091C194.053 91.3238 194.393 92.144 194.83 92.7396C195.627 93.8197 196.728 94.5575 197.949 94.8293C198.266 94.9148 198.596 94.924 198.916 94.8565C199.434 94.6782 199.879 94.2968 200.17 93.7811C200.005 93.91 199.822 94.0045 199.628 94.0601Z" fill="black"/>
<path opacity="0.1" d="M61.3805 244.368C65.403 244.368 68.6639 243.803 68.6639 243.106C68.6639 242.408 65.403 241.843 61.3805 241.843C57.358 241.843 54.097 242.408 54.097 243.106C54.097 243.803 57.358 244.368 61.3805 244.368Z" fill="#6C63FF"/>
<path opacity="0.1" d="M241.436 264.813C253.086 264.813 262.53 263.176 262.53 261.158C262.53 259.139 253.086 257.502 241.436 257.502C229.786 257.502 220.342 259.139 220.342 261.158C220.342 263.176 229.786 264.813 241.436 264.813Z" fill="#6C63FF"/>
<path opacity="0.1" d="M301.4 248.524C310.487 248.524 317.853 247.247 317.853 245.672C317.853 244.097 310.487 242.82 301.4 242.82C292.313 242.82 284.947 244.097 284.947 245.672C284.947 247.247 292.313 248.524 301.4 248.524Z" fill="#6C63FF"/>
<path opacity="0.1" d="M298.691 278.927C314.1 278.927 326.592 276.761 326.592 274.09C326.592 271.419 314.1 269.254 298.691 269.254C283.281 269.254 270.79 271.419 270.79 274.09C270.79 276.761 283.281 278.927 298.691 278.927Z" fill="#6C63FF"/>
<path opacity="0.1" d="M30.2066 282C41.8565 282 51.3006 280.363 51.3006 278.345C51.3006 276.326 41.8565 274.689 30.2066 274.689C18.5567 274.689 9.11261 276.326 9.11261 278.345C9.11261 280.363 18.5567 282 30.2066 282Z" fill="#6C63FF"/>
<path d="M61.7119 202.891C61.7119 202.891 62.5376 204.109 61.3322 205.954C60.1268 207.799 59.1324 209.358 59.5241 210.494C59.5241 210.494 61.3322 207.091 62.8389 207.03C64.3456 206.968 63.3421 204.947 61.7119 202.891Z" fill="#E5D6C7"/>
<path opacity="0.1" d="M61.7119 202.891C61.7855 203.007 61.8424 203.136 61.8806 203.272C63.3271 205.192 64.0955 206.979 62.7063 207.016C61.4135 207.057 59.8616 209.671 59.491 210.331C59.5023 210.382 59.5164 210.432 59.5332 210.481C59.5332 210.481 61.3412 207.077 62.8479 207.016C64.3546 206.955 63.3421 204.947 61.7119 202.891Z" fill="black"/>
<path d="M63.2489 204.443C63.2489 204.872 63.2037 205.219 63.1525 205.219C63.1012 205.219 63.056 204.879 63.056 204.443C63.056 204.007 63.1103 204.218 63.1615 204.218C63.2127 204.218 63.2489 204.014 63.2489 204.443Z" fill="#FFD037"/>
<path d="M63.7732 204.957C63.4418 205.161 63.1494 205.297 63.1253 205.233C63.1012 205.168 63.3483 204.974 63.6828 204.766C64.0173 204.559 63.8847 204.712 63.9088 204.766C63.9329 204.821 64.1077 204.749 63.7732 204.957Z" fill="#FFD037"/>
<path d="M57.3546 202.891C57.3546 202.891 56.5289 204.109 57.7343 205.954C58.9396 207.799 59.9371 209.358 59.5423 210.494C59.5423 210.494 57.7343 207.091 56.2426 207.03C54.751 206.968 55.7153 204.947 57.3546 202.891Z" fill="#E5D6C7"/>
<path opacity="0.1" d="M57.3545 202.891C57.2824 203.008 57.2256 203.137 57.1857 203.272C55.7393 205.192 54.9708 206.979 56.36 207.016C57.6528 207.057 59.2047 209.671 59.5784 210.331C59.566 210.382 59.5509 210.432 59.5332 210.481C59.5332 210.481 57.7251 207.077 56.2335 207.016C54.7418 206.955 55.7152 204.947 57.3545 202.891Z" fill="black"/>
<path d="M55.8207 204.443C55.8207 204.872 55.8629 205.219 55.9142 205.219C55.9654 205.219 56.0106 204.879 56.0106 204.443C56.0106 204.007 55.9563 204.218 55.9051 204.218C55.8539 204.218 55.8207 204.014 55.8207 204.443Z" fill="#FFD037"/>
<path d="M55.2933 204.957C55.6278 205.161 55.9171 205.297 55.9442 205.233C55.9713 205.168 55.7182 204.974 55.3837 204.766C55.0492 204.559 55.1818 204.712 55.1577 204.766C55.1336 204.821 54.9588 204.749 55.2933 204.957Z" fill="#FFD037"/>
<path opacity="0.1" d="M59.5333 219.813C64.2981 219.813 68.1608 219.144 68.1608 218.319C68.1608 217.494 64.2981 216.825 59.5333 216.825C54.7685 216.825 50.9059 217.494 50.9059 218.319C50.9059 219.144 54.7685 219.813 59.5333 219.813Z" fill="#6C63FF"/>
<path d="M63.9749 208.847L63.9327 209.228L63.8755 209.766L63.8514 209.991L63.7941 210.528L63.767 210.753L63.7098 211.291L63.0498 217.417C62.9926 217.961 62.203 218.387 61.2418 218.387H57.8245C56.8723 218.387 56.0828 217.961 56.0165 217.417L55.3565 211.291L55.2993 210.753L55.2752 210.528L55.2149 209.991L55.1908 209.766L55.1335 209.228L55.0913 208.847C55.0582 208.537 55.4861 208.279 56.0255 208.279H63.0438C63.5802 208.279 64.0081 208.537 63.9749 208.847Z" fill="#65617D"/>
<path d="M63.9327 209.228L63.8755 209.766H55.1908L55.1335 209.228H63.9327Z" fill="#9D9CB5"/>
<path d="M63.8514 209.991L63.7942 210.528H55.2752L55.215 209.991H63.8514Z" fill="#9D9CB5"/>
<path d="M63.7703 210.753L63.71 211.291H55.3568L55.2995 210.753H63.7703Z" fill="#9D9CB5"/>
<path d="M42.0041 238.392C41.7156 238.841 41.4843 239.334 41.317 239.856C41.2748 239.981 41.2326 240.128 41.1904 240.267C41.114 240.227 41.0342 240.195 40.9524 240.172C40.6011 240.072 40.2377 240.037 39.8766 240.07C39.8766 239.91 39.8947 239.73 39.8977 239.57C39.9429 237.776 39.756 235.278 38.2403 236.336C36.7878 237.357 37.8244 239.059 38.7616 240.148C38.843 240.244 38.9243 240.332 39.0027 240.417C38.1469 241.098 37.9841 242.708 37.8425 244.379C37.7009 246.05 36.4443 247.877 35.6096 248.915C35.5252 249.021 35.4498 249.116 35.3745 249.205C35.0371 248.901 34.6465 248.681 34.2284 248.559C33.8103 248.438 33.3742 248.418 32.9487 248.5C32.9156 248.354 32.8764 248.201 32.8372 248.041C32.1622 245.287 30.761 240.519 28.974 239.474L29.209 239.134C29.9684 238.014 30.8242 236.347 29.5616 235.921C28.299 235.496 28.1845 237.364 28.2538 238.766C28.2658 238.943 28.2779 239.11 28.2899 239.267C28.0375 239.28 27.7902 239.351 27.5631 239.476C27.3361 239.602 27.1343 239.778 26.9701 239.995L26.7742 239.733C25.7496 238.372 23.8723 236.204 23.3027 237.841C22.7724 239.365 24.4267 241.346 25.5899 242.493L25.6622 242.565C24.8818 246.142 28.2899 249.058 30.1251 250.335L30.3632 250.498C27.8319 253.867 26.2679 260.184 26.2679 260.184L33.3555 261.614C33.3555 261.614 38.0565 257.033 37.4538 252.731H37.502C42.1999 251.669 43.2667 246.012 42.5344 242.653L42.6188 242.616C43.4747 242.22 44.2246 241.58 44.7945 240.757C46.1083 238.698 43.3601 236.37 42.0041 238.392Z" fill="#6C63FF"/>
<path opacity="0.1" d="M42.0041 238.392C41.7156 238.841 41.4843 239.334 41.317 239.856C41.2748 239.981 41.2326 240.128 41.1904 240.267C41.114 240.227 41.0342 240.195 40.9524 240.172C40.6011 240.072 40.2377 240.037 39.8766 240.07C39.8766 239.91 39.8947 239.73 39.8977 239.57C39.9429 237.776 39.756 235.278 38.2403 236.336C36.7878 237.357 37.8244 239.059 38.7616 240.148C38.843 240.244 38.9243 240.332 39.0027 240.417C38.1469 241.098 37.9841 242.708 37.8425 244.379C37.7009 246.05 36.4443 247.877 35.6096 248.915C35.5252 249.021 35.4498 249.116 35.3745 249.205C35.0371 248.901 34.6465 248.681 34.2284 248.559C33.8103 248.438 33.3742 248.418 32.9487 248.5C32.9156 248.354 32.8764 248.201 32.8372 248.041C32.1622 245.287 30.761 240.519 28.974 239.474L29.209 239.134C29.9684 238.014 30.8242 236.347 29.5616 235.921C28.299 235.496 28.1845 237.364 28.2538 238.766C28.2658 238.943 28.2779 239.11 28.2899 239.267C28.0375 239.28 27.7902 239.351 27.5631 239.476C27.3361 239.602 27.1343 239.778 26.9701 239.995L26.7742 239.733C25.7496 238.372 23.8723 236.204 23.3027 237.841C22.7724 239.365 24.4267 241.346 25.5899 242.493L25.6622 242.565C24.8818 246.142 28.2899 249.058 30.1251 250.335L30.3632 250.498C27.8319 253.867 26.2679 260.184 26.2679 260.184L33.3555 261.614C33.3555 261.614 38.0565 257.033 37.4538 252.731H37.502C42.1999 251.669 43.2667 246.012 42.5344 242.653L42.6188 242.616C43.4747 242.22 44.2246 241.58 44.7945 240.757C46.1083 238.698 43.3601 236.37 42.0041 238.392Z" fill="black"/>
<path d="M27.8954 240.72L27.0667 243.443C27.0667 243.443 26.6056 243.075 26.0241 242.497C24.8609 241.35 23.2065 239.369 23.7369 237.844C24.3064 236.207 26.1838 238.368 27.2083 239.736C27.6212 240.281 27.8954 240.72 27.8954 240.72Z" fill="#5B5771"/>
<path d="M29.6432 239.137C29.3914 239.512 29.1218 239.871 28.8356 240.213C28.7648 239.735 28.7155 239.253 28.6879 238.77C28.6186 237.368 28.7512 235.506 29.9957 235.925C31.2403 236.343 30.4025 238.018 29.6432 239.137Z" fill="#5B5771"/>
<path d="M40.3468 239.57C40.3227 240.471 40.2443 241.193 40.2443 241.193C39.8798 240.871 39.5345 240.522 39.2107 240.148C38.2735 239.049 37.2369 237.354 38.6894 236.336C40.1901 235.274 40.3769 237.776 40.3468 239.57Z" fill="#5B5771"/>
<path d="M45.2284 240.751C44.6585 241.573 43.9086 242.214 43.0527 242.609C42.8151 242.725 42.5716 242.825 42.3235 242.908L41.3471 241.36C41.4496 240.848 41.5846 240.345 41.7509 239.856C41.9182 239.334 42.1495 238.841 42.438 238.392C43.788 236.37 46.5422 238.698 45.2284 240.751Z" fill="#5B5771"/>
<path opacity="0.1" d="M27.2082 239.736C27.621 240.281 27.8953 240.703 27.8953 240.703L27.0666 243.426C27.0666 243.426 26.6055 243.058 26.0239 242.48C26.1531 241.602 26.4742 240.775 26.9581 240.073C27.0395 239.961 27.1268 239.845 27.2082 239.736Z" fill="black"/>
<path opacity="0.1" d="M29.6431 239.137C29.3913 239.512 29.1217 239.871 28.8355 240.213C28.7647 239.735 28.7154 239.253 28.6878 238.77C29.0322 238.778 29.3659 238.906 29.6431 239.137Z" fill="black"/>
<path d="M33.7172 250.015L31.656 251.036C31.656 251.036 31.207 250.791 30.5591 250.335C28.3925 248.83 24.0381 245.042 26.943 240.577C29.848 236.112 32.2979 244.12 33.2712 248.037C33.5635 249.229 33.7172 250.015 33.7172 250.015Z" fill="#5B5771"/>
<path opacity="0.1" d="M39.1956 240.148C39.4954 239.799 39.9016 239.592 40.3317 239.57C40.3076 240.471 40.2292 241.193 40.2292 241.193C39.8647 240.871 39.5194 240.522 39.1956 240.148Z" fill="black"/>
<path opacity="0.1" d="M43.0588 242.609C42.8212 242.725 42.5777 242.825 42.3296 242.908L41.3532 241.36C41.4557 240.848 41.5907 240.345 41.757 239.855C42.3808 240.271 42.8449 241.305 43.0588 242.609Z" fill="black"/>
<path d="M37.9359 252.724C37.8244 252.751 37.7069 252.775 37.5894 252.795C30.6796 253.98 35.3112 249.77 35.3112 249.77C35.3112 249.77 35.6126 249.429 36.0435 248.915C36.8782 247.877 38.1318 246.06 38.2764 244.379C38.4934 241.85 38.7435 239.478 41.3863 240.172C43.9809 240.86 44.4781 251.243 37.9359 252.724Z" fill="#5B5771"/>
<path d="M37.8064 272.154H24.6046V276.075H37.8064V272.154Z" fill="#D4DFEC"/>
<path d="M39.7561 259.411H22.5073V273.093H39.7561V259.411Z" fill="#D4DFEC"/>
<path opacity="0.1" d="M37.8064 272.154H24.6046V276.075H37.8064V272.154Z" fill="black"/>
<path opacity="0.1" d="M39.7561 259.411H22.5073V273.093H39.7561V259.411Z" fill="black"/>
<path d="M38.6744 272.154H25.4726V276.075H38.6744V272.154Z" fill="#D4DFEC"/>
<path opacity="0.1" d="M33.2711 248.041C33.5724 249.212 33.7171 250.015 33.7171 250.015L31.6559 251.036C31.6559 251.036 31.2069 250.791 30.559 250.335C31.3666 249.181 32.2767 248.31 33.2711 248.041Z" fill="black"/>
<path opacity="0.1" d="M37.9359 252.724C37.8244 252.751 37.7069 252.775 37.5894 252.795C30.6796 253.98 35.3112 249.77 35.3112 249.77C35.3112 249.77 35.6126 249.429 36.0435 248.915C37.3332 250.083 37.8666 251.396 37.9359 252.724Z" fill="black"/>
<path d="M26.702 260.188C26.702 260.188 30.5712 244.532 35.9984 249.361C41.4256 254.191 33.7895 261.614 33.7895 261.614L26.702 260.188Z" fill="#5B5771"/>
<path opacity="0.1" d="M28.6546 243.521C28.8943 243.521 29.0886 243.302 29.0886 243.031C29.0886 242.76 28.8943 242.541 28.6546 242.541C28.415 242.541 28.2207 242.76 28.2207 243.031C28.2207 243.302 28.415 243.521 28.6546 243.521Z" fill="black"/>
<path opacity="0.1" d="M28.6185 245.808C28.8582 245.808 29.0524 245.589 29.0524 245.318C29.0524 245.047 28.8582 244.828 28.6185 244.828C28.3789 244.828 28.1846 245.047 28.1846 245.318C28.1846 245.589 28.3789 245.808 28.6185 245.808Z" fill="black"/>
<path opacity="0.1" d="M41.2057 243.97C41.4453 243.97 41.6396 243.751 41.6396 243.48C41.6396 243.209 41.4453 242.99 41.2057 242.99C40.966 242.99 40.7717 243.209 40.7717 243.48C40.7717 243.751 40.966 243.97 41.2057 243.97Z" fill="black"/>
<path opacity="0.1" d="M31.0804 255.695C31.32 255.695 31.5143 255.476 31.5143 255.205C31.5143 254.934 31.32 254.715 31.0804 254.715C30.8407 254.715 30.6464 254.934 30.6464 255.205C30.6464 255.476 30.8407 255.695 31.0804 255.695Z" fill="black"/>
<path opacity="0.1" d="M40.3016 247.768C40.5412 247.768 40.7355 247.549 40.7355 247.278C40.7355 247.008 40.5412 246.788 40.3016 246.788C40.0619 246.788 39.8676 247.008 39.8676 247.278C39.8676 247.549 40.0619 247.768 40.3016 247.768Z" fill="black"/>
<path opacity="0.1" d="M35.8175 252.836C36.0572 252.836 36.2515 252.617 36.2515 252.346C36.2515 252.075 36.0572 251.856 35.8175 251.856C35.5779 251.856 35.3836 252.075 35.3836 252.346C35.3836 252.617 35.5779 252.836 35.8175 252.836Z" fill="black"/>
<path opacity="0.1" d="M30.1373 244.501C30.377 244.501 30.5712 244.282 30.5712 244.011C30.5712 243.74 30.377 243.521 30.1373 243.521C29.8976 243.521 29.7034 243.74 29.7034 244.011C29.7034 244.282 29.8976 244.501 30.1373 244.501Z" fill="black"/>
<path opacity="0.1" d="M40.0124 245.441C40.2521 245.441 40.4464 245.221 40.4464 244.95C40.4464 244.68 40.2521 244.46 40.0124 244.46C39.7728 244.46 39.5785 244.68 39.5785 244.95C39.5785 245.221 39.7728 245.441 40.0124 245.441Z" fill="black"/>
<path opacity="0.1" d="M38.5298 249.239C38.7694 249.239 38.9637 249.019 38.9637 248.749C38.9637 248.478 38.7694 248.259 38.5298 248.259C38.2901 248.259 38.0958 248.478 38.0958 248.749C38.0958 249.019 38.2901 249.239 38.5298 249.239Z" fill="black"/>
<path opacity="0.1" d="M33.9735 255.327C34.2131 255.327 34.4074 255.108 34.4074 254.837C34.4074 254.567 34.2131 254.347 33.9735 254.347C33.7338 254.347 33.5396 254.567 33.5396 254.837C33.5396 255.108 33.7338 255.327 33.9735 255.327Z" fill="black"/>
<path opacity="0.1" d="M33.0333 252.918C33.273 252.918 33.4672 252.698 33.4672 252.428C33.4672 252.157 33.273 251.938 33.0333 251.938C32.7936 251.938 32.5994 252.157 32.5994 252.428C32.5994 252.698 32.7936 252.918 33.0333 252.918Z" fill="black"/>
<path opacity="0.1" d="M30.7881 247.483C31.0278 247.483 31.2221 247.263 31.2221 246.992C31.2221 246.722 31.0278 246.502 30.7881 246.502C30.5485 246.502 30.3542 246.722 30.3542 246.992C30.3542 247.263 30.5485 247.483 30.7881 247.483Z" fill="black"/>
<path opacity="0.1" d="M38.6744 272.154H25.4726V273.587H38.6744V272.154Z" fill="black"/>
<path d="M40.6241 259.411H23.3752V273.093H40.6241V259.411Z" fill="#D4DFEC"/>
<path opacity="0.1" d="M34.552 257.533C34.7917 257.533 34.986 257.313 34.986 257.043C34.986 256.772 34.7917 256.553 34.552 256.553C34.3124 256.553 34.1181 256.772 34.1181 257.043C34.1181 257.313 34.3124 257.533 34.552 257.533Z" fill="black"/>
<path opacity="0.1" d="M31.9483 258.145C32.188 258.145 32.3823 257.926 32.3823 257.655C32.3823 257.385 32.188 257.165 31.9483 257.165C31.7087 257.165 31.5144 257.385 31.5144 257.655C31.5144 257.926 31.7087 258.145 31.9483 258.145Z" fill="black"/>
<path opacity="0.1" d="M15.0672 21.2577C16.808 21.2577 18.2193 19.6638 18.2193 17.6977C18.2193 15.7316 16.808 14.1378 15.0672 14.1378C13.3264 14.1378 11.9152 15.7316 11.9152 17.6977C11.9152 19.6638 13.3264 21.2577 15.0672 21.2577Z" fill="#6C63FF"/>
<path opacity="0.1" d="M317.787 134.465C320.117 134.465 322.006 132.332 322.006 129.701C322.006 127.069 320.117 124.936 317.787 124.936C315.457 124.936 313.568 127.069 313.568 129.701C313.568 132.332 315.457 134.465 317.787 134.465Z" fill="#6C63FF"/>
<path opacity="0.1" d="M325.92 122.969C327.621 122.969 329 121.411 329 119.49C329 117.569 327.621 116.012 325.92 116.012C324.219 116.012 322.841 117.569 322.841 119.49C322.841 121.411 324.219 122.969 325.92 122.969Z" fill="#6C63FF"/>
<path opacity="0.1" d="M20.4914 9.52956C22.8214 9.52956 24.7102 7.39629 24.7102 4.76478C24.7102 2.13326 22.8214 0 20.4914 0C18.1614 0 16.2726 2.13326 16.2726 4.76478C16.2726 7.39629 18.1614 9.52956 20.4914 9.52956Z" fill="#6C63FF"/>
<path opacity="0.1" d="M4.2188 31.3114C6.54878 31.3114 8.4376 29.1782 8.4376 26.5466C8.4376 23.9151 6.54878 21.7819 4.2188 21.7819C1.88882 21.7819 0 23.9151 0 26.5466C0 29.1782 1.88882 31.3114 4.2188 31.3114Z" fill="#6C63FF"/>
</g>
<defs>
<linearGradient id="paint0_linear" x1="158.847" y1="264.054" x2="158.847" y2="64.784" gradientUnits="userSpaceOnUse">
<stop stop-color="#808080" stop-opacity="0.25"/>
<stop offset="0.54" stop-color="#808080" stop-opacity="0.12"/>
<stop offset="1" stop-color="#808080" stop-opacity="0.1"/>
</linearGradient>
<clipPath id="clip0">
<rect width="329" height="282" fill="white"/>
</clipPath>
</defs>
</svg>
