<svg width="282" height="302" viewBox="0 0 282 302" fill="none" xmlns="http://www.w3.org/2000/svg">
<g clip-path="url(#clip0)">
<path d="M248.74 114.975C232.95 49.3387 178.388 1.95823 114.345 0.0578385C80.4875 -0.946841 44.8598 10.9233 18.9201 52.4612C-27.4498 126.715 21.7696 178.026 56.0841 202.408C72.6622 214.212 87.6 228.404 100.465 244.575C123.643 273.65 168.233 309.78 221.337 253.17C259.828 212.139 259.258 158.696 248.74 114.975Z" fill="#FFD115"/>
<path d="M275.744 266.11C275.744 279.047 218.19 302 147.194 302C76.1973 302 25.382 255.486 25.382 242.549C25.382 229.612 76.1973 255.151 147.194 255.151C218.19 255.151 275.744 253.173 275.744 266.11Z" fill="#3F3D56"/>
<path opacity="0.1" d="M275.744 266.11C275.744 279.047 218.19 302 147.194 302C76.1973 302 25.382 255.486 25.382 242.549C25.382 229.612 76.1973 255.151 147.194 255.151C218.19 255.151 275.744 253.173 275.744 266.11Z" fill="black"/>
<path d="M275.744 265.973C275.744 278.91 218.19 289.397 147.194 289.397C76.1973 289.397 25.382 255.485 25.382 242.549C25.382 229.612 76.1973 242.549 147.194 242.549C218.19 242.549 275.744 253.036 275.744 265.973Z" fill="#3F3D56"/>
<g opacity="0.7">
<path opacity="0.7" d="M271.488 70.5073C266.825 80.0743 252.047 91.3476 242.996 86.4186C233.946 81.4896 234.051 62.2249 238.714 52.6579C240.954 48.0646 244.828 44.5997 249.484 43.0254C254.14 41.4512 259.197 41.8963 263.542 44.263C267.888 46.6297 271.166 50.7242 272.656 55.6458C274.147 60.5674 273.726 65.9132 271.488 70.5073Z" fill="#E5D6C7"/>
<path opacity="0.7" d="M243.762 88.9484C243.471 88.3491 243.01 87.861 242.444 87.5524C241.877 87.2439 241.234 87.1305 240.603 87.228L242.231 83.8887L245.39 85.6091L243.762 88.9484Z" fill="#6C63FF"/>
<path opacity="0.7" d="M241.46 85.4922C241.822 86.0222 242.299 86.4536 242.85 86.7508C243.402 87.0481 244.012 87.2027 244.631 87.202" stroke="#2F2E41" stroke-width="2" stroke-miterlimit="10"/>
<path opacity="0.4" d="M268.928 59.8691C270.108 57.4486 269.517 54.6438 267.609 53.6046C265.701 52.5653 263.197 53.6851 262.018 56.1057C260.838 58.5263 261.428 61.331 263.337 62.3702C265.245 63.4095 267.748 62.2897 268.928 59.8691Z" fill="white"/>
<path opacity="0.7" d="M242.912 86.5383L229.159 123.122" stroke="#2F2E41" stroke-width="2" stroke-miterlimit="10"/>
</g>
<path d="M274.391 129.193C264.183 140.08 239.541 148.708 229.242 137.916C218.943 127.125 226.887 101.001 237.096 90.1144C241.999 84.8894 248.664 81.9367 255.626 81.9055C262.588 81.8744 269.277 84.7674 274.221 89.9484C279.166 95.1294 281.961 102.174 281.993 109.534C282.025 116.893 279.291 123.965 274.391 129.193Z" fill="#F2F2F2"/>
<path d="M229.258 141.7C229.105 140.754 228.677 139.882 228.032 139.207C227.387 138.531 226.559 138.086 225.663 137.933L229.226 134.133L232.821 137.9L229.258 141.7Z" fill="#FF6584"/>
<path d="M227.529 135.962C227.808 136.847 228.281 137.648 228.909 138.302C229.538 138.955 230.304 139.441 231.145 139.72" stroke="#2F2E41" stroke-width="2" stroke-miterlimit="10"/>
<path d="M228.556 138.834L194.705 174.934" stroke="#2F2E41" stroke-width="2" stroke-miterlimit="10"/>
<path opacity="0.4" d="M275.221 113.583C277.804 110.829 278.138 106.751 275.966 104.476C273.795 102.201 269.94 102.589 267.358 105.344C264.775 108.098 264.441 112.176 266.613 114.451C268.784 116.726 272.638 116.338 275.221 113.583Z" fill="white"/>
<path d="M242.484 93.9242C239.12 108.835 222.316 129.75 208.211 126.194C194.105 122.638 188.039 95.9578 191.403 81.047C193.022 73.8909 197.263 67.7072 203.194 63.8553C209.125 60.0033 216.259 58.7984 223.03 60.5053C229.801 62.2121 235.654 66.6912 239.301 72.9578C242.949 79.2244 244.094 86.7658 242.484 93.9242Z" fill="#5B5771"/>
<path d="M210.085 129.417C209.49 128.693 208.695 128.184 207.812 127.961C206.929 127.739 206.002 127.814 205.162 128.176L206.336 122.971L211.26 124.212L210.085 129.417Z" fill="#6C63FF"/>
<path d="M205.787 125.467C206.459 126.069 207.258 126.494 208.116 126.706C208.974 126.919 209.868 126.913 210.724 126.689" stroke="#2F2E41" stroke-width="2" stroke-miterlimit="10"/>
<path opacity="0.4" d="M235.513 80.1344C236.364 76.3618 234.643 72.6957 231.669 71.9459C228.695 71.1962 225.594 73.6467 224.743 77.4193C223.892 81.192 225.613 84.858 228.587 85.6078C231.561 86.3575 234.662 83.907 235.513 80.1344Z" fill="white"/>
<path d="M208.133 127.349L196.978 176.791" stroke="#2F2E41" stroke-width="2" stroke-miterlimit="10"/>
<g opacity="0.8">
<path opacity="0.8" d="M86.1335 224.667C78.8009 232.209 61.3136 237.964 54.1783 230.213C47.043 222.461 52.9616 204.139 60.2942 196.597C62.0378 194.803 64.0984 193.39 66.3585 192.439C68.6186 191.487 71.0339 191.015 73.4665 191.05C75.8991 191.085 78.3013 191.627 80.536 192.643C82.7707 193.66 84.7941 195.131 86.4908 196.974C88.1874 198.818 89.524 200.996 90.4243 203.385C91.3245 205.774 91.7708 208.327 91.7376 210.899C91.7044 213.47 91.1925 216.01 90.2309 218.372C89.2694 220.734 87.8771 222.873 86.1335 224.667Z" fill="#5B5771"/>
<path opacity="0.8" d="M54.1442 232.882C54.048 232.212 53.7561 231.592 53.3095 231.107C52.8629 230.621 52.2839 230.296 51.6536 230.176L54.213 227.543L56.7036 230.249L54.1442 232.882Z" fill="#6C63FF"/>
<path opacity="0.8" d="M52.9938 228.811C53.1794 229.439 53.5033 230.01 53.9389 230.48C54.3745 230.949 54.9093 231.302 55.4993 231.511" stroke="#2F2E41" stroke-width="2" stroke-miterlimit="10"/>
<path opacity="0.4" d="M86.9068 213.666C88.762 211.757 89.0464 208.885 87.5419 207.251C86.0375 205.617 83.314 205.839 81.4587 207.747C79.6035 209.656 79.3191 212.527 80.8235 214.162C82.3279 215.796 85.0515 215.574 86.9068 213.666Z" fill="white"/>
</g>
<path d="M165.716 65.7168H170.868C174.247 65.7168 177.489 67.136 179.878 69.6621C182.268 72.1883 183.611 75.6145 183.611 79.187V98.1028H152.974V79.187C152.974 77.4181 153.303 75.6665 153.943 74.0322C154.584 72.3979 155.523 70.913 156.706 69.6621C157.889 68.4113 159.294 67.4191 160.84 66.7422C162.386 66.0652 164.043 65.7168 165.716 65.7168Z" fill="#2F2E41"/>
<path d="M151.094 150.044L147.227 158.637C147.227 158.637 144.076 170.181 147.647 171.415C151.218 172.649 151.915 159.569 151.915 159.569L154.872 150.908L151.094 150.044Z" fill="#FFB9B9"/>
<path opacity="0.1" d="M151.094 150.044L147.227 158.637C147.227 158.637 144.076 170.181 147.647 171.415C151.218 172.649 151.915 159.569 151.915 159.569L154.872 150.908L151.094 150.044Z" fill="black"/>
<path d="M151.826 136.595L146.936 154.686L154.679 158.994V137.456L151.826 136.595Z" fill="#575A89"/>
<path d="M165.07 88.5659C165.07 88.5659 164.662 95.4579 163.847 95.4579C163.032 95.4579 161.402 103.642 161.402 103.642L168.329 108.381L176.887 100.196L174.442 93.7349C174.442 93.7349 173.219 91.1504 173.627 88.5659C174.034 85.9814 165.07 88.5659 165.07 88.5659Z" fill="#FFB9B9"/>
<path opacity="0.1" d="M165.07 88.5659C165.07 88.5659 164.662 95.4579 163.847 95.4579C163.032 95.4579 161.402 103.642 161.402 103.642L168.329 108.381L176.887 100.196L174.442 93.7349C174.442 93.7349 173.219 91.1504 173.627 88.5659C174.034 85.9814 165.07 88.5659 165.07 88.5659Z" fill="black"/>
<path d="M190.741 157.055L191.556 166.532C191.556 166.532 194.409 178.162 198.076 177.301C201.744 176.439 196.039 164.809 196.039 164.809L194.409 155.763L190.741 157.055Z" fill="#FFB9B9"/>
<path d="M173.219 250.529C173.219 250.529 175.664 266.467 174.034 269.482C172.404 272.497 175.664 272.928 175.664 272.928L185.444 270.343V265.605C185.444 265.605 182.184 250.098 182.184 249.237C182.184 248.375 173.219 250.529 173.219 250.529Z" fill="#FFB9B9"/>
<path d="M153.252 179.024C153.252 179.024 156.105 210.038 160.587 219.946C165.07 229.853 169.144 256.99 171.182 257.421C173.219 257.852 188.704 254.836 190.741 253.113C192.779 251.39 176.887 209.607 176.887 209.177C176.887 208.746 173.219 170.409 173.219 170.409L168.329 161.794L153.252 179.024Z" fill="#2F2E41"/>
<path opacity="0.1" d="M153.252 179.024C153.252 179.024 156.105 210.038 160.587 219.946C165.07 229.853 169.144 256.99 171.182 257.421C173.219 257.852 188.704 254.836 190.741 253.113C192.779 251.39 176.887 209.607 176.887 209.177C176.887 208.746 173.219 170.409 173.219 170.409L168.329 161.794L153.252 179.024Z" fill="black"/>
<path d="M176.887 268.62C176.887 268.62 172.812 266.467 171.997 267.759L168.737 272.928C168.737 272.928 154.882 279.82 159.772 280.682C164.662 281.543 174.034 281.543 175.257 280.682C176.479 279.82 189.926 272.067 189.519 271.636C189.111 271.205 185.852 262.159 185.444 263.021C185.037 263.882 179.332 270.344 176.887 268.62Z" fill="#2F2E41"/>
<path d="M108.429 232.006C108.429 232.006 99.0563 238.898 94.5738 237.606C90.0914 236.314 94.5738 247.083 94.5738 247.083L102.724 251.821L105.169 249.667C105.169 249.667 113.726 237.606 117.393 237.175C121.061 236.745 108.429 232.006 108.429 232.006Z" fill="#FFB9B9"/>
<path d="M150.808 153.179L152.438 162.225L121.876 211.33C121.876 211.33 103.539 230.714 105.169 232.868C106.799 235.022 116.986 247.514 119.431 245.791C121.876 244.068 178.517 179.455 178.109 170.84C177.702 162.225 164.255 145.856 164.255 145.856L150.808 152.317V153.179Z" fill="#2F2E41"/>
<path d="M96.6112 240.622C96.6112 240.622 100.279 236.314 98.2412 235.883C95.9495 235.456 93.6366 235.169 91.3138 235.022C90.4989 235.022 79.4966 228.991 78.6817 231.145C77.8667 233.299 83.5715 244.498 86.8315 245.791C90.0914 247.083 101.909 256.129 101.909 256.129C101.909 256.129 108.021 250.529 107.206 249.237C106.391 247.944 94.9812 245.36 96.6112 240.622Z" fill="#2F2E41"/>
<path d="M168.33 92.8734C173.731 92.8734 178.109 88.2449 178.109 82.5353C178.109 76.8258 173.731 72.1973 168.33 72.1973C162.928 72.1973 158.55 76.8258 158.55 82.5353C158.55 88.2449 162.928 92.8734 168.33 92.8734Z" fill="#FFB9B9"/>
<path d="M170.367 98.0424C170.367 98.0424 163.44 98.4732 161.402 97.1809C159.365 95.8887 154.882 114.842 154.882 114.842L152.03 139.825C152.03 139.825 151.622 142.841 152.03 144.564C152.437 146.287 147.955 143.702 149.585 148.44C151.215 153.179 148.362 155.333 151.215 155.763C154.067 156.194 169.144 149.733 169.144 149.733L176.072 111.396L178.109 95.8887L170.367 98.0424Z" fill="#D0CDE1"/>
<path d="M164.341 94.5431C164.341 94.5431 160.587 93.7349 159.365 94.5964C158.142 95.4579 153.66 101.919 153.66 103.642C153.66 105.365 152.03 124.318 152.03 126.041C152.03 127.764 150.807 136.81 150.807 137.672C150.807 138.533 151.853 142.236 151.853 142.236L154.475 137.241C154.475 137.241 153.66 130.78 156.512 120.442C159.365 110.104 164.341 94.5431 164.341 94.5431Z" fill="#575A89"/>
<path d="M168.33 101.058C168.33 101.058 173.773 92.0118 174.108 92.8733C174.442 93.7348 180.554 95.027 180.554 95.027C180.554 95.027 191.556 103.211 190.742 106.657C189.927 110.103 184.222 135.949 184.222 135.949C184.222 135.949 178.924 149.302 182.999 158.778C187.074 168.255 182.184 171.701 182.184 171.701C182.184 171.701 178.924 173.424 179.739 175.147C180.554 176.87 170.367 183.331 169.145 178.593C167.922 173.855 152.845 145.425 156.105 135.087C159.365 124.749 168.33 101.058 168.33 101.058Z" fill="#575A89"/>
<path d="M188.704 105.365C188.704 105.365 193.186 114.411 192.371 115.703C191.556 116.996 195.224 124.749 195.224 124.749C194.97 125.442 194.97 126.21 195.224 126.903C195.631 128.195 198.076 133.795 198.076 135.949C198.076 138.102 197.669 144.994 198.076 148.01C198.484 151.025 203.781 158.348 199.299 158.779C194.816 159.209 187.482 163.086 187.889 158.779C188.297 154.471 189.519 144.133 187.889 142.41C186.259 140.687 185.037 140.687 185.852 138.533C186.667 136.379 182.184 130.78 182.184 130.78L188.704 105.365Z" fill="#575A89"/>
<path d="M176.501 79.9885H161.033L157.531 71.4802H179.128L176.501 79.9885Z" fill="#2F2E41"/>
<path d="M159.004 86.2142C159.417 86.0877 159.493 85.0409 159.174 83.8762C158.854 82.7114 158.261 81.8699 157.848 81.9964C157.434 82.123 157.358 83.1698 157.677 84.3345C157.997 85.4992 158.591 86.3408 159.004 86.2142Z" fill="#FFB9B9"/>
<path d="M178.646 84.3345C178.966 83.1698 178.89 82.123 178.476 81.9965C178.063 81.8699 177.47 82.7115 177.15 83.8762C176.831 85.0409 176.907 86.0877 177.32 86.2143C177.733 86.3408 178.327 85.4992 178.646 84.3345Z" fill="#FFB9B9"/>
<path d="M270.053 248.205C270.053 258.211 264.427 261.704 257.486 261.704C257.325 261.704 257.163 261.702 257.004 261.7C256.681 261.69 256.363 261.674 256.049 261.651C249.784 261.183 244.918 257.51 244.918 248.205C244.918 238.577 256.555 226.428 257.434 225.525C257.434 225.525 257.434 225.525 257.434 225.525C257.435 225.525 257.435 225.525 257.435 225.524C257.435 225.524 257.435 225.524 257.436 225.524C257.436 225.523 257.436 225.523 257.436 225.523C257.468 225.491 257.486 225.472 257.486 225.472C257.486 225.472 270.053 238.199 270.053 248.205Z" fill="#F2F2F2"/>
<path d="M257.028 260.174L261.624 253.385L257.017 260.918L257.004 261.7C256.682 261.69 256.363 261.674 256.049 261.651L256.544 251.643L256.54 251.565L256.549 251.551L256.597 250.604L251.977 243.052L256.61 249.894L256.621 250.097L256.995 242.534L253.041 234.729L257.043 241.204L257.434 225.525L257.436 225.472V225.523L257.37 237.888L261.307 232.987L257.353 238.953L257.251 245.725L260.926 239.227L257.235 246.721L257.176 250.486L262.513 241.442L257.157 251.8L257.028 260.174Z" fill="#3F3D56"/>
</g>
<defs>
<clipPath id="clip0">
<rect width="282" height="302" fill="white"/>
</clipPath>
</defs>
</svg>
