<svg width="308" height="280" viewBox="0 0 308 280" fill="none" xmlns="http://www.w3.org/2000/svg">
<g clip-path="url(#clip0)">
<path d="M83.3986 255.296H8.25676C8.25676 255.296 6.73361 225.908 15.7456 225.574C24.7575 225.24 23.7421 238.598 35.0387 220.231C46.3354 201.864 60.0437 202.865 61.8207 213.719C63.5977 224.572 58.3937 233.255 67.9133 230.583C77.433 227.912 91.1413 234.925 83.3986 255.296Z" fill="#F3BA2B"/>
<path d="M44.5593 255.302L44.3057 255.289C44.8971 235.94 47.9775 223.509 50.4574 216.487C53.1501 208.863 55.7448 205.776 55.7707 205.746L55.9394 205.996C55.9139 206.026 53.3494 209.081 50.6783 216.654C48.2121 223.646 45.1485 236.027 44.5593 255.302Z" fill="#F2F2F2"/>
<path d="M71.755 255.342L71.5114 255.249C74.4458 241.999 81.3561 233.633 81.4257 233.55L81.5962 233.797C81.5273 233.88 74.6687 242.186 71.755 255.342Z" fill="#F2F2F2"/>
<path d="M20.0919 255.319L19.8404 255.273C20.836 245.827 19.0376 238.498 17.3536 234.014C15.5302 229.158 13.4497 226.506 13.4288 226.48L13.6045 226.239C13.6256 226.265 15.7383 228.958 17.5812 233.866C19.281 238.392 21.0964 245.789 20.0919 255.319Z" fill="#F2F2F2"/>
<path d="M93.5968 255.742H0.151957L0.1304 255.326C0.0766763 254.29 -1.11536 229.855 4.90302 221.137C6.24844 219.188 7.86911 218.165 9.71993 218.096C13.6429 217.95 16.1083 219.883 18.0967 221.434C21.8446 224.359 24.3205 226.292 33.3228 211.655C43.075 195.798 53.5972 192.387 59.6461 194.284C63.5544 195.51 66.248 198.974 67.0365 203.789C67.783 208.348 67.5452 212.633 67.3542 216.075C67.1497 219.758 66.9882 222.667 68.1381 223.986C69.098 225.086 71.014 225.186 74.1675 224.3C80.5817 222.5 89.5315 224.04 94.0237 231.676C96.4406 235.784 98.3445 243.251 93.6906 255.495L93.5968 255.742ZM0.789678 254.849H93.1763C96.6443 245.593 96.7525 237.774 93.4867 232.223C89.3657 225.218 80.72 223.375 74.3091 225.174C70.883 226.136 68.8415 225.977 67.6919 224.659C66.286 223.048 66.4584 219.942 66.6767 216.01C66.8647 212.624 67.0985 208.411 66.3726 203.977C65.6415 199.512 63.1324 196.296 59.4886 195.153C53.6327 193.315 43.4045 196.683 33.8507 212.217C24.4796 227.453 21.6566 225.251 17.7503 222.203C15.7373 220.632 13.4518 218.851 9.73918 218.989C8.08004 219.051 6.62219 219.976 5.40579 221.738C-0.00324756 229.573 0.657191 251.546 0.789678 254.849Z" fill="#CFCCE0"/>
<path d="M294.858 255.296H219.716C219.716 255.296 218.193 225.908 227.205 225.574C236.217 225.24 235.202 238.598 246.498 220.231C257.795 201.864 271.503 202.865 273.28 213.719C275.057 224.572 269.853 233.255 279.373 230.583C288.892 227.912 302.601 234.925 294.858 255.296Z" fill="#F3BA2B"/>
<path d="M256.019 255.302L255.765 255.289C256.357 235.94 259.437 223.509 261.917 216.487C264.61 208.863 267.204 205.776 267.23 205.746L267.399 205.996C267.373 206.026 264.809 209.081 262.138 216.654C259.672 223.646 256.608 236.027 256.019 255.302Z" fill="#F2F2F2"/>
<path d="M283.215 255.342L282.971 255.249C285.905 241.999 292.816 233.633 292.885 233.55L293.056 233.797C292.987 233.88 286.128 242.186 283.215 255.342Z" fill="#F2F2F2"/>
<path d="M231.551 255.319L231.3 255.273C232.295 245.827 230.497 238.498 228.813 234.014C226.99 229.158 224.909 226.506 224.888 226.48L225.064 226.239C225.085 226.265 227.198 228.958 229.041 233.866C230.74 238.392 232.556 245.789 231.551 255.319Z" fill="#F2F2F2"/>
<path d="M305.056 255.742H211.611L211.59 255.326C211.536 254.29 210.344 229.855 216.362 221.137C217.708 219.188 219.329 218.165 221.179 218.096C225.102 217.95 227.568 219.883 229.556 221.434C233.304 224.359 235.78 226.292 244.782 211.655C254.534 195.798 265.057 192.387 271.106 194.284C275.014 195.51 277.707 198.974 278.496 203.789C279.242 208.348 279.005 212.633 278.814 216.075C278.609 219.758 278.448 222.667 279.597 223.986C280.557 225.086 282.473 225.186 285.627 224.3C292.041 222.5 300.991 224.04 305.483 231.676C307.9 235.784 309.804 243.251 305.15 255.495L305.056 255.742ZM212.249 254.849H304.636C308.104 245.593 308.212 237.774 304.946 232.223C300.825 225.218 292.179 223.375 285.768 225.174C282.342 226.136 280.301 225.977 279.151 224.659C277.745 223.048 277.918 219.942 278.136 216.01C278.324 212.624 278.558 208.411 277.832 203.977C277.101 199.512 274.592 196.296 270.948 195.153C265.092 193.315 254.864 196.683 245.31 212.217C235.939 227.453 233.116 225.251 229.21 222.203C227.197 220.632 224.911 218.851 221.199 218.989C219.54 219.051 218.082 219.976 216.865 221.738C211.456 229.573 212.117 251.546 212.249 254.849V254.849Z" fill="#CFCCE0"/>
<path d="M144.818 171.842C138.232 171.842 132.457 180.891 129.272 194.404C129.047 195.352 128.836 196.326 128.639 197.315C127.298 204.242 126.632 211.365 126.656 218.513C126.656 244.249 134.802 265.185 144.818 265.185C154.833 265.185 162.979 244.249 162.979 218.513C162.979 192.777 154.833 171.842 144.818 171.842ZM144.818 264.444C135.115 264.444 127.22 243.838 127.22 218.513C127.193 211.335 127.868 204.182 129.227 197.23C129.413 196.3 129.612 195.389 129.824 194.496C132.924 181.358 138.485 172.583 144.818 172.583C154.521 172.583 162.416 193.189 162.416 218.513C162.416 243.838 154.521 264.444 144.818 264.444Z" fill="#3F3D56"/>
<path d="M149.182 245.498C145.708 245.498 142.988 233.645 142.988 218.513C142.988 203.382 145.708 191.529 149.182 191.529C152.656 191.529 155.377 203.382 155.377 218.513C155.377 233.645 152.656 245.498 149.182 245.498ZM149.182 192.27C146.13 192.27 143.551 204.288 143.551 218.513C143.551 232.739 146.13 244.757 149.182 244.757C152.235 244.757 154.814 232.739 154.814 218.513C154.814 204.288 152.235 192.27 149.182 192.27Z" fill="#3F3D56"/>
<path d="M149.886 224.711C151.208 224.711 152.279 221.936 152.279 218.513C152.279 215.091 151.208 212.316 149.886 212.316C148.564 212.316 147.493 215.091 147.493 218.513C147.493 221.936 148.564 224.711 149.886 224.711Z" fill="#CFCCE0"/>
<path d="M144.677 134.431L183.252 134.245V154.237L144.677 156.285V134.431Z" fill="#3F3D56"/>
<path d="M111.733 202.236L111.171 202.195L112.875 161.47H147.774V162.211H113.408L111.733 202.236Z" fill="#3F3D56"/>
<path d="M111.675 268.14L91.9648 263.695L92.0817 262.97L111.792 267.415L111.675 268.14Z" fill="#3F3D56"/>
<path d="M115.698 276.669L115.652 277.407L139.586 280L139.632 279.261L115.698 276.669Z" fill="#3F3D56"/>
<path d="M171.215 202.275C171.004 203.167 170.805 204.079 170.618 205.008L170.03 205.094L151.716 207.772L109.762 202.215L153.406 199.252L170.663 202.182L171.215 202.275Z" fill="#3F3D56"/>
<path d="M161.622 69.7238C161.622 69.7238 155.523 66.8586 151.603 78.3192C147.682 89.7798 141.584 102.386 141.584 102.386L145.069 103.532C145.069 103.532 145.94 95.5101 148.118 94.364L147.247 104.679C147.247 104.679 173.383 116.712 185.144 103.532L184.708 99.5213C184.708 99.5213 186.45 100.094 186.45 103.532L187.757 101.813C187.757 101.813 186.45 98.3752 182.53 93.791C179.957 90.7821 179.073 85.0577 178.769 81.4788C178.541 78.4903 177.632 75.6621 176.161 73.365C173.556 69.3931 168.809 65.1714 161.622 69.7238Z" fill="#2F2E41"/>
<path d="M127.924 80.5364L125.389 45.7181C125.389 45.7181 120.321 26.8273 127.924 28.3089C135.526 29.7905 131.021 44.2364 131.021 44.2364L135.244 80.5364H127.924Z" fill="#FFB9B9"/>
<path d="M108.213 238.7L105.398 251.294L110.748 257.221L114.69 241.293L108.213 238.7Z" fill="#FFB9B9"/>
<path d="M129.895 247.961L127.079 261.295L136.934 269.444C136.934 269.444 137.215 254.258 138.623 251.294L129.895 247.961Z" fill="#FFB9B9"/>
<path d="M142.002 176.842L140.594 180.547C140.594 180.547 124.545 170.916 120.321 184.251C116.097 197.585 106.806 239.812 106.806 239.812L114.971 244.257L129.894 199.437L163.964 198.326L165.372 173.509L142.002 176.842Z" fill="#2F2E41"/>
<path d="M153.828 183.139C153.828 183.139 130.739 176.842 129.05 192.029C127.36 207.216 129.895 236.108 130.176 236.849C130.458 237.589 129.05 251.294 129.05 251.294L139.186 253.146C139.186 253.146 145.662 212.772 142.847 202.401L161.898 200.85C168.474 200.315 173.846 193.481 174.225 184.828C174.369 181.516 173.739 178.509 171.567 176.842C164.809 171.657 152.42 171.657 152.42 171.657L153.828 183.139Z" fill="#2F2E41"/>
<path d="M109.058 250.924C109.058 250.924 107.087 245.368 104.272 247.961C101.456 250.554 94.9797 256.11 94.9797 256.11C94.9797 256.11 84.9617 260.75 93.8534 263.888C101.763 266.68 103.708 266.111 103.708 266.111C103.708 266.111 110.185 267.592 111.029 266.852C111.874 266.111 112.437 254.258 112.437 254.258C112.437 254.258 108.495 253.147 109.058 250.924Z" fill="#2F2E41"/>
<path d="M131.021 262.407C131.021 262.407 128.205 257.221 126.234 259.443C124.263 261.666 117.224 267.963 117.224 267.963C117.224 267.963 105.398 272.408 115.816 276.482C126.234 280.557 137.778 279.816 138.06 278.334C138.342 276.853 137.497 266.111 137.497 266.111C137.497 266.111 131.584 265.74 131.021 262.407Z" fill="#2F2E41"/>
<path d="M164.809 106.465C170.408 106.465 174.946 100.495 174.946 93.1303C174.946 85.7658 170.408 79.7957 164.809 79.7957C159.211 79.7957 154.673 85.7658 154.673 93.1303C154.673 100.495 159.211 106.465 164.809 106.465Z" fill="#FFB9B9"/>
<path d="M157.488 99.0569C157.488 99.0569 156.925 114.244 154.109 115.355C151.294 116.466 143.41 128.689 147.07 132.394C150.731 136.098 171.848 133.505 171.848 133.505L169.877 114.244C169.877 114.244 165.372 110.169 169.033 103.131L157.488 99.0569Z" fill="#FFB9B9"/>
<path d="M157.207 124.245L155.236 112.021L148.76 108.688L143.41 124.985C143.41 124.985 137.356 177.769 139.046 178.509C139.994 178.949 140.998 179.138 142.002 179.065C142.002 179.065 151.012 175.361 153.828 177.213C156.644 179.065 171.285 180.547 171.285 180.547C171.285 180.547 181.422 173.509 180.859 167.212C180.296 160.915 180.859 125.726 180.859 125.726L179.592 109.984L168.482 112.27L157.207 124.245Z" fill="#FCE8C8"/>
<path d="M149.041 110.539L148.76 108.317L140.876 95.7231L136.371 74.6099L125.389 80.166L133.273 105.724L144.536 124.615L149.041 110.539Z" fill="#FCE8C8"/>
<path d="M151.492 94.7249C151.492 94.7249 154.977 88.4216 158.026 87.2755C161.076 86.1295 161.511 80.3992 161.511 80.3992C161.511 80.3992 169.352 91.8598 174.143 92.4328C178.935 93.0058 174.579 78.6801 174.579 78.6801L165.867 75.8149L157.591 76.961L151.057 82.6913L151.492 94.7249Z" fill="#2F2E41"/>
<path d="M184.097 180.374L183.824 165.174H157.622L156.784 205.93L156.221 205.909L157.074 164.434H184.369L184.378 164.791L184.66 180.349L184.097 180.374Z" fill="#3F3D56"/>
<path d="M183.534 159.618H182.97V131.345L192.06 134.816L191.902 135.527L183.534 132.331V159.618Z" fill="#3F3D56"/>
<path d="M186.209 179.621C179.623 179.621 173.848 188.67 170.663 202.182C170.438 203.13 170.227 204.105 170.03 205.094C168.688 212.021 168.022 219.144 168.047 226.292C168.047 252.028 176.193 272.963 186.209 272.963C196.224 272.963 204.37 252.028 204.37 226.292C204.37 200.556 196.224 179.621 186.209 179.621ZM186.209 272.223C176.506 272.223 168.61 251.617 168.61 226.292C168.584 219.114 169.259 211.961 170.618 205.008C170.804 204.079 171.003 203.167 171.215 202.275C174.315 189.136 179.876 180.361 186.209 180.361C195.912 180.361 203.807 200.967 203.807 226.292C203.807 251.617 195.912 272.223 186.209 272.223Z" fill="#3F3D56"/>
<path d="M190.573 253.276C187.099 253.276 184.378 241.423 184.378 226.292C184.378 211.161 187.099 199.308 190.573 199.308C194.047 199.308 196.768 211.161 196.768 226.292C196.768 241.423 194.047 253.276 190.573 253.276ZM190.573 200.048C187.521 200.048 184.942 212.066 184.942 226.292C184.942 240.518 187.521 252.536 190.573 252.536C193.625 252.536 196.204 240.518 196.204 226.292C196.204 212.066 193.625 200.048 190.573 200.048Z" fill="#3F3D56"/>
<path d="M191.277 232.49C192.599 232.49 193.67 229.715 193.67 226.292C193.67 222.869 192.599 220.094 191.277 220.094C189.955 220.094 188.884 222.869 188.884 226.292C188.884 229.715 189.955 232.49 191.277 232.49Z" fill="#CFCCE0"/>
<path d="M187.476 130.727L193.389 133.69L192.262 137.764L187.476 135.171V130.727Z" fill="#3F3D56"/>
<path d="M164.105 162.582V168.508H180.881V162.975L164.105 162.582Z" fill="#3F3D56"/>
<path d="M121.025 159.618V165.545H137.801V160.012L121.025 159.618Z" fill="#3F3D56"/>
<path d="M178.367 34.1942H63.5923V0H178.367V34.1942ZM64.2674 33.306H177.692V0.888166H64.2674V33.306Z" fill="#3F3D56"/>
<path d="M85.5347 11.5461H72.7069V28.4212H85.5347V11.5461Z" fill="#F3BA2B"/>
<path d="M83.8467 26.2007H70.3438V8.4375H83.8467V26.2007ZM71.0189 25.3126H83.1716V9.32566H71.0189L71.0189 25.3126Z" fill="#3F3D56"/>
<path d="M165.202 11.9902H105.114V12.8784H165.202V11.9902Z" fill="#3F3D56"/>
<path d="M165.202 18.2073H105.114V19.0954H165.202V18.2073Z" fill="#3F3D56"/>
<path d="M165.202 24.4243H105.114V25.3125H165.202V24.4243Z" fill="#3F3D56"/>
<path d="M151.716 145.238H151.579V140.306C151.579 139.931 151.523 139.56 151.414 139.213C151.305 138.867 151.145 138.552 150.944 138.287C150.742 138.022 150.503 137.812 150.24 137.668C149.976 137.525 149.694 137.451 149.409 137.451H141.466C141.181 137.451 140.899 137.525 140.635 137.668C140.372 137.812 140.133 138.022 139.931 138.287C139.73 138.552 139.57 138.867 139.461 139.213C139.352 139.56 139.296 139.931 139.296 140.306V167.365C139.296 167.74 139.352 168.111 139.461 168.458C139.57 168.804 139.73 169.119 139.931 169.384C140.133 169.649 140.372 169.859 140.635 170.003C140.899 170.146 141.181 170.22 141.466 170.22H149.409C149.694 170.22 149.976 170.146 150.24 170.003C150.503 169.859 150.742 169.649 150.944 169.384C151.145 169.119 151.305 168.804 151.414 168.458C151.523 168.111 151.579 167.74 151.579 167.365V148.749H151.716V145.238Z" fill="#3F3D56"/>
<path d="M145.506 147.606C146.24 147.606 146.835 146.823 146.835 145.857C146.835 144.891 146.24 144.108 145.506 144.108C144.772 144.108 144.177 144.891 144.177 145.857C144.177 146.823 144.772 147.606 145.506 147.606Z" fill="#D0CDE1"/>
<path d="M179.192 162.939L152.608 162.281C152.608 162.281 137.763 166.751 139.749 156.984C141.735 147.217 152.131 154.752 152.131 154.752L180.026 153.371L179.192 162.939Z" fill="#FFB9B9"/>
<path d="M176.494 112.577L179.029 109.984C179.029 109.984 183.252 107.021 184.097 117.392C184.941 127.763 191.136 162.211 184.941 162.582C178.747 162.952 162.979 163.323 162.979 163.323L164.668 151.84L177.621 150.729L176.494 112.577Z" fill="#FCE8C8"/>
<path opacity="0.15" d="M177.339 128.504L176.494 149.617L164.105 152.951L175.368 147.025L177.339 128.504Z" fill="black"/>
</g>
<defs>
<clipPath id="clip0">
<rect width="308" height="280" fill="white"/>
</clipPath>
</defs>
</svg>
