<svg width="300" height="76" viewBox="0 0 300 76" fill="none" xmlns="http://www.w3.org/2000/svg">
<path d="M30.9695 62.7247C29.753 62.7361 28.7025 62.6336 27.8182 62.4172C27.4668 62.3438 26.7017 61.9879 25.5229 61.3496C24.3442 60.7112 23.5356 60.3968 23.0973 60.4064C22.5663 60.4662 22.0966 60.6337 21.6881 60.9088C21.2797 61.1839 20.9417 61.5227 20.6742 61.9253C20.4067 62.3278 20.1441 62.8057 19.8862 63.3589C19.6283 63.9121 19.425 64.4387 19.2763 64.9388C19.1275 65.4389 18.9599 65.9762 18.7735 66.5506C18.5871 67.125 18.408 67.5966 18.236 67.9654C17.9888 68.4829 17.3684 69.2354 16.3748 70.2229C15.3812 71.2105 14.4021 72.1362 13.4374 73.0002C12.4728 73.8641 11.9634 74.3347 11.9094 74.412C11.5405 74.8155 10.7343 75.1861 9.4907 75.5239C8.24712 75.8616 6.9606 76.0038 5.63115 75.9506C4.3017 75.8973 3.40144 75.5906 2.93037 75.0306C2.71993 74.7969 2.50082 74.3701 2.27306 73.7503C2.04529 73.1304 1.85614 72.5376 1.70561 71.9718C1.55507 71.406 1.37752 70.735 1.17295 69.9587C0.968373 69.1824 0.842934 68.663 0.796628 68.4004C0.316041 66.8266 0.238019 65.5203 0.562563 64.4815C0.680392 64.1899 0.711912 63.1689 0.657124 61.4185C0.602335 59.6681 0.607433 57.7294 0.672416 55.6025C0.737399 53.4756 0.97272 51.8348 1.37838 50.6801C2.32489 48.1777 4.0985 47.9666 6.6992 50.0465C7.32862 50.5448 7.7137 51.577 7.85444 53.143C8.02801 54.7032 7.90324 56.2991 7.48013 57.9307C7.24828 58.9193 6.99898 60.3849 6.73224 62.3274C6.42689 64.2428 6.21914 65.4641 6.109 65.9913C5.73799 67.9183 6.01682 69.3077 6.94549 70.1593C7.15014 70.3602 7.47357 70.3709 7.91578 70.1913C8.358 70.0118 8.82532 69.7348 9.31777 69.3603C9.81021 68.9857 10.2505 68.6035 10.6387 68.2135C11.0269 67.8235 11.2992 67.4962 11.4556 67.2317C12.0119 66.3551 12.6928 64.6019 13.4983 61.9721C14.3039 59.3422 14.7155 57.5011 14.733 56.4488C14.8046 55.3192 15.1542 54.1828 15.782 53.0398C16.4097 51.8968 17.1638 50.943 18.0445 50.1785C18.9251 49.4139 19.908 49.0375 20.9932 49.0493C22.0784 49.061 23.0534 49.5999 23.9183 50.6659C24.3122 51.1718 24.7653 52.1581 25.2778 53.6248C25.7903 55.0914 26.4413 56.1443 27.231 56.7836C27.982 57.3958 28.7365 57.7874 29.4944 57.9584C30.2523 58.1294 31.1612 58.1976 32.2213 58.163C33.2814 58.1284 34.1243 58.1575 34.7499 58.2502C35.4856 58.3913 36.1165 58.7539 36.6426 59.3381C37.1687 59.9223 37.3004 60.5252 37.0377 61.147C36.7112 61.983 35.7129 62.4637 34.0426 62.589C32.7063 62.6892 31.682 62.7344 30.9695 62.7247ZM64.3844 56.1219C64.9232 56.2977 65.2707 56.8288 65.4269 57.7151C65.6392 58.7269 65.2326 59.7802 64.2071 60.8749C63.8324 61.2456 63.3921 61.6279 62.8862 62.0217C62.7935 62.0719 62.6902 62.1578 62.5762 62.2794C62.1629 62.6231 61.7951 62.8403 61.4726 62.931C60.4994 63.1703 59.4779 62.9442 58.4083 62.2528C58.1438 62.0964 57.8368 61.7951 57.4873 61.349L57.2962 61.1288C56.9139 60.6885 56.5799 60.4259 56.2942 60.3409C56.0084 60.2559 55.6859 60.3466 55.3267 60.613C54.8806 60.9624 54.4644 61.8651 54.078 63.321C53.9041 64.0624 53.7418 64.5818 53.5912 64.8792C53.1295 65.9083 52.6805 66.5291 52.2441 66.7414C51.7053 67.141 50.982 67.7424 50.0744 68.5456C48.9601 69.5205 47.8507 70.1393 46.7461 70.4017C45.4833 70.7259 44.5544 71.0251 43.9597 71.2992C43.8013 71.361 43.6401 71.4063 43.4759 71.4353C43.1148 71.4989 42.7914 71.4883 42.5056 71.4033C42.0828 71.3086 41.4302 70.9667 40.5478 70.3777C39.594 69.7674 38.9187 69.201 38.522 68.6786C38.1253 68.1563 37.6518 67.1989 37.1017 65.8066C36.1925 63.5299 35.7434 61.6544 35.7542 60.1802C35.765 58.7059 36.1935 56.9126 37.0395 54.8002C38.1212 52.1048 39.2395 50.0967 40.3944 48.7761C41.5493 47.4555 43.071 46.3918 44.9596 45.5849C45.8769 45.2201 46.6532 44.7278 47.2885 44.1081C48.3044 43.1505 49.2728 42.692 50.1938 42.7327C51.0763 42.7463 52.1798 43.2456 53.5042 44.2306C54.2109 44.7829 54.7303 45.2329 55.0623 45.5805C55.3944 45.9281 55.6415 46.2738 55.8037 46.6176C55.9658 46.9613 56.1077 47.4778 56.2292 48.1672C56.7444 51.0888 57.2423 53.3365 57.7228 54.9103C57.9892 55.8449 58.3396 56.5362 58.774 56.9843C59.2084 57.4323 59.916 57.9422 60.8968 58.5139L61.0272 58.3893C61.5486 57.8912 61.9204 57.5041 62.1425 57.228C62.9941 56.2994 63.7415 55.9307 64.3844 56.1219ZM51.5165 49.6582C51.2908 48.3779 51.035 47.6953 50.7493 47.6103C50.6952 47.6875 50.644 47.7812 50.5957 47.8913C50.4837 48.2156 50.6188 48.8857 51.0009 49.9014C51.2654 50.6333 51.4806 51.0861 51.6467 51.2599C51.6988 50.98 51.6555 50.446 51.5165 49.6582ZM51.4257 57.493C51.4238 56.7148 51.3119 56.1761 51.0899 55.8768C50.9007 55.5716 50.4007 55.1352 49.5897 54.5674C48.3212 53.7079 47.6262 52.9335 47.5046 52.2441C47.4236 51.7846 47.1804 51.269 46.775 50.6974C46.3695 50.1257 46.0017 49.7675 45.6716 49.6226C45.4128 49.499 45.2014 49.4517 45.0373 49.4806C44.906 49.5038 44.7969 49.5569 44.71 49.6399C44.4106 49.8619 43.8448 50.5878 43.0123 51.8177C42.2823 52.8604 41.6531 54.139 41.1248 55.6538C40.5965 57.1685 40.2588 58.5651 40.1119 59.8433C39.9534 61.0559 40.0353 61.9046 40.3577 62.3893C40.7072 62.8354 41.0025 63.6465 41.2437 64.8224C41.4985 65.6914 41.7456 66.3248 41.9849 66.7226C42.2127 67.0547 42.5024 67.2575 42.8538 67.331C43.2438 67.4314 43.8492 67.4093 44.6698 67.2646C45.0638 67.1951 45.3891 67.1208 45.646 67.0417C45.9086 66.9954 46.149 66.9192 46.3672 66.813C46.5854 66.7068 46.7843 66.5871 46.9639 66.4539C47.1706 66.2821 47.3743 66.0939 47.5751 65.8892C47.776 65.6845 48.0174 65.422 48.2994 65.1015C49.3731 63.8967 49.94 62.9844 49.9999 62.3646C50.0869 61.7061 50.3651 60.9802 50.8344 60.1866C51.2612 59.5359 51.4583 58.6381 51.4257 57.493ZM90.4062 55.1383C91.0687 54.48 91.6784 54.1948 92.2355 54.2827C92.7925 54.3706 93.1193 54.88 93.2157 55.8107C93.2234 56.0463 93.1915 56.2973 93.12 56.5637C93.0485 56.8302 92.9317 57.0793 92.7694 57.311C92.6072 57.5427 92.4503 57.7565 92.2987 57.9525C92.1471 58.1484 91.9395 58.3627 91.6758 58.5954C91.4122 58.828 91.1906 59.011 91.011 59.1442C90.8314 59.2774 90.6002 59.4535 90.3173 59.6727C90.0344 59.8918 89.8494 60.0429 89.7625 60.1259C89.0171 60.6973 88.2244 61.1925 87.3844 61.6114C87.3573 61.65 87.0001 61.9753 86.3126 62.5874C85.6251 63.1994 84.8395 63.8794 83.956 64.6276C83.0725 65.3757 82.3363 65.9032 81.7473 66.2101C80.9459 66.6561 80.1001 67.0422 79.2099 67.3684C78.3197 67.6946 77.3701 67.972 76.3611 68.2007C75.3522 68.4294 74.3568 68.4949 73.3749 68.3972C72.393 68.2996 71.5439 68.0431 70.8276 67.6279C69.951 67.0716 69.1691 66.2364 68.4818 65.1221C67.7946 64.0079 67.2541 62.7662 66.8604 61.3971C66.4666 60.028 66.1627 58.7362 65.9485 57.5216C65.7344 56.307 65.5781 55.1329 65.4798 53.9995C65.4837 53.8295 65.425 52.3929 65.3037 49.6896C65.1824 46.9862 65.0534 44.335 64.9167 41.7359L64.7116 37.8373C64.2772 37.677 63.5096 37.6431 62.409 37.7356C61.7466 37.8186 61.0737 37.9372 60.3901 38.0916C58.7816 38.3752 57.6404 38.5257 56.9665 38.543C56.8294 38.5333 56.6377 38.5502 56.3915 38.5936C56.1453 38.637 55.8991 38.6804 55.6529 38.7238C55.4067 38.7672 55.1605 38.8106 54.9143 38.854C54.6681 38.8975 54.4668 38.9076 54.3104 38.8844C54.154 38.8612 54.0507 38.8032 54.0005 38.7105C53.8422 38.1969 53.989 37.7818 54.4409 37.4651C54.468 37.4265 54.665 37.2479 55.0319 36.9294C55.3988 36.6108 55.7836 36.2976 56.1862 35.9897C56.5889 35.6817 57.1518 35.3709 57.875 35.0572C58.5982 34.7436 59.3566 34.5337 60.1502 34.4276C62.6527 34.2233 64.2004 34.0265 64.7933 33.8374C65.3861 33.6482 65.9229 33.1897 66.4039 32.4618C67.1455 31.4848 67.9481 29.1263 68.8118 25.3862C68.8543 25.2433 68.918 25.029 69.003 24.7432C69.3295 23.3317 69.6068 22.2166 69.8348 21.3979C70.0627 20.5792 70.4022 19.5293 70.8533 18.2482C71.3043 16.9671 71.8543 15.8632 72.5033 14.9364C73.1522 14.0096 73.8658 13.2576 74.644 12.6804C77.17 10.8811 78.5632 10.72 78.8236 12.1973C78.9741 13.0508 78.6726 15.084 77.9191 18.297C77.7027 19.1813 77.553 19.8678 77.4699 20.3563C77.3771 20.9819 77.3374 21.7166 77.3508 22.5604C77.3642 23.4043 77.1971 24.2799 76.8494 25.1874C76.3046 26.7051 75.8536 27.9862 75.4962 29.0308C75.0693 30.2569 74.9553 30.9539 75.1541 31.122C75.3646 31.3556 77.0744 31.3588 80.2837 31.1314C82.5236 30.9733 83.896 30.9344 84.401 31.0146C84.9059 31.0948 85.1661 31.3705 85.1814 31.8417C85.2258 32.477 84.911 32.8032 84.2371 32.8205C83.9687 32.834 83.4405 32.9102 82.6527 33.0491C81.8706 33.2209 80.993 33.4264 80.0198 33.6657C79.0465 33.905 78.0463 34.1829 77.019 34.4995C76.0245 34.8102 75.1883 35.0592 74.5106 35.2464C74.161 35.3757 73.8703 36.5101 73.6383 38.6496C73.4062 40.789 73.1935 43.3736 73 46.4032C72.8064 49.4328 72.6324 51.469 72.4778 52.5117C71.6892 57.8294 72.5103 61.2386 74.9412 62.7393C76.0437 63.4249 77.0023 63.679 77.8172 63.5014C78.3096 63.4146 78.8194 63.1386 79.3467 62.6733C79.422 62.5246 79.7237 62.2683 80.2519 61.9044C80.7801 61.5405 81.329 61.1983 81.8987 60.8779C82.4683 60.5574 83.053 60.2258 83.6526 59.8832C84.2522 59.5405 84.5684 59.3663 84.6012 59.3605C87.0422 57.847 88.9772 56.4396 90.4062 55.1383ZM123.345 47.2487C123.924 46.5035 124.495 46.1405 125.057 46.1599C125.619 46.1793 125.997 46.6457 126.192 47.5591C126.238 47.8217 126.242 48.0833 126.203 48.344C126.165 48.6047 126.074 48.8576 125.931 49.1028C125.788 49.348 125.644 49.585 125.498 49.8138C125.352 50.0426 125.165 50.2786 124.937 50.5219C124.71 50.7652 124.517 50.9684 124.36 51.1315C124.202 51.2947 123.992 51.4926 123.728 51.7252C123.464 51.9579 123.292 52.1321 123.211 52.2479C122.516 52.9121 121.787 53.4807 121.024 53.9536C120.964 53.998 120.874 54.0646 120.754 54.1534C120.718 54.3292 120.61 54.4836 120.43 54.6168C120.25 54.75 119.972 54.9006 119.596 55.0686C118.916 55.6284 117.852 56.1207 116.404 56.5453C114.955 56.9699 113.617 57.2482 112.388 57.3803C111.159 57.5124 110.346 57.5118 109.95 57.3786C109.62 57.2337 109.22 56.8812 108.749 56.3212C108.277 55.7612 107.856 55.1924 107.483 54.615C107.11 54.0376 106.862 53.5906 106.739 53.2739C106.341 52.3624 106.08 51.3593 105.954 50.2644C105.856 49.1309 105.73 47.3592 105.576 44.9494L105.454 44.26C105.425 44.0959 105.346 43.9829 105.217 43.9211C105.087 43.8593 104.921 43.8294 104.718 43.8313C104.521 43.866 104.259 43.9123 103.931 43.9702C103.537 44.0396 103.082 44.0521 102.566 44.0076C102.051 43.9632 101.545 43.9254 101.049 43.8945C100.552 43.8635 100.124 43.8799 99.7626 43.9435C99.7955 43.9377 99.7717 44.475 99.6914 45.5554C99.6112 46.6357 99.4671 47.7866 99.2594 49.0079C99.0517 50.2292 98.801 50.9672 98.5075 51.2221C97.4473 52.1198 96.2867 52.8322 95.0257 53.3591C93.3881 54.0541 93.5026 50.1922 95.3691 41.7735C95.4 41.565 95.4918 41.1257 95.6444 40.4557C95.797 39.7856 95.9009 39.3189 95.956 39.0553C96.011 38.7917 96.0975 38.3703 96.2154 37.791C96.3332 37.2118 96.411 36.7411 96.4487 36.3791C96.4864 36.017 96.5193 35.5797 96.5474 35.067C96.5755 34.5543 96.575 34.0721 96.5461 33.6202C96.5172 33.1684 96.4623 32.7127 96.3812 32.2531C96.2886 31.7279 96.4601 30.733 96.8958 29.2684C97.3314 27.8038 97.7201 26.8891 98.062 26.5242C98.5351 26.1362 99.2303 25.9036 100.147 25.8265C101.065 25.7494 101.7 25.8489 102.053 26.1251C102.534 26.548 102.87 28.452 103.06 31.8369C103.147 34.0556 103.262 35.4739 103.405 36.0918C103.553 36.7426 103.826 37.236 104.224 37.572C104.676 37.8308 105.048 37.926 105.341 37.8575C105.633 37.789 106.146 37.4362 106.88 36.799C107.973 35.8955 108.793 35.4124 109.341 35.3497C109.888 35.2871 110.455 35.5763 111.042 36.2174C111.496 36.679 111.744 37.1261 111.787 37.5586C111.829 37.9911 111.727 38.8552 111.482 40.1509C111.132 42.0064 110.892 44.0967 110.76 46.4215C110.679 48.2636 110.787 49.5984 111.085 50.4259C111.384 51.2533 112.093 52.1605 113.215 53.1473C113.708 53.6359 114.074 53.8928 114.316 53.9179C114.42 53.9334 114.588 53.8784 114.82 53.7529C115.051 53.6274 115.297 53.4826 115.556 53.3186C115.814 53.1545 115.99 53.0473 116.083 52.9971C117.054 52.5551 117.689 52.223 117.989 52.001C120.285 50.2422 122.07 48.6582 123.345 47.2487ZM148.501 45.3516C149.119 44.6334 149.709 44.2839 150.271 44.3033C150.833 44.3227 151.195 44.792 151.357 45.7111C151.442 46.0008 151.436 46.3064 151.341 46.6278C151.245 46.9493 151.134 47.2312 151.008 47.4736C150.881 47.7159 150.685 47.9958 150.42 48.3134C150.154 48.631 149.934 48.8729 149.761 49.0389C149.587 49.2049 149.333 49.4443 148.999 49.7571C148.665 50.0699 148.47 50.2649 148.416 50.3421C147.721 51.0063 146.995 51.5912 146.238 52.097C146.178 52.1414 146.095 52.1984 145.989 52.2679C145.883 52.3374 145.768 52.4083 145.646 52.4807C145.523 52.5531 145.4 52.6255 145.278 52.6979C145.155 52.7703 145.056 52.8301 144.979 52.8774L144.865 52.9484C143.007 54.1221 140.941 54.9773 138.666 55.5138C136.326 56.0618 134.565 56.1523 133.383 55.7853C133.24 55.7428 132.675 55.6056 131.686 55.3738C130.697 55.1419 129.98 54.913 129.534 54.687C128.692 54.3277 127.782 53.3882 126.803 51.8684C125.002 49.1397 123.902 46.6429 123.502 44.3778C123.259 42.9991 123.187 41.1502 123.286 38.8311C123.295 38.694 123.304 38.4049 123.31 37.9636C123.317 37.5224 123.335 37.1893 123.363 36.9644C123.391 36.7394 123.421 36.4295 123.453 36.0346C123.485 35.6398 123.527 35.3023 123.579 35.0224C123.631 34.7424 123.698 34.4513 123.78 34.1491C123.862 33.8469 123.949 33.5694 124.04 33.3164C124.561 32.2429 124.998 31.4551 125.349 30.9531C126.798 28.8023 128.902 27.5851 131.661 27.3016C134.525 27.0336 136.216 27.7 136.735 29.3009C137.158 30.5464 137.317 31.8807 137.213 33.3038C137.108 34.7269 136.88 35.9264 136.527 36.9025C136.174 37.8785 135.671 39.1519 135.017 40.7227C134.364 42.2934 133.906 43.491 133.645 44.3155C132.682 47.2948 132.246 49.0471 132.338 49.5723C132.414 49.9991 132.931 50.534 133.891 51.1771C134.503 51.5769 135.023 51.7899 135.45 51.816C135.878 51.8421 136.616 51.6612 137.665 51.2733C139.331 50.7425 141.114 50.0051 143.012 49.0611C143.721 48.6654 144.742 48.0283 146.077 47.1499C147.411 46.2715 148.219 45.6721 148.501 45.3516ZM128.779 45.2243C129.075 45.1722 129.67 43.7472 130.564 40.9494C131.426 38.1574 131.81 36.4988 131.718 35.9735C131.608 35.3498 131.2 35.007 130.495 34.9451C129.791 34.8832 129.285 35.1332 128.978 35.6951C128.719 36.1469 128.495 36.7957 128.305 37.6414C128.116 38.4871 127.995 39.3377 127.943 40.1931C127.924 41.0427 127.915 41.8566 127.917 42.6348C127.918 43.4129 127.997 44.0506 128.152 44.5479C128.308 45.0451 128.517 45.2706 128.779 45.2243ZM195.419 35.8093C195.518 36.3674 195.14 37.2464 194.285 38.4464C193.43 39.6463 192.737 40.4625 192.204 40.895C191.856 41.2271 191.441 41.5625 190.96 41.9013C190.478 42.2401 190.024 42.5486 189.6 42.8266C189.175 43.1045 188.778 43.3521 188.41 43.5693C188.043 43.7865 187.729 43.9771 187.47 44.1412C187.212 44.3053 187.066 44.3903 187.033 44.3961C186.276 44.9019 185.482 45.2957 184.652 45.5775C183.822 45.8593 183.154 46.0532 182.648 46.1594C182.142 46.2655 181.66 46.4605 181.202 46.7442C180.745 47.028 180.382 47.5151 180.114 48.2053C179.847 48.8956 179.659 49.8934 179.551 51.1987C179.471 52.0927 179.47 53.7176 179.547 56.0734C179.624 58.4292 179.533 60.4591 179.275 62.1631C179.017 63.8671 178.439 65.3399 177.541 66.5813C176.86 67.5139 176.205 68.1708 175.579 68.5521C174.952 68.9333 174.408 69.0631 173.947 68.9414C173.485 68.8197 173.041 68.5594 172.616 68.1606C172.19 67.7618 171.851 67.2293 171.598 66.5631C171.345 65.8969 171.125 65.2249 170.938 64.5471C170.751 63.8693 170.662 63.1742 170.672 62.4617C170.589 60.6485 170.696 58.8102 170.994 56.9469C171.291 55.0836 171.761 52.8515 172.402 50.2506C173.044 47.6497 173.464 45.8578 173.663 44.875C173.936 43.5408 174.135 41.9825 174.26 40.2003C174.253 39.9647 174.246 39.5428 174.24 38.9345C174.235 38.3263 174.253 37.8068 174.296 37.3763C174.338 36.9457 174.445 36.546 174.617 36.1772C174.714 35.9571 174.892 35.6718 175.152 35.3214C175.412 34.9709 175.665 34.6302 175.911 34.299C176.157 33.9679 176.402 33.6286 176.645 33.281C176.888 32.9335 177.07 32.5715 177.19 32.195C177.31 31.8184 177.338 31.4496 177.274 31.0885C177.123 30.235 177.325 28.3041 177.877 25.2958C178.424 22.2546 179.111 19.2395 179.938 16.2505C181.377 10.7842 182.16 7.73536 182.285 7.10396C182.349 6.88963 182.408 6.6 182.462 6.23506C182.516 5.87011 182.566 5.53124 182.613 5.21843C182.659 4.90562 182.718 4.5653 182.788 4.19747C182.859 3.82963 182.95 3.48352 183.062 3.15914C183.174 2.83476 183.307 2.5321 183.46 2.25116C183.614 1.97023 183.808 1.72455 184.041 1.51411C184.275 1.30367 184.55 1.13668 184.867 1.01314C185.921 0.657994 186.805 0.823695 187.518 1.51025C188.232 2.1968 188.668 3.08461 188.826 4.17369C189.001 5.36125 189.069 6.6101 189.029 7.92024C188.99 9.23038 188.892 10.4068 188.738 11.4495C188.583 12.4922 188.311 13.7333 187.922 15.1727C187.533 16.6122 187.193 17.7553 186.902 18.6019C186.611 19.4486 186.198 20.6554 185.662 22.2223C185.126 23.7892 184.735 24.9327 184.49 25.653C183.904 27.5162 182.912 30.1876 181.511 33.6669C180.111 37.1463 179.32 39.1389 179.138 39.6448C178.972 40.0464 178.863 40.3872 178.811 40.6672C178.758 40.9472 178.787 41.2552 178.897 41.5912C179.007 41.9272 179.207 42.1966 179.497 42.3994C179.786 42.6022 180.16 42.7055 180.618 42.7094C181.075 42.7134 181.838 42.672 182.906 42.5852C183.508 42.5467 184.148 42.3831 184.825 42.0945C185.502 41.806 186.11 41.4619 186.648 41.0622C187.187 40.6626 187.73 40.2369 188.276 39.7851C188.823 39.3334 189.274 38.9154 189.629 38.5312C189.984 38.147 190.298 37.8125 190.569 37.5277C190.84 37.2429 190.993 37.0976 191.025 37.0918C191.661 36.4721 192.176 35.9411 192.572 35.499C193.184 34.748 193.772 34.3821 194.333 34.4015C194.895 34.4209 195.257 34.8902 195.419 35.8093ZM174.705 54.2364C174.677 54.275 174.656 54.3464 174.641 54.4507C174.318 57.4185 174.554 59.2385 175.35 59.9106C175.862 58.3987 176.018 56.4079 175.82 53.9382C175.8 53.637 175.714 53.4323 175.559 53.3241C175.327 53.1619 175.101 53.2188 174.878 53.4949C174.77 53.6494 174.712 53.8965 174.705 54.2364ZM243.557 27.3722C244.142 26.6598 244.691 26.3176 245.203 26.3456C245.716 26.3737 246.051 26.8309 246.207 27.7172C246.259 28.0127 246.252 28.31 246.186 28.6093C246.121 28.9086 246.025 29.1794 245.898 29.4217C245.772 29.6641 245.584 29.9426 245.335 30.2573C245.086 30.572 244.891 30.8095 244.75 30.9697C244.609 31.13 244.386 31.3554 244.082 31.6459C243.778 31.9365 243.599 32.1204 243.544 32.1976C242.882 32.856 242.202 33.4159 241.505 33.8773C241.478 33.9159 241.405 33.9796 241.285 34.0684C241.248 34.2441 241.14 34.3986 240.961 34.5318C240.814 34.6592 240.569 34.804 240.225 34.9662C239.572 35.4874 238.586 35.9406 237.266 36.3256C235.946 36.7106 234.714 36.9702 233.57 37.1042C232.426 37.2383 231.672 37.2358 231.309 37.0967C230.869 36.9035 230.318 36.3237 229.657 35.3571C228.996 34.3906 228.548 33.6235 228.312 33.0557C227.959 32.2042 227.72 31.2309 227.594 30.1361C227.48 29.1068 227.349 27.4037 227.201 25.0267L227.079 24.3373C227.05 24.1732 226.973 24.0684 226.846 24.0231C226.72 23.9777 226.572 23.953 226.402 23.9491C226.199 23.951 225.95 23.978 225.654 24.0301C225.195 24.1112 224.543 24.1077 223.698 24.0197C222.853 23.9317 222.217 23.9254 221.791 24.0006C221.791 24.0006 221.778 24.0706 221.751 24.2106C221.725 24.3506 221.7 24.5413 221.675 24.7826L221.585 24.8492C221.283 26.0194 220.933 27.105 220.534 28.1061C220.136 29.1073 219.734 29.9481 219.329 30.6287C218.925 31.3093 218.515 31.9146 218.101 32.4446C217.687 32.9746 217.312 33.396 216.978 33.7088C216.644 34.0215 216.342 34.2778 216.073 34.4776C215.804 34.6775 215.59 34.8082 215.431 34.87L215.194 34.9627C214.927 35.1789 214.679 35.3073 214.449 35.3478C213.509 35.5813 212.507 35.3688 211.443 34.7102C211.211 34.5479 210.924 34.2602 210.58 33.8469L210.389 33.6267C210.045 33.2135 209.732 32.9725 209.449 32.904C209.166 32.8354 208.859 32.915 208.527 33.1428C208.113 33.4864 207.724 34.3505 207.359 35.7349C207.146 36.4493 206.981 36.9523 206.863 37.2439C206.429 38.2344 205.993 38.8358 205.557 39.0482C205.012 39.415 204.319 39.9942 203.477 40.7857C202.39 41.7221 201.307 42.3022 200.23 42.526C199.006 42.8773 198.129 43.1842 197.6 43.4467C197.409 43.5143 197.231 43.5625 197.067 43.5915C196.739 43.6494 196.432 43.6358 196.146 43.5508C195.756 43.4503 195.139 43.1191 194.295 42.5571C193.38 41.9738 192.734 41.4277 192.356 40.9189C191.979 40.41 191.518 39.4759 190.974 38.1164C190.115 35.9324 189.678 34.1307 189.665 32.7115C189.652 31.2922 190.074 29.5593 190.932 27.5126C191.932 24.933 192.999 23.0186 194.133 21.7694C195.261 20.4874 196.736 19.4488 198.559 18.6535C199.416 18.3331 200.146 17.8659 200.749 17.2519C201.771 16.3271 202.706 15.8745 203.556 15.8939C204.405 15.9133 205.473 16.402 206.759 17.3599C207.427 17.8852 207.927 18.3217 208.259 18.6693C208.586 18.9841 208.83 19.3134 208.992 19.6571C209.154 20.0008 209.293 20.501 209.409 21.1575C209.907 23.9806 210.374 26.1491 210.81 27.6631C210.985 28.2752 211.23 28.799 211.544 29.2345C211.857 29.67 212.169 29.9958 212.478 30.2122C212.787 30.4285 213.261 30.7172 213.9 31.0784L213.99 31.0118C214.478 30.5195 214.853 30.1488 215.113 29.8997C215.254 29.7395 215.428 29.5734 215.635 29.4016C216.052 28.888 216.418 28.1804 216.733 27.2787L216.745 27.2005L216.756 27.1223L216.747 27.073C216.96 25.7832 217.281 24.0512 217.71 21.877C217.741 21.6684 217.826 21.2388 217.965 20.5881C218.104 19.9374 218.193 19.4817 218.232 19.221C218.27 18.9604 218.342 18.55 218.446 17.9901C218.55 17.4301 218.615 16.9788 218.639 16.636C218.663 16.2933 218.691 15.8738 218.722 15.3775C218.753 14.8813 218.755 14.4155 218.729 13.98C218.703 13.5446 218.652 13.1135 218.577 12.6868C218.485 12.1615 218.634 11.1874 219.026 9.76432C219.424 8.3741 219.778 7.49943 220.087 7.14031C220.527 6.75805 221.165 6.5356 222 6.47296C222.835 6.41032 223.429 6.51708 223.783 6.79326C224.225 7.18916 224.549 9.02747 224.755 12.3082C224.824 14.4284 224.933 15.8138 225.082 16.4646C225.225 17.0825 225.476 17.546 225.835 17.855C226.292 18.1466 226.65 18.2529 226.906 18.1737C227.163 18.0946 227.629 17.7587 228.303 17.166C229.303 16.3126 230.051 15.8508 230.546 15.7803C231.041 15.7099 231.583 15.9953 232.169 16.6365C232.59 17.1038 232.819 17.5373 232.856 17.9371C232.892 18.3368 232.802 19.1651 232.583 20.4221C232.293 22.2333 232.093 24.2656 231.983 26.519C231.917 28.2569 232.023 29.5328 232.302 30.3467C232.581 31.1606 233.246 32.0504 234.296 33.016C234.75 33.4776 235.081 33.7238 235.289 33.7548C235.394 33.7702 235.555 33.7249 235.773 33.6187C235.991 33.5125 236.222 33.3788 236.464 33.2176C236.706 33.0564 236.857 32.9536 236.917 32.9092C237.823 32.4788 238.409 32.1554 238.676 31.9392C240.813 30.2422 242.44 28.7198 243.557 27.3722ZM204.741 30.1039C204.751 29.3914 204.661 28.8826 204.472 28.5775C204.25 28.2781 203.753 27.8581 202.981 27.3173C201.784 26.4791 201.127 25.7317 201.011 25.0752C200.936 24.6485 200.696 24.1493 200.29 23.5776C199.891 23.0389 199.526 22.697 199.196 22.5522C198.97 22.4228 198.775 22.3725 198.611 22.4015C198.479 22.4246 198.37 22.4777 198.283 22.5607C197.984 22.7827 197.448 23.4865 196.676 24.672C195.973 25.676 195.359 26.9011 194.836 28.3473C194.351 29.8205 194.029 31.1635 193.871 32.3761C193.745 33.5829 193.824 34.4152 194.108 34.8728C194.446 35.2533 194.732 36.0151 194.968 37.1582C195.19 38.033 195.418 38.6528 195.651 39.0178C195.879 39.35 196.169 39.5528 196.52 39.6262C196.871 39.6996 197.441 39.6669 198.229 39.528C198.623 39.4585 198.951 39.4006 199.214 39.3543C199.438 39.281 199.66 39.1994 199.881 39.1097C200.102 39.0199 200.3 38.892 200.474 38.726C200.68 38.5541 200.871 38.3852 201.044 38.2192C201.245 38.0145 201.487 37.7519 201.769 37.4314C202.783 36.2711 203.322 35.3974 203.388 34.8104C203.448 34.1906 203.713 33.4839 204.182 32.6903C204.615 32.0725 204.801 31.2104 204.741 30.1039ZM204.957 24.1257C205.015 23.8786 204.974 23.3611 204.835 22.5732C204.621 21.3586 204.387 20.7059 204.134 20.6151C204.048 20.6982 203.993 20.7754 203.972 20.8468C203.86 21.1712 203.976 21.8278 204.32 22.8165C204.578 23.5155 204.791 23.9519 204.957 24.1257ZM270.663 23.2527C271.281 22.5344 271.861 22.1783 272.404 22.1841C272.946 22.19 273.318 22.666 273.519 23.6122C273.559 23.842 273.56 24.0872 273.522 24.3479C273.483 24.6086 273.394 24.8697 273.254 25.1314C273.113 25.393 272.977 25.6285 272.845 25.838C272.713 26.0475 272.526 26.2835 272.284 26.5461C272.043 26.8087 271.842 27.0134 271.682 27.1601C271.522 27.3068 271.311 27.5047 271.05 27.7538C270.79 28.0028 270.616 28.1689 270.529 28.2519C269.834 28.916 269.108 29.501 268.351 30.0068C267.866 30.3292 267.036 30.8055 265.861 31.4358C264.686 32.0661 263.175 32.8064 261.328 33.6568C259.481 34.5071 257.628 35.0369 255.769 35.2461C253.911 35.4554 252.441 35.1815 251.36 34.4244C250.935 34.1269 250.432 33.6741 249.851 33.0657C249.27 32.4574 248.749 31.8554 248.288 31.2596C247.828 30.6638 247.478 30.1671 247.239 29.7692C246.609 28.6956 246.132 27.1382 245.806 25.0971C245.007 18.8407 246.728 13.0539 250.969 7.73668C251.978 6.5435 252.742 5.79102 253.262 5.47924C253.783 5.16747 254.814 4.87555 256.357 4.60351C259.18 4.10571 261.449 4.34885 263.162 5.3329C264.876 6.31696 265.732 7.85846 265.729 9.9574C265.679 11.0156 265.569 11.6865 265.399 11.9704C265.229 12.2542 264.775 12.5119 264.037 12.7435C263.037 13.0214 262.041 12.9856 261.048 12.6359C260.056 12.2863 259.606 11.7987 259.699 11.1731C259.809 10.6459 259.614 10.1641 259.114 9.72766C258.614 9.2912 258.068 9.12506 257.477 9.22925C256.394 9.42026 254.946 10.8519 253.132 13.524C251.319 16.1962 250.513 18.1068 250.716 19.2557C250.791 19.6825 250.671 20.3467 250.356 21.2484C249.991 22.0574 249.982 23.3454 250.327 25.1122C250.699 26.8405 251.195 28.0223 251.815 28.6577C252.811 29.7005 254.276 30.28 256.209 30.3961C258.142 30.5123 259.853 30.2866 261.344 29.7191C262.142 29.4431 262.982 29.0242 263.864 28.4624C265.483 27.4662 266.916 26.2828 268.163 24.912C269.134 23.8945 269.851 23.4466 270.312 23.5683C270.345 23.5625 270.397 23.5196 270.467 23.4395C270.538 23.3593 270.603 23.2971 270.663 23.2527ZM296.799 19.2026C297.417 18.4844 298.007 18.135 298.569 18.1543C299.131 18.1737 299.493 18.643 299.655 19.5622C299.74 19.8518 299.735 20.1574 299.639 20.4789C299.543 20.8004 299.432 21.0823 299.306 21.3246C299.179 21.5669 298.983 21.8469 298.718 22.1645C298.452 22.4821 298.233 22.7239 298.059 22.8899C297.885 23.056 297.631 23.2954 297.297 23.6081C296.963 23.9209 296.769 24.1159 296.715 24.1931C296.019 24.8573 295.293 25.4423 294.536 25.9481C294.476 25.9925 294.393 26.0494 294.287 26.1189C294.181 26.1884 294.067 26.2594 293.944 26.3317C293.821 26.4041 293.699 26.4765 293.576 26.5489C293.453 26.6213 293.354 26.6812 293.278 26.7285L293.163 26.7994C291.305 27.9732 289.239 28.8283 286.965 29.3648C284.624 29.9128 282.863 30.0034 281.681 29.6363C281.539 29.5938 280.973 29.4566 279.984 29.2248C278.996 28.9929 278.278 28.764 277.832 28.538C276.99 28.1788 276.08 27.2392 275.101 25.7194C273.3 22.9907 272.2 20.4939 271.8 18.2288C271.557 16.8501 271.485 15.0012 271.584 12.6821C271.594 12.545 271.602 12.2559 271.609 11.8147C271.616 11.3734 271.633 11.0404 271.661 10.8154C271.689 10.5905 271.719 10.2805 271.751 9.88567C271.783 9.49079 271.825 9.15337 271.877 8.87339C271.929 8.59341 271.996 8.30233 272.078 8.00014C272.161 7.69796 272.247 7.4204 272.338 7.16746C272.859 6.09392 273.296 5.30616 273.647 4.80416C275.096 2.65329 277.2 1.43612 279.959 1.15265C282.823 0.884647 284.514 1.55106 285.033 3.15189C285.456 4.39741 285.615 5.73172 285.511 7.15481C285.406 8.57791 285.178 9.77748 284.825 10.7535C284.473 11.7296 283.969 13.003 283.316 14.5737C282.662 16.1444 282.204 17.342 281.944 18.1665C280.98 21.1458 280.544 22.8981 280.637 23.4233C280.712 23.8501 281.229 24.385 282.189 25.0282C282.801 25.428 283.321 25.6409 283.749 25.667C284.176 25.6932 284.914 25.5123 285.963 25.1243C287.629 24.5935 289.412 23.8561 291.31 22.9122C292.019 22.5164 293.04 21.8793 294.375 21.0009C295.709 20.1225 296.517 19.5231 296.799 19.2026ZM277.078 19.0753C277.373 19.0232 277.968 17.5983 278.862 14.8004C279.724 12.0084 280.108 10.3498 280.016 9.82455C279.906 9.20084 279.498 8.85804 278.794 8.79615C278.089 8.73426 277.583 8.98425 277.276 9.54611C277.017 9.99792 276.793 10.6467 276.604 11.4924C276.414 12.3381 276.293 13.1887 276.241 14.0441C276.222 14.8937 276.213 15.7076 276.215 16.4858C276.217 17.264 276.295 17.9017 276.451 18.3989C276.606 18.8961 276.815 19.1216 277.078 19.0753Z" fill="black"/>
</svg>
